<?xml version="1.0" encoding="utf-8"?>
<!-- Generator: Adobe Illustrator 19.0.0, SVG Export Plug-In . SVG Version: 6.00 Build 0)  -->
<svg version="1.1" xmlns="http://www.w3.org/2000/svg" xmlns:xlink="http://www.w3.org/1999/xlink" x="0px" y="0px"
	 viewBox="0 0 1280 800" style="enable-background:new 0 0 1280 800;" xml:space="preserve">
<path id="US-AK" d="M404.5,550.4v5.2l-0.1,5.4l-0.1,5.2l-0.1,5.2l-0.1,5.2l-0.1,5.2l-0.1,5.2l-0.1,5.2l-0.1,5.2l-0.1,5.1l-0.1,5.1
	l-0.1,5.1l-0.1,5.1l0.3,5.1l-0.1,5.1l-0.1,5.1l-0.1,5l-0.1,5l-0.1,5l-0.1,5l-0.1,5l-0.1,5l-0.1,5l-0.1,5l-0.1,5l-0.1,4.8l-0.1,4.8
	l-0.1,4.8l-0.1,4.8l-0.1,4.8l-0.1,4.8l-0.1,4.8l3.9,1.4l0.6-1.4l2.1,1.1l1.8,1l1.2-1.1l1.2-1.2l1.7-0.1l1.9-0.1h1.2v1.1l-0.4,1.8
	l-0.4,1.5l1.1,1.4l0.1,0.1l1.4,0.8l1.4,0.7l0.6,2.1l1.5,1.5l1.1,1.2l1.1,1.1l1.5,1.7l3.4,3.4l0.4,1.8l0.6,2.1l-0.3,1.2l0.7,0.1
	l1.4-1.4l1.2-0.8l1.5-1.1l1.1-0.7l1.9-0.1l0.8-2.1l-0.1-2.9h1l0.6-0.4l0.3-0.8l-0.7-1.1l1.8-0.6l1.4-0.4l1.9-1.1l1.8-1.1l1,0.8
	l1,0.7l1.8,1.8l0.1,0.4l-0.1,0.8l-0.1,0.8l1.2,2.5l0.3,0.3l0.8,0.3l1.1,0.8l0.6,0.7l1.5,1.1l0.3,0.4l0.1,0.7l0.3,0.7l0.3,0.4
	l0.3,0.7l0.7,0.7l1.2,0.8l1,0.6l1.2,0.8l1.4,1.7l1.2,1.5l1.4,1.4l-0.1,1.2l1.4,1.8l1.5,2.2l1.1,2.1l0.8,1.1l1,1.7l1.2,1.9l1.4,2.2
	l1.1,1.4l1.4,2.1l0.7,1.2l-0.3,0.8l-0.4,1.1l2.8,0.7l-0.1,1.2l-0.3,1.5l1.2,0.6l0.8,0.3l-0.1,0.8l0.6,0.8l0.1,1.5l1.5-0.3l0.7-0.1
	l1,0.6l1.2,0.8l1.2,0.7l1.1,0.6l1.4,0.3l1.7,0.4l1,1.1l1.5,0.4l0.7,1.7l1.8,0.4l1-0.6l0.4,0.7l0.4,0.8l0.1,1v1l-0.4,0.8l-0.3,1
	l-0.1,1v1.1l0.1,1.1l0.3,1l0.7,1.7l0.3,1.1l0.1,0.7l-1,2.6l-0.3,1.2l0.1,0.6l-0.8,1.4l-1.5,1.9l-0.7,1.1l-0.4-0.3h-2.2l-1-2.2
	l-0.6-1.7l-0.7-1.5v-0.3l0.4-1.1l2.1-1.1v-0.3l-0.8-0.1l-0.3-0.3l-0.4-1.7l-0.1-1.5l-0.1-1l-0.6-1.9l-0.7-1.1l-1.5-2.2l-0.1-0.6
	l0.6-0.8l0.3-0.7l-2.2,1.4l-3,1.5l-1.2,1l-0.3,0.4l-0.1,0.3l0.3,0.8v0.3l-0.3,0.6l-0.1,1.4l-0.6,1.5l-0.3,0.3l-1.2-0.4l-0.4-0.4
	l-0.7-1.9l0.1-0.6l0.4-0.4l0.6-1l0.7-1.5l1.1-3.7l1-0.1l1.7-0.8l-2.6-0.1l-0.4-0.1l-0.4-0.4l-0.4-0.8l-0.6-0.8l-1-0.3l-0.4-0.3
	l-0.7-1.1l-0.4-0.4l-0.3-0.6l-0.1-0.7l-0.3-0.3l-0.7-0.1l-0.4-0.3l-0.3-1.8L472,767l-0.6-0.4l-1-1.1l-0.3-0.6l-0.1-0.4l0.1-1.2
	L470,763l-0.8,0.1l-5-1.7l0.1-2.6l-1.1-3.4l-1.1-1.4l0.1-0.6l0.1-0.3h0.4l1.9,1l1.8,1.1l0.3-0.1l-2.9-2.3l-0.7-0.7l-0.3-1v-0.6
	l0.1-0.3h2.6l0.1-0.1l-2.6-0.6h-0.6l-0.6,1.1l-0.3,0.3h-0.6l-0.1-0.1l-0.7-1.2l-0.7-0.8l-1.2-1.2l-0.3-0.8l-0.1-1.4l0.1-1.2l0.8-2.9
	l0.4-0.6l0.1-0.3h-0.3l-0.3,0.3l-0.7,1.4l-0.7,2.2l-0.7,0.8l-0.4-0.1l-0.7-0.8l-1.4-1l-1.5-0.1l-1-1.1l-1.5-3l-0.3-1.5l-0.1-0.4
	l-0.8-0.4l-0.6-0.7l-0.8-3.7l-1.1-2.6l-0.3-1.4v-1.4l-0.1-0.1l-0.3,1.1v0.6l-0.6,0.1l0.6,1.1l0.1,0.6h-0.3l-0.6,0.1l1.1,1.8l0.6,2.9
	l1.2,3.7l0.6,2.5l0.8,2.8l0.1,0.6l-0.1,0.4l-0.3,0.6l-0.4,0.3l-1.4-0.3l-0.6-0.7l-0.8-1.2l-1.1-0.6l-2.6,0.4l-0.1-0.1V742l0.3-1.8
	l-0.3-0.7l-1.4-2.6v-0.6l1.8-1.2h-0.8l-0.7,0.6l-0.3-0.3l-0.6-1.7l-0.3-0.7l-0.1-0.1v1.7l0.3,0.8v1.2l-0.1,0.6l-0.3,0.3l-0.3,0.1
	l-0.7-0.3l-0.7-0.7l-0.6-0.3l-0.3-0.3l-0.3-0.7l-0.4-0.6l-2.2-0.7l-1.4-0.8l-0.1,0.3l0.4,0.8v0.6l-0.3,0.1l-0.6,0.8l0.1,0.1l0.7-0.3
	h0.7l1.2,0.4l1.1,0.7l0.4,0.4l0.1,0.6l0.1,0.1l1.1,0.6v0.3l-0.7,1l1.4-0.1l0.8,0.3l1.1,1.5l0.4,0.8l0.1,1.1l-0.1,0.3l0.7,0.4
	l-2.8,0.4l-1,1.4H437l-0.8-0.3l-1.4-1.1l-1.8-1l-4.1-2.9l-0.1-0.1l-0.1-0.6l-0.3-0.3l-0.6-0.3l-0.8-0.7l-1-1.2l-0.6-1l-0.3-0.7
	l-0.6-0.8l-1.8-1.7l-1-0.7l-0.8-0.4l-0.7-0.1l-0.1-0.3l0.3-0.4V731l-1.5-0.3l-1.5-0.8l-3.9-2.2l-1.9-1.4l-1.1-0.7l-0.6-0.4l-0.3-0.3
	l0.3-0.3l0.8-0.3l0.6-0.4l0.8-1.4v-0.4l-0.4-1.1l-0.1-1v-0.6l0.1-0.6l0.1-0.3l0.4-0.3l0.3-0.1l0.3,0.1l1,1.4l0.1,0.4v1.8l0.3,2.1
	l0.1-0.1l0.1-0.7v-1.4l0.1-0.7l0.1-0.6l0.3-0.3l1.1,0.1l0.6-0.1l-2.1-1l-1.4-1.8l-0.3-0.1l-0.7-0.1l-0.8,0.7l-1.9,2.3l-0.6,0.4
	l-2.5,1.2l-1.7,0.3l-1.9-0.3l-1.7-0.4l-4-2.1l-0.6-0.6l1-1.2V717l-0.3-1.2l-0.3-0.4l-0.4-0.3l-0.1,0.1v0.4l0.1,0.7l-0.3,0.4
	l-0.7,0.4l-1.1,0.4l-3.6-1.1l-3.6-1l-3.3-0.3l-4.7,0.6l-2.5,0.6h-1.4l-1.4-0.1l-0.1-0.6l0.7-0.3v-0.4l-0.7-1.1l-1.1-0.7l-1.7-0.3
	l-1-0.4l1-1.7l-0.6-0.4l-0.8-0.4l-0.4-0.7l0.4-2.1l0.4-1.2l0.4-0.8l0.8-1.4l-0.3,0.1l-1.2,1l-1.1,1l-1,1.4l-0.6,0.6l-0.7,0.6
	l-1.1-0.3l-1.4-1l-1.2-0.4l-1.1-0.1l-0.4-0.1l0.8-0.7l0.4-0.6l0.7-1l0.1-0.4l-3.9-0.4l-0.1-0.6v-0.4l-0.1-0.3l-0.6-0.3l-0.8,0.1
	l-1.2,0.6l-0.6-0.6l0.3-0.3l0.4-0.1l1-0.8l-1.1-0.6l-0.6-0.6l-0.3-0.4l0.1-1.5l0.4-1l2.6-0.8l-0.8-0.4H356l-1.1,0.7l-1.4,1.1
	l-0.8,0.4l-0.4-0.3l-0.6-0.1H351l-0.6,0.3l-0.3,0.6l-0.3,0.3l-0.3,0.1l-0.3-0.1l-0.3-0.6l-0.7-0.4l-0.3-0.4l-0.3,0.3l-0.3,0.7
	l-0.3,0.4l-1.2,0.3l-0.7-0.1l-0.7-1.1l-0.1-0.3l0.4-0.8l2.1-3.2h-0.1l-0.6,0.4l-1.2,1.2l-0.6,0.3h-0.8l-0.4-0.1h-0.6l-0.6,0.3
	l-0.4,0.3l-0.3,0.4l0.1,0.1l1-0.4l0.6-0.1l0.1,0.3l-0.8,1.4l-0.6,1.4l-0.4,0.3l-0.6-0.1h-0.7v0.4l1.1,1.2l0.4,0.1l0.6,0.4v0.4
	l-0.3,1.1l-0.3,0.4l-0.3,0.1l-1.1-0.1l-0.3,0.1l-0.8,0.6l-0.4,0.6h0.1l0.7-0.4l1-0.1l1.1,0.1l0.8-0.1l0.6-0.4l0.6,0.1l0.4,0.8
	l0.1,0.7l-0.3,0.6l-0.6,0.4l-0.7,0.1l-0.4,0.3l-0.3,0.4l-0.1,0.7l-0.1,1v1.7l-0.1,0.1l-0.3,0.1h-0.4l-0.4,0.3l-1,2.1l-0.3,0.1
	l-0.3-0.3h-0.3l-0.3,0.3l-0.6,0.1h0.6l-0.7-0.1l-1.2-0.6l-0.6-0.4l-0.4-0.6l-1.2,0.4l-0.3-0.3l-0.6-1.5l-0.1,0.1l-0.3,1.7l-0.3,0.6
	l-0.8,1.1l-0.7,1.9h-0.1l-0.1-0.3l-0.3-1.8l-0.1-0.4l-0.8,1l-0.1,0.4v1.4l-0.1,0.1l-1.2-0.8l-0.3-0.1l-0.1,0.1l0.3,1.1l-0.1,0.4
	l-2.2,1.8L325,718l-0.3-0.3h-0.3l-1.2,0.6l-0.3-0.1l-0.4-0.6H322l-0.1,0.4l-0.1,0.8l-0.6,0.8l-1.7,1.2l-0.4,0.6l-0.4,0.8h-0.3
	l-0.8-0.7l-1-0.6l-0.1,0.1l0.3,0.6l-0.1,0.3h-0.4l-0.6-0.1l-0.7-0.3l-1,0.1l-1.2,0.6l-1-0.1l-1.2-1.4l-0.4-0.1l-0.1-0.3l0.4-0.8
	l0.6-0.7l0.3-0.3l1.4-0.7l1.5-0.1l1-0.4l1.2-1l0.7-0.8l1.5-2.1v-0.1l-0.3-0.1l-2.9,1.7l-0.4,0.1l-0.6-0.1l-1.9-1.1h-0.3l-0.1-1.1
	l0.8-2.2l0.6-1.1l1.2-1.5l1.5-1.7l0.6-1.1l1.1-3l0.1-1.4v-1.8l0.1-1.1l0.3-0.3l3.2-1.2l1.5-1l2.9-1.4l0.7,0.1l0.4,0.7l0.6,0.6
	l0.7,0.4l1,0.1l1.2-0.3l1.8,0.4l3.6,1.7l0.8,0.1v-0.1l-0.4-0.8L334,696l-1-0.6l-2.8-2.5l-0.6-0.8l0.3-0.4l0.8-0.3l0.3-0.3l0.1-0.6
	l0.6-0.7l0.8-0.8l1.2-0.8l2.2-1.1l-0.8-0.1l-1.5,0.1l-0.6,0.1l-1.1,0.8l-0.4,0.6l-0.7,1.2l-0.3,0.3h-1.1l-2.9-0.3l-0.4-0.7l-0.3-0.1
	h-0.4l-2.9,1.4l-1.1,0.7l-0.8,0.8l-1.1,0.6L318,693l-1.1,0.4l-1.2,1l-0.6,0.8l-0.1,0.4l0.1,1.4l-0.3,0.1h-0.7l-1.1,0.7l-2.6,2.2
	l-0.4,0.8v0.3l0.3,0.8l-0.3,0.4l-0.7,0.7l-1.5,1l-1,0.3h-0.6l-0.6-0.3l-1-0.8l-0.8-0.1v0.1l1,1l1,1.2l0.6,1l0.1,0.7l-0.1,0.7
	l-0.4,0.7l-1,1.1l-0.8,0.3h-2.1l-0.7,0.1l-0.3,0.1l1.4,0.7l0.1,0.3l-0.4,1l-0.4,0.3l-1.2,0.4h-1.1l-0.1-0.1l0.3-0.8v-0.1l-0.4-0.3
	l-0.6,0.3l-1.5,1l-0.1,0.1l0.4,0.4l-0.1,0.3l-0.8,0.7l-0.4,0.6l-0.6,0.6l-2.5,1.4l0.1,0.4l-0.8,1.5l-0.6,1.2l0.3,0.7l1.8,1l0.8,0.3
	l1,0.7l1.8,1.5l0.6,1v0.4L298,726l-0.3,0.6l-0.8,1l-1.8,1.4l-0.7,0.3l-1.1,0.1l-0.4,0.1l-1.5,1.2l-0.6,0.8v0.7l-0.3,0.4l-1.9,0.7
	v0.1l0.6,0.1l-0.4,0.8l-0.3,1.2l-0.3,0.1l-1.1-0.1l-1.4,0.3l-0.1,0.1l-0.1,0.8h-3.7l-1.1,1.5l-0.6,0.4l-1.7,1l-1,0.3l-1.1,0.1
	l-0.6,0.3l-0.1,0.6l-0.4,0.4l-1,0.6l-0.6,0.8l-0.3,0.1l-1.7-0.1l-0.4,0.3l-0.4,1.2h-0.3l-0.6-0.4l-0.8,0.1l-1.9,1.1l-0.4,0.4v0.3
	l0.1,0.3l0.3,1l-0.1,0.6l-1,1.4l-0.3,0.1l-0.8,0.3l-0.6,0.8l-0.7-0.3h-0.6l-0.6,0.6l-0.4,0.3H262l-0.7,0.3l-0.8,0.7l-0.7,0.4
	l-0.6,0.1h-0.6L258,752h-0.6l-0.6,0.3l-0.6,0.4l-0.6,1.2l-0.6,0.6h-0.3l-0.6-0.1l-0.8-0.4l-0.8-0.1l-1.5,0.6l-0.6,0.6l0.8,0.3
	l0.4,0.3v0.1l-0.6,0.1l-0.8-0.1h-0.6l-0.7,0.3l-1.5,0.1l-0.6,0.1l-1.4,1.4l-0.1,0.3l0.1,0.1h0.7l0.7,0.4l0.3,0.4l0.1,0.4v0.8
	l0.1,0.1l-1.7,1.1l-0.6,0.4l-0.3,0.1l-0.1-0.1l0.1-1.5v-0.3l-0.3-0.1l-0.4,0.4l-1.1,1.7l-1,0.7l-6.1,1l-1,0.3l-0.4,1l-0.4,0.8
	l-0.6,0.6l-0.6,0.3v-0.3l0.6-2.3v-0.6l-0.6-0.4h-0.3h-0.4l-0.7,0.4h0.6l-0.4-0.1l-0.6,0.8l-2.1,1.2l-1.2,0.1l-0.4,0.3l-0.7,0.7
	l-0.4,0.3l-0.6-0.1l-0.6-0.4h-0.6l-0.4,0.7l-0.4,0.1l-1-0.7l-0.6,0.1l-0.8,0.7l-0.8,0.4l-0.7,0.1l-1.8-0.1l-0.7-0.4l-0.1-0.3l0.3-1
	l0.4-0.7l0.4-0.3l0.4-0.3l0.6,0.1l1,0.4v-0.3l-0.3-0.4l-0.8-0.7l-0.8-0.6h-0.6l-0.7,0l-0.6,0.3l-0.4,0.4l-0.7,1.7l-0.3,0.4l-2.9,2.5
	L211,769l-0.8-0.3l-0.6,0.3l-0.7,0.6l-0.6,0.3l-0.4-0.1l-0.3-0.3l-0.1-0.3l0.1-0.3l0.4-0.1v-0.7l-0.3-1.1l-0.3-0.7l-0.8-0.3
	l-0.3,0.4l-0.3,2.3l-0.1,0.6l-0.7,0.6l-1.5,0.4l-0.4-0.1l-0.8-1.7l-1-0.6l-0.1,0.4v1L201,770l-1,0.6l-0.7,0.3l-0.4-0.1l0.1-0.6
	l0.7-1l0.3-1v-0.8l0.1-0.6l0.3-0.3l1.8-0.7h0.7l0.3,0.4l0.4,0.1h0.6l0.4-0.3l0.3-0.6l0.8-0.6l1.4-0.6l1.7-1.2l2.1-1.8l2.2-1.5
	l2.3-1.1l2.3-0.7l4.5-0.7l0.3,0.1l-0.6,0.4l0.1,0.4l0.4,0.1l1.7,0.1l0.7-0.3l0.1,0.4l-0.3,0.4l-1.1,0.3v0.4l1,2.1l0.4,0.4h0.4
	l0.1-0.1l0.1-1.4l0.6-0.1l1,0.1l0.6,0.3l0.1,0.4l0.4,0.4l0.7,0.4h0.6l0.3-0.4l-0.3-0.6l-1.2-1.5l-0.3-0.6v-0.7l0.4-0.8l0.7-1.1
	l1.1-1.4l1-1l1.7-1l1.1-0.4l2.8-1.4l4.8-1l1.4-1.1l1.8-1.1l0.7-0.1l-0.1,0.6l0.1,0.6l0.8,0.6l0.6,0.3h0.3l0.1-0.6l0.1-1l0.1-0.8
	l0.3-0.8l0.3-0.7l0.8-1.1l1.2-1.1l1.7-1.2l1-0.6l0.8-0.1l0.8-0.6l1.7-1.4l0.4-0.1l1-0.1l0.3,0.1l0.1,0.4l0.1,0.3l0.8,0.4l0.7-0.3
	v-0.1l-0.6-0.3l-0.3-0.3l-0.1-1l-0.6-0.7V738l0.3-1l1-2.3l0.6-2.5l0.7-1.4l1.1-0.3l2.2,0.1l-1.1-0.8l-0.4-0.1l-0.7-0.4v-1.7l0.3-1.1
	l0.8-1.2l2.3-1.8l2.5-1.1l-0.3-0.1l-0.1-0.6l1.5-2.9l1.5-2.5l-1.7,2.1l-1.8,1.5l-4.7,1.2l-3.3,1.1l-1.5,0.1l-0.8-0.7l-0.4-1.8
	l-0.3-0.7l-0.3-1.2l0.6-1.4l0.7-0.8h1l1,0.7l0.8,0.3l-1-1.2l-1.5-1.2l-0.8,0.1l-0.8,1.2l-1,0.8l-0.6-0.4l-0.3-0.4v1.2l-0.8,1.7
	l-0.4,1.1v3.3l-0.4,1.2l-1.5,0.3l-0.8-1.2l-1.4-4.5l-0.6-1.4l-1.4-2.2l-0.7,0.1l-1,0.7l-0.8,0.1l-1.5-1.8l-0.7-1.2l-0.6-1.5
	l-1.4,0.4l-1.4,0.6l-1.7,1l-0.8-0.3l-3.2,0.7H232l-0.6,0.6l-0.4,0.1l-0.6,1.1l-3.4,0.1l-3-1.4l1.2-0.4l1.4-0.1l1.4-1v-1.8l0.1-0.8
	l0.3-1.1l1.5-1.2l-1.2-0.3l-1,0.3l-0.4-1.2l0.3-2.2l1.1-1.1l0.7-0.8l0.7-1.2l0.3-1.1l-0.1-2.2l-0.7-4.7v-3.3l-1-2.1l1.8-2.5l1.8-2.2
	l1.8-0.7l-0.1-0.1l-0.8-0.1h-0.6l-0.7,0.7l-0.7,0.6l-2.5,2.8l-1.4,1.2l-0.8,0.3l1,0.8v0.6l-0.1,1.2l-0.7,1.4l-0.6,0.7l-1.2-0.4
	l-1.5,0.8l-3,0.6l-3.9-0.3l-1.8-0.6l-1.5-1.9l0.3-0.8l0.3-0.7l-1.9-3.2l-0.8-2.9l-1.1-0.4l-0.7-1l-0.8-1.4l0.3-0.8l0.3-0.6l-0.6-0.6
	l-0.8-0.3l-1-0.6l3.6-2.3l1.5-1.8l0.8-0.1l0.8,0.6l1.1,1.2l1,0.7l0.3,0.6l0.1,0.8l-0.8,1.1l-0.7,0.7l0.6-0.1l1.8-1l1.4-0.8l0.4,0.3
	l0.3,0.3l0.3,1.4l0.4,1.4l1.9-0.7l1.2-1.2L222,678l-0.7-0.7l-2.1-1.1l0.7-0.3l1.4,0.4l0.7-0.3l-0.4-0.7l-0.6-0.7l-2.3,1.1l-3.4-1.1
	l-2.1-1.7l-2.5-0.6l-0.3-0.3v-0.7l1.7-0.8l1.1-0.4l0.1-0.4l-0.6-0.3h-1.1l-0.3-0.7l0.4-1h-0.1l-0.6,0.4l-0.6-0.4l-0.4-0.6l0.4-0.4
	l0.7-0.6L211,666h-0.6l-0.7,0.7l-0.1,0.7l-0.3,1h-0.8l-0.7-0.3l-0.1-1.1l0.1-2.3l-1.1-1v-1.2l1.2-1.1l-0.1-0.8L207,660l-1.2,0.4
	l-0.3-0.8l0.1-0.7l0.3-1h0.3l0.1,0.3h2.2l0.3-0.1l-1.4-1.4l-0.1-1l0.8-0.3l1.2,0.3h1.8l-0.4-1.1V654l0.1-0.8l0.7-1.4l2.9-2.6
	l2.8-2.2l0.8-0.4l1-0.1l0.7,0.6l0.7,0.8l0.3-0.1l-0.3-0.3v-1.2l1.2-0.1l1.1-1.1l0.1-0.4L222,645l-1,0.7v-1l0.4-2.1l0.8-1.8l0.6-0.8
	l0.8-0.7l1.9,0.1l0.3,0.3l0.1-0.4l-0.8-1.5l0.7-0.8l0.6-0.4l2.5-0.1l1.1,0.6l1.2,1.2l0.6,1.4l-0.3,0.6l-0.3,0.3l-0.6,0.3l-0.3,0.3
	v0.3l0.8-0.4l1.2-0.6l0.6,0.6l0.3,0.8l0.6,0.1l1.8-0.1l1-0.3l1.4-1.2l1.7-0.6l2.8-2.6l0.8-1.1h0.7l0.6,0.3l0.1,1.1l0.6,0.4l3.4,0.7
	h1.9l1.5-0.7l1.7-1.4l1-1l0.7-1.4V632l-0.1-1.7l0.3-3.9l-1.1-2.8l-1-1l-0.8-0.1l1-1.4l1.5,0.6h1.1l1-0.6l0.4-0.6l0.7-1.1l0.1-1.2
	v-0.7l-0.4-0.8l-0.4-1.2l-0.4-0.4V615l-2.5,1.7l-1.2-0.3l-0.8-0.7l-1.1,1.1l-2.5,0.6l-1.4,0.8l-2.9,2.1l-0.8,1.1l-0.7-0.1l0.1-2.5
	l-1.7-2.9l-1,0.6l0.1,0.8l0.4,0.7l0.8,0.4l-0.6,0.6l-0.6,0.8l-0.7-1.1l-1.2-1.7l-1.4-1.1l-4.3-1.1l-3.2,0.4l-0.1-0.3l-0.3-0.1
	l-0.6,0.1l-0.4,0.4l-0.4,0.3H228l-1.1-0.6l-1.9-1.4l-4.5-2.6l-1.1-1.1l-0.6-2.1l0.4-1.1l0.7-0.3l0.4-1.7l-0.8-0.7l-1.2-2.9l-0.4-1.2
	h0.1l0.3,0.4l0.6,0.4l1.7,0.1l1-1.4h1.4l1.1,0.6l-0.1-0.6l-0.1-0.4l-2.6-1.7l-0.4,0.1l-4.7-3l-3.2-3.7l-0.1-0.6V589l0.8-0.8l0.7-0.3
	l-0.1,0.6l-0.1,0.6l2.8-0.6l1.7-1.2l2.3,0.4l0.7-0.3l1-0.7l1.5-1.2l1.7-0.4l1.2-0.4h1.4l0.8,1.1l0.3,0.1l1.9,0.7l0.7-0.1l0.4-0.1
	l0.3-0.3l-1.5-1.9l0.4-0.7l0.4-0.4l2.6-0.8h1.8l0.8,0.3l3.2-1.2l1.7-0.1l2.8,0.4l2.2,0.6l0.4,0.8l-1.1-0.6H246l0.3,0.4l0.3,0.7
	l-0.3,0.6l-1.2,1.7l-0.4,1.5l-0.7,0.4l-0.7,0.6l1.7,2.9l3.6,1.1l2.1,0.1l1,1l0.8,0.4l2.6,0.3l1.8,1h0.8l2.6-2.9l0.8-0.4l0.6,0.8
	l0.8,0.7l0.7-0.1l0.3,1l0.1-1.8l-0.1-0.8l-2.6-1.9l-2.1,0.1l-0.4-0.8l0.6-1.4l-1.2-4l-0.7-1l-1-0.3L256,581v-2l1-0.4l0.8-0.1
	l0.6,0.7l0.3,2.2l0.7,0.6l-0.7,1.9l0.6,2.1l1.8,2.2l1.9-0.1l1.2,0.3l0.7,0.6l1.4,1.9l0.8,0.4l3-0.1l0.4-1.5v-1.1l-0.6-0.8l-1.9-0.3
	l-1.2-1.5h-1.4l-2.8,1.1l-1-1L261,585l-1-1.2l0.3-1.8l1.5-1.8l1-0.8l-0.4-0.8l-1.5-1l-3-0.3v-0.7l0.1-0.7l-1.5,1.1l-1.1-0.7
	l-1.7-0.3l-3.2-2.2l-0.8-1.9l-0.1-1.4v-3.9l-0.6-2.5l-5.9-9.9l-3.2-3l-1.1-2.6l-1-0.8l-1-0.6l-1.1-1.1l1.1-0.6l0.7-0.1l-1,0.7
	l0.4,0.4l1-0.3l0.6-0.4l1.4-2.3l1.8-3.7l0.3-1.5l4.3,1.7l3,0.6h1.1l3.9,0.4l1.1-0.1l2.2-0.8l2.8-1.8l2.6-2.6l0.6-0.7v0.3l0.1-0.1
	l0.6-1.1l1-2.8l1.5-2.3l5.2-5l2.3-1.9l0.8-1l0.8-0.7l0.3,0.8l0.1,0.3v0.4l-0.4,0.1l-0.8,0.7l-1,0.3l-0.3,0.3h0.6l1.5-0.1l1-0.6
	l4.3-0.3l2.6-1.5l0.1-0.4l3.7-1.9l0.4,0.1l0.4,0.4l-1.2,1.5l0.6,0.6l-1,1.9l1.1,0.3v1l0.3-0.8l0.3-1.2l0.4-1.1l0.4-0.7l0.7,0.6
	l1.9-0.4l-2.2-0.6l-0.8-2.2l-0.7-0.1l3-2.2l2.6-1.2l0.6,0.1l0.1,0.4v0.6l-0.6,0.3l-0.6,0.6l0.1,0.6l0.3,0.1l1.1-0.1l0.6-0.4l2.2,0.6
	l0.7-0.3l0.3-0.3l2.9,0.6l0.6-0.1l2.1-1.1l2.1-1.5l1-0.8l1.8-2.2l1.5-1.4l2.2-1.2l0.4,0.3l-0.7,0.3l-0.6,0.6l0.4,1.1l3.6,2.6l1,0.3
	l0.1,1.2l-0.6,1.1l-1.2,1.1l-2.3,0.8l0.6,0.6l0.1,1.2l0.6,0.3l1.1-0.3l1-0.6l2.1-1.9l0.7-1.1l0.4-0.3l1.2,0.6l0.7,0.8l0.7,1.2
	l-0.6,1.1l-0.4,0.6l1,1.1l1.2,0.4l1.1,0.8l1.9-1.1l1.4-0.1l1.2,0.3l1.7-0.6l2.6,1.5l0.7-0.1l1.1,0.3l1.1,0.8l0.3,0.7l-1.5,1.2
	l-0.4,1.4l0.3,0.7l0.8,0.3v0.8l0.4,0.3l2.5,0.3l-0.3,0.4l-0.1,0.4l-1,1l4.4,1.2l0.7-0.6l1-0.1l2.1-0.6l0.7,0.4l0.7,1l0.8,0.3
	l0.8-0.1l1.9-1l2.1,0.1l0.8,0.6l0.8-0.1l2.5,1.7l1,0.3l1.1,1.9l0.7,0.1l0.8-0.7l0.7,0.1l0.6,0.8l1.1,0.3l0.4,1.2l0.6,0.4l4,1.2
	l2.1-0.3l2.9,0.3l1.4,0.7h1.5l2.2,2.2l1.2,0.4l0.3,0.6l3.6,0.7l1.4-1l2.2-0.1l2.1-0.8h1.1l1.2,0.3l0.6-0.1l0.4-0.4l3.2,1.7l1.8,1.8
	l0.7,1.2l3.7,1.9l1.1,1.1l0.7,1.1l0.4,0.1l0.3-0.3l1.4,0.1L404.5,550.4L404.5,550.4z M229.2,583.7h-0.3l0.1-0.3l1-0.4l1.7-0.4
	l-0.1,0.1l-1,0.4L229.2,583.7z M178,613.3v0.4l0.8,0.3l1,0.6l1,0.8l1.2,0.3l1.9-0.7h1l1,0.1l0.8,0.7l0.7,1l0.3,0.6v0.7l-0.1,0.8
	l0.1,0.7l1.5,1.2l1,0.7l0.1,0.4v0.6l0.8,0.7l1,0.1l0.6,0.3l1.7,0.6l1.8,1.2l-0.8,1.4l-0.8,0.4l-1.8-0.8l-1.9-0.4l-1.1,0.6l-1,0.8
	l-0.4,1l-0.6,0.3h-0.4l-0.1-0.7l0.1-1.8l-0.1-0.6l-0.3-0.4l-0.7-0.8l-0.8-0.7l-0.6-0.3l-0.1-0.7l0.1-1l-0.3-0.6l-0.6-0.8l-0.6-0.7
	l-1.9-1.9l-0.7-0.4l-0.8-0.1l-1,0.1l-1.1,0.4l-1,0.3l-0.8-0.1l-0.7-0.6l-0.6-1l-0.1-0.7l0.1-1l0.3-0.8l0.4-0.8l1.1-1.8l0.8-0.1
	L178,613.3L178,613.3z M345.9,699.8h-1.1l-0.4-0.3v-0.3l0.3-0.8V698l0.6-0.1l0.6,0.4l0.1,0.4L345.9,699.8L345.9,699.8z M149.8,659.4
	l1.2,1.7l1.1,0.3l0.6,1.1l0.1,0.8l-1.1-1l-1.8-0.7l-1.7-3l-0.7-0.8l0.7-1.1l1.1-0.3l-0.1,1.8L149.8,659.4L149.8,659.4z M312,703.5
	h-0.4l0.7-0.7l0.6-1.5l0.4,0.3v0.3l-1.1,1.5L312,703.5L312,703.5z M347.4,706.1v0.4l-0.3,0.4l0.1,0.8l-0.6,1.2l-0.3,0.8l-0.3,0.6
	l-0.3,0.1l-0.3-0.1V710l0.1-0.4h-0.6v-1.1l0.3-0.3l0.1-0.4v-0.3l0.6-1.4l0.1-0.1v0.3l0.1,0.1l0.1-0.1l0.3-0.7h0.1L347.4,706.1
	L347.4,706.1z M357.7,707.1l0.1,0.4h1.5l0.4,0.1l0.1,0.3l-0.3,0.3l-0.7,0.4l-1.8,0.6l-1.5,0.8l-0.1-0.1l-0.1-1.1l-0.3-0.4l-0.1-0.6
	v-0.3l0.3-0.4l0.6-0.6l0.4-0.1L357.7,707.1z M367.9,709.7l-0.3,0.4l-0.7-0.1l-0.4-0.3l1.4-1l0.1,0.3L367.9,709.7z M200,678.1l0.4,1
	l0.4,0.1l1.2,0.1l0.4,0.3l0.3,0.4l0.1,0.6l-0.3,1l-0.4,0.7l-0.1,1.4l-0.1,0.4l0.4,0.8v1l-0.1,1l-1.5-0.1l-1.4-0.4l-1.4,0.3l-0.4,0.4
	v0.7l-0.4,0.1l-0.3-0.3l-0.4-0.8l-0.6-0.6l-2.1-1.1l-2.2-2.8l-1.1-0.8l-0.8-1.8l-0.6-2.1h0.8l0.8,0.1l3.2,1.2l0.8-1.1l0.6-0.1h1.1
	l1.2-0.4l0.4,0.1l0.4,0.4l1.1-0.1h0.6L200,678.1L200,678.1z M345.9,716.6l-1,0.1l-0.1-0.6l0.6-1.1l0.4-0.7l0.3-0.1l1.1-1.2l1.2-0.8
	l1.2-1.4l1.2-1.9l0.3-0.7h0.6l0.8,0.6l0.4,0.7l-0.3,0.6l-2.9,2.8l-0.3,0.4l-0.3,1l-0.3,0.3l-0.4,0.1l-0.3,0.4l-0.3,0.7l-0.4,0.3H347
	l-0.4,0.1l-0.3,0.3L345.9,716.6L345.9,716.6z M343.9,712.2l-0.4,0.4l-1.5-0.4l0.4-1l1.2-0.6l1.2,1.1L343.9,712.2L343.9,712.2z
	 M371.9,718.3l-0.4,0.1l0.7-1.1l0.8-1.1l0.8-0.7l1-0.3l-0.1,0.6l-1.4,1L371.9,718.3z M234,718.1l-0.7,0.1l-0.6-0.3l-0.1-1.7h0.4
	l1.1-0.8l1.9-0.4h0.4L234,718.1z M303.9,733.2h-0.3l-0.6-0.6l-0.3-0.6l0.3-0.4l1.4-0.7h0.6l0.3,0.1v0.3l-0.1,0.4l-0.3,0.4
	L303.9,733.2L303.9,733.2z M304.1,735.3l0.3,0.1l0.4-1h0.3l0.8,1l0.7-0.1l0.3,1.1l0.4,0.1l0.3-0.1l0.1,0.1l-0.3,1.1l-0.8,1l-0.4,0.3
	l-0.4-0.3l-0.1-0.1l-0.3-0.6l-0.1-0.7h-0.1l-0.7,0.6v0.3l0.1,0.6l-0.1,0.3h-0.7l-0.6-0.1l-0.8,0.4l-0.1-0.3v-1H302l-0.6,1l-0.4,0.6
	l-0.8,0.4l-0.1,0.3h-0.6l-0.8,0.1l-0.4-0.1l-2.6-1.5l-0.6-0.6l2.6-2.1l1.4-0.7l0.7,0.1l0.7,0.4h0.4l0.1-1.1l-0.6-0.8l0.1-0.3
	l1.5-0.3l0.6,0.1l0.6,0.4l0.6,0.6L304.1,735.3L304.1,735.3z M454.6,745.7l2.2,0.3l1.5-0.1l1.5,2.3l1,1.9l0.6,1.4l0.8,2.5v0.1
	l-0.8-0.8l-0.7-1.7l-0.3-0.7l-0.3-0.3l-0.4-0.7l-0.7-1.7V748l-0.3-0.4l-0.3-0.1l-0.4,0.1l-0.1,0.1l0.1,1.1l0.4,1.2l1.8,2.8l1.1,1.5
	l0.3,0.6l0.3,1.4l-0.4,0.7l0.7,1.2v0.3l-0.1,0.3l-1.5,0.7l-1.2,2.5l-1.5,1.5l-0.7,0.3l-0.4-0.3l-0.3-0.6l-0.3-0.7l-0.1-1l0.4-0.6
	l0.6-3v-1l-1-1.4l-0.6-1.1l-0.4-1.5l-0.7-4.1l-0.3-1.4l-0.4-1.1l-0.4-0.8l-0.4-1l-0.3-1.1v-0.4l0.8,0.6l1,1.5L454.6,745.7
	L454.6,745.7z M457.7,744.5v0.4h-1.1l-1.2-0.6l-0.6-0.7l0.1-0.4l1.1-0.4l1.1,0.7L457.7,744.5z M445.5,744.8l1.2,1.5v0.4l-0.1,1.1
	l-0.7,0.3l0.1,0.4l0.6,0.3l0.3-0.3l1.2-1.5l0.4-0.3h0.3l1.7,0.4l1.4,0.7l0.4,0.6l0.3,1l-0.3,2.2l-1.1,0.4h-0.6l-0.6-0.3l-0.8,0.8
	l0.8,0.6h2.3l0.8,1.2l0.3,1l-0.4,1.8l-1.4-0.4l-1.2-1l-2.5-1.4h-0.6l-0.4,0.3l-0.1,0.8l0.1,1.9l-0.6,1l-1.9-0.4l-0.8-1.4l-0.8-2.2
	l-2.6-2.6l-0.7-0.6l-1-1.5l0.3-1.2l0.1-0.7l0.6-0.1l0.7-0.6l0.4-1.2l0.7,1l1,1V747l0.4-0.7h0.8l0.4-0.1l0.6-0.7l0.8-0.4L445.5,744.8
	L445.5,744.8z M298.8,743.3l-0.1,0.8h0.4l1.4-0.7l0.7-0.1l0.8,0.1l0.7,0.6l0.1,0.3l-0.1,0.4l-0.7,0.7v0.6l0.4,1l1.4,0.7l0.1,0.3v0.3
	l-1.2,1.4l-0.4,0.3H302l-1.8-0.6l-1.7-0.8l-0.7-0.1l-0.3,0.1l-0.6,0.4l0.3,0.1l1.5,0.3l0.4,0.7l0.1,0.6v0.6l-0.3,0.1h-0.7l-0.8-0.1
	l-1.1,0.4l-0.7,0.7l-1.9-0.1L292,753l-0.6,0.4l-0.3,0.6l-0.6,0.3l-1.4,0.1l0.7,0.6v0.7l-0.1,0.3l-1.2,1.5l-2.1,1l-0.4-0.1l-0.1-0.1
	l-0.1-0.3v-0.3l2.9-2.2l-0.1-0.1l-0.7-0.1l-1-1l-0.8,0.4H286l0.3-0.6l0.6-0.7v-0.3l-0.3-0.3l-0.6-0.3l-1-0.1h-0.7l-0.6,0.3v0.1
	l1,0.1l0.3,0.3l0.3,0.8v0.6l-0.3,0.7l-0.6,0.7l-0.7-0.3l-1.1-2.1l-0.1-2.8l-0.8-2.2V748l0.6-1.2l1.5-1.7l1.4-0.3l1-0.6l1-0.1
	l0.6,0.1l0.7,0.4l0.1,0.7l-0.3,0.3v0.1l0.4,0.6l0.3,1.5l0.4,1.4l0.4,0.6l0.6,0.4l-0.4-1.1l-0.1-1.2l0.3-2.5v-0.7l0.4-0.1l1,0.3v-0.4
	l-0.8-1l-0.6-0.8l-0.1-0.6l0.1-0.4l0.7-0.6l0.3-0.1h0.3l0.6,0.3l0.3,0.3l0.6,1.7l0.3,0.6h0.3l0.3-0.1l0.3-0.4l0.3-0.3h0.3l0.8,0.4
	h0.3l0.1-0.4l0.1-0.7l0.3-0.3l0.1-0.6l-0.4-0.8l0.6-0.1l1.8,0.8l0.7,0.7L298.8,743.3L298.8,743.3z M295.9,742.3l-0.3,0.4l-0.1-0.1
	L295,742l-0.8-1l-0.4-0.6v-0.3l0.4-0.1l1.1,0.8l0.4,0.7L295.9,742.3L295.9,742.3z M452.7,758.8l0.8,1.7l0.6,1.4l0.6,1.7l1,3.3
	l0.4,1.2l0.1,0.7l0.1,1.8l-0.1,0.4l-0.3,0.4v0.6l0.3,1.4l0.1,2.1l-0.1,1.2l-0.3,0.1l-0.7-0.4l-0.6-0.7l-0.4-0.7l-1-2.1l-0.3-1v-0.7
	l0.1-0.6l0.3-0.3l0.4-0.8l-0.1-0.1l-0.4,0.3l-0.8,0.1l-0.7-0.7l-0.6-0.3v-1.2l-0.1-0.3l-1.1,0.4l-0.4-0.3l-0.1-0.4v-0.7l0.1-0.6
	l1-1.5l-0.1-0.3h-0.6l-0.7-0.6l-0.4-1.7l-0.7-1l-0.4,0.1l-0.8,2.8l-0.4,0.7l-1.2,0.4l0.3-0.8l0.1-0.7L445,761v-0.8l0.3-0.6l1-0.3
	l0.4-0.4l0.4-0.6l0.1-0.6l0.7-1.5l0.3-0.3h0.8l1.9,1.5l0.6,0.3L452.7,758.8L452.7,758.8z M151.7,716.8l-1.1,0.4l-0.7-0.6V716
	l0.1-0.3l2.5,0.1C152.4,716.1,151.7,716.8,151.7,716.8L151.7,716.8z M296.1,754.1l-1.2,0.3h-0.1l-0.8,1l-0.6,0.4l-0.6-1l0.4-1.2
	l0.7-0.7l3,0.7l0.1,0.3v0.1l-0.3,0.1L296.1,754.1L296.1,754.1z M467,763.6l0.6,0.4l0.3-0.6h0.6l1.1,0.4l0.7,0.7l0.4,0.8v1.5l0.1,1.1
	v0.6l-0.1,0.6l-0.3,0.4H470l-1-1l-1.1-1.8l-0.8-0.6v0.1l0.3,0.6l0.7,1l0.1,0.6l0.4,0.7l0.3,0.6l0.1,0.7v0.6l-0.1,0.6l-0.1,0.4
	l-0.3,0.1H467l-0.8,0.4l-1.1-0.1l-0.3-0.3l-0.1-0.6l-0.1-1.2l-0.4-1.8v-1.4l-0.7-1.2l-0.7-0.7l-0.8-0.7l-0.6-0.7l0.1-0.6l0.8-0.4
	h1.4L467,763.6L467,763.6z M461.7,766.5l0.7,1.1l0.8-0.1l0.6,0.8l0.4,1.2l-0.1,0.8l-0.4-0.1l-0.4,0.6l-0.1,1.5l0.1,1.5v1.5l-0.4,1.7
	v1.1l-0.1,0.3l-0.1,0.1l-0.3-0.3l-0.4-0.1l-0.4,1H461l-0.6-1.9l0.3-3.3l1-0.7l-0.7-0.8l-1.2-1l0.1-0.6l-1-1.7l-0.1-0.4l0.1-1.4
	l0.8-1.4l1.1-0.3l0.8,0.6l0.4,0.4L461.7,766.5L461.7,766.5z M472.9,770.9l-0.1,0.3h-1.1l-0.4-0.1l-0.1-0.7v-0.7l0.3-0.6l0.3-1
	l0.1-1.5l1.8,1.7l0.6,0.7l0.3,1l-0.6,0.4l-0.7,0.3L472.9,770.9L472.9,770.9z M152.1,726.3l1,0.7h0.7l0.6,0.3v0.4l-1.2,0.4l-0.4-0.1
	l-0.8-1.4L152.1,726.3L152.1,726.3z M284.2,762.1h-0.4l-0.6-0.6l0.1-0.6l1-0.4l1,0.3v0.3l-0.1,0.4l-0.1,0.1l-0.3,0.1L284.2,762.1
	L284.2,762.1z M279.9,762.7l-0.7,0.3l-0.1-0.1v-0.3l0.3-0.4l0.4-0.4l1.1-0.8l1.1-0.4l0.4,0.1l0.1,0.4l-0.7,0.7L279.9,762.7
	L279.9,762.7z M479,777.1v2.6l-0.4-0.1h-0.3l-0.7,0.4l-0.7-0.1l-0.4-0.3l-0.1-0.3l0.1-0.8l-0.4-0.4h-1.4l-0.6-0.1l-0.3-0.8l-0.1-1.1
	l0.1-0.4l0.7-0.3l0.4-1.4l0.3-0.1l1-2.8l0.6,0.1l1.1,1.5l1.4,2.2L479,777.1L479,777.1z M472.9,775.4l-0.4,0.1l-0.6-0.1l-1.4-1.2
	v-0.4l0.1-0.4l0.7-0.8l0.3-0.3h1.8l0.6,0.1l0.1,0.4v0.4l-0.1,0.4v0.4l0.1,0.4l-0.1,0.4L472.9,775.4L472.9,775.4z M465.9,774.4
	l1.7,0.3l1.5-0.1l0.6,0.7l0.4,0.7l0.3,0.7l0.1,0.6v0.4l-0.1,0.4v0.1l3.2,1.2l1.5,1.5l0.7,0.8l0.4,0.7l0.7,1.7l1.4,1.9l0.7,0.6
	l0.4,0.6H479l-1-0.4l-1.9-1.1H476l-0.1,0.7l-0.3,0.7l-0.4,0.6l0.4,0.1l1.5-0.4l1.4,1.2l0.6,0.1l0.6,1v0.4l-0.3,0.7l-0.1,0.3l0.1,0.1
	l0.4,0.1l1.4-0.3l0.3,0.3v2.8l0.3,1v0.4l-0.1,0.7v0.6l0.1,0.6v0.4l-0.3,1.2l-0.4,0.3h-0.7l-0.6-0.3l-0.8-1l-0.8-1.7l-0.3-0.3l-1-0.1
	l-0.1-0.1h-0.6l-0.4-0.7v-0.8l-0.4-0.8v-0.4L475,793l-0.3,0.3l0.3,0.8l-0.1,0.7l-0.7-0.3l-1.4-2.1l-1.5-1.7l-0.6-0.4l0.1-0.6
	l0.7-0.3h0.6l0.1-0.3l-1.2-1.7v-0.6l0.3-0.8l-0.6-0.3l-1.4,0.4l-0.6-0.1l-0.4-0.7l-0.3-0.6h-1.2l-0.4,0.1l-0.8-0.8l-0.4-0.6l0.1-0.3
	l0.7-0.6h0.4l0.8,0.6h0.3l0.7-0.8l0.1-0.7l0.6-0.6l-0.1-0.6l-0.4-1l-0.7-0.3l-1.5,0.7l-1.2,1l-0.6-0.3l-0.1-0.6l1.2-1.5l0.6-0.8
	L466,777l-0.6-0.6l-0.1-1.5L465.9,774.4L465.9,774.4z M489.9,786.1l-0.1,1.8l-0.4,1.8l-0.8,1.1l-0.7-0.1l-0.6-0.7l-0.4,0.1l-0.6-0.1
	l-0.3-0.6l0.1-0.8l-0.3-0.7l-0.1,0.6l-0.4,0.6l-1,0.7l-0.7,1.4l-0.3,0.8l-0.6-0.8l-0.4-2.1l-0.1-1l0.7-1.4l0.8-1.4l-0.1-3.9l3-2.2
	l0.3,0.1l1.1,1.4l1.2,1.9l0.4,0.8l0.1,1.7v1H489.9z M270.4,770.9l-0.4,0.4l-0.7-0.1l-0.3-0.3v-0.4l1.2-1.1l0.3-0.1l0.1,0.1v0.6
	L270.4,770.9L270.4,770.9z M468.9,786.8l0.3,0.4v0.3l-1.2,1.1v0.3l-0.3,0.7l-0.3,0.3l-0.4,0.7l-0.8,0.8V789l-1-1.2l0.8-0.7l0.6,0.1
	h1l1-0.7L468.9,786.8L468.9,786.8z M223.7,769.3h0.4l0.8-0.7h0.1v0.3l-0.4,0.8l0.1,1.2l0.3,0.7l-0.1,0.1l-1.1,0.1l-0.7-0.6h-0.4
	l-0.6,0.3l-0.1-0.6l0.3-2.2l0.1-0.4l0.7-0.7l0.7-0.1l0.3,0.1l0.1,0.3v0.3L223.7,769.3L223.7,769.3z M226.9,769.7l-0.4,1.2l-1-1.1
	l-0.3-0.4l0.3-0.3l1.1,0.1L226.9,769.7z M473.6,796.8l0.3,0.1l0.3-0.1l0.3-0.6h0.7l0.6,0.1l0.3,0.3l-0.1,0.8v1.4l-0.3,0.6l-0.3,0.7
	l-1-0.3l-0.8-0.8l-1.2-1.4l-0.7-1l-0.1-0.4L471,796l-0.8-1.8l-0.6-1.4l-0.4-0.4l-0.8-0.3l-0.4-0.8l0.1-0.7l1.2-0.4l1.9,1.7l0.3,0.7
	l0.7,0.8l0.1,1.2l0.4,0.4L473.6,796.8L473.6,796.8z M230.2,773.8l-0.6,0.3l-0.3,0.4l-0.4,0.1l-0.4,0.3l-1.5,1.4l-0.6,0.1l0.8-1.2
	l0.1-0.4l0.1-0.3v-1.1l0.3,0.1l0.3-0.1l0.8-0.8h0.6l0.8-1h0.3l0.1,0.1l-0.4,0.6l0.4,0.7l-0.3,0.6L230.2,773.8L230.2,773.8z
	 M487.3,792.8l1.1,1.9l0.1,0.7l-0.8,0.3H487l-0.4-0.1l-0.1-0.3l0.1-1.1l-0.6-0.6l-0.6-0.1l-0.4,0.4l-0.1-1l0.3-0.8l-0.3-1v-0.7
	l0.1-0.3h0.4l1.1,0.7L487.3,792.8L487.3,792.8z M233.5,774.3l-0.3,1.2l-0.1,0.1l-0.1-0.4l-0.6,0.3l-0.3-0.3l0.3-0.4v-0.3h0.4
	l0.3-0.6v-0.3l0.3-0.6h0.3L233.5,774.3L233.5,774.3z M234.2,777.3h-0.3l-0.1-0.3l-0.1-1v-0.4l0.6,0.4l0.1,0.7L234.2,777.3
	L234.2,777.3z M197.8,768.1l0.1,2.8l0.3,0.6l0.4,0.4l0.7,0.6l0.4,0.6l0.3,0.7v0.3l-2.2-1.7l-1.9,1.1h-0.6l-4.4-1.1h-1l-0.7,0.3
	l-1.4,1.1l-0.7,0.4l-0.7,0.1h-1.2l-1.4-0.4l-0.7-0.4l-0.1-0.7v-1.4l0.1-0.4l0.3-0.6l1.4-0.6l0.6-0.3l2.3-2.5l0.6-0.3h0.6l1.2,0.6
	l1.4-0.6l2.8-0.6h0.6l1.8,0.4l0.4,0.3L197.8,768.1L197.8,768.1z M207.7,772.9h-0.3l-0.6-0.7l-0.1-0.4v-0.6l1.4-0.4h0.3l0.1,0.6v0.4
	l-0.6,1L207.7,772.9z M203.6,779.1l-0.8,0.1l-0.7-0.6l-0.6-0.8l0.1-0.8l1.4,1l0.3,0.3L203.6,779.1L203.6,779.1z M175.8,775.6h-0.4
	v-0.1l0.1-0.7v-1.1l0.7-0.3h0.4l0.1,0.1l0.1,1l0.6,0.6l-0.6,0.1L175.8,775.6L175.8,775.6z M173,775.9l-0.4,0.1h-0.3l-0.1-0.3l-1-0.1
	l-0.1-0.1l-0.1-1l0.1-0.4l0.3-0.3l0.6-0.1l0.7-0.1l0.7,0.3l0.8,1.2l0.4,0.7v0.3l-0.6,0.1L173,775.9L173,775.9z M165.5,776.3l0.1,0.8
	l0.8-0.3l0.7-0.4l0.7-0.7l0.3-0.3l0.1,0.6l0.7,0.8l-1.1,0.7l-1.9,0.8l-0.8,0.7l-0.1,0.4l1.5,0.1l0.4,0.1l0.1,0.4l-0.6,0.3l-0.8,0.1
	l-0.8,0.4l-1.9,0.6l-0.8,0.7l-0.8,0.1l-1-0.3h-1.9l-1.2,0.3l-0.4,0.3h-0.4l-0.4-0.1l-0.6,0.1l-0.6,0.4l-0.4,0.1l-0.7-0.1l-0.4,0.1
	l-0.4-0.1l-0.8-1l-0.1-0.4l1.1-0.4h0.7l1,0.1l1.1-0.3l2.2-0.3l0.7-0.3l1-1.5l0.6-0.1l0.4-0.6l1.1,0.4l0.3,0.8l0.1,0.1h0.1l0.3-0.6
	l0.7-0.3l-0.3-0.4l-0.8-0.7l-0.7-0.4l-0.6-0.1l-0.3-0.3l-0.1-0.6v-0.6l0.1-0.4l0.4-0.4l0.7-0.4l0.7-0.1l1.2,0.1h1.1l0.6,0.1l0.4,0.3
	L165.5,776.3L165.5,776.3z M168.2,780h-0.1l-0.1-0.4l0.1-0.3l0.3-0.1l0.6-0.4l0.4-0.1h0.4v0.1l-0.6,0.6l-0.6,0.3L168.2,780
	L168.2,780z M150.7,780.9l-3.3,0.7l-1.2,0.8l-1.1,0.8l-0.7,0.4H144l-0.6,0.1l-1.1,0.4h-0.4l-3.6,0.8H138l0.3-0.4l1.1-0.4l0.8-0.4
	l1-0.8l0.6-0.3l0.3-0.4l0.4-1l0.3-0.3l0.8-0.6l0.6-0.3h0.7l1.1,0.6l0.7-0.3l0.3-0.3l-0.3-0.4l0.1-0.6l0.4-0.8l0.6-0.6l0.8-0.4l1-0.3
	h1.2l0.8,0.3l1.1,1.2l0.1,0.4l-0.6,0.7l-0.4,0.7L150.7,780.9L150.7,780.9z M132.8,782.9l-0.4,0.6l-0.1,0.1l-1.2-0.8l-1-0.3v-0.4
	l0.1-0.3h1.7l0.6,0.1l0.3,0.4C132.8,782.7,132.8,782.9,132.8,782.9z M122.2,783.6l-0.7,0.3l-0.1-0.3l0.1-0.6l0.6-0.3l1.4-0.7
	l0.6,0.4l0.1,0.3l-0.1,0.4l-0.4,0.4l-0.4,0.1l-0.4-0.1C122.6,783.5,122.2,783.6,122.2,783.6L122.2,783.6z M84,778l-5-1.4l-0.6-0.7
	l0.8,0.1l1,0.3h2.1l2.5,0.3h2.1l1.7,0.1l0.7-0.6l-1.1-1l-0.1-0.4l0.8-0.1l0.7-0.3l1.5-0.1l0.8,1.2v0.6l-0.3,0.6l-0.4,0.6H90
	l-0.3,0.3l0.1,1.1h-2.3L84,778L84,778z M105,782.4h-0.7l-0.7-0.6l0.7-0.7l0.6-0.3l0.8-0.3l0.7,0.6l0.4,0.8L105,782.4L105,782.4z
	 M94.6,780.4l1.5,1.2l2.2,0.8l0.7,0.4v0.1l-1.5-0.3l-0.4-0.3l-1.4-0.1l-0.8-0.3L93,781l-1.5-0.4l-0.4-0.3l-0.4-0.4l-0.3-0.7l0.1-0.3
	l0.6,0.1l1.1,1l0.3-0.1h1.2C93.7,779.9,94.6,780.4,94.6,780.4z M71.8,773.4l-0.4,0.3l-0.7-0.8l-0.1-0.6l0.1-0.4l0.6-0.6l0.7,0.3
	l0.3,0.4l0.1,0.7v0.3L71.8,773.4z M66.1,773.1l-0.1,0.6l1.1,0.4l0.3,0.4l-0.4,1l-0.3,0.1h-0.1l-0.3-0.4l-0.7,0.3l-2.3,0.3l-0.3-1
	l-1.5,0.6l1.9-2.3h1.1l0.4-0.1l0.3-0.8l1-1.1l0.8,0.4l0,0.5l-0.1,0.3L66.1,773.1L66.1,773.1z M60.1,773.1l-0.3,0.1h-0.6l-1.2-0.8
	l-0.8-0.3l-1-0.3h-0.8v-0.4l0.1-0.3l3.3,0.6l0.8-0.1l0.7-0.3l0.8-0.8l0.4-0.1l0.1,0.1l0.3,0.6l-0.4,0.4l-0.6,0.3l-0.3,0.4
	L60.1,773.1L60.1,773.1z M53.3,771.2l-0.4,0.4l-0.1-0.1l-0.8-1.4v-0.3h0.8l0.3-0.1l0.1-0.4l-0.3-0.7l-0.7-1.1l-0.1-0.7l0.4-0.1H53
	l1.4,0.6l0.4,1.2l0.4,0.6l1.2,0.8h-0.8L55,770l-1.1,1.1L53.3,771.2L53.3,771.2z M70.9,776.2H70l-0.7-1.1l0.4-0.7l0.8,1.1
	C70.5,775.5,70.9,776.2,70.9,776.2z M68.3,775.4l-1,0.6l-0.3-0.6l0.3-1.2l0.4-0.1L68.3,775.4L68.3,775.4z"/>
<path id="US-AL" d="M941.5,388.6l5.2,17.9l8.8,29.7l0.7,1.4l0.7,2.2l3.7,6.3l1.2,2.8l-0.1,1.2l0.4,1l1.1,0.7v1l-1.1,1.2l-0.7,1.4
	l-0.3,2.3l-0.7,4.3l0.3,2.5l1.5,3.3l0.4,1.5v6.7l1.1,4.1l1.5,2.6l-6.6,0.8l-6.6,0.8l-6.6,0.7l-6.7,0.7l-6.7,0.7l-6.7,0.7l-6.7,0.7
	l-6.7,0.7l-0.1,1.8l0.3,1.7l0.8,1.5l3.3,2.8l0.3,0.7l-0.3,2.3l0.3,1.7l-0.3,0.8l-0.7,0.8l-0.1,0.8l-0.4,0.3l-2.1,2.8l-8,1.5l0.4-0.6
	l1.7-0.3l2.3-1l-0.6-1.2l-1.1-1.4l-0.8-0.1l-0.7-0.8l-0.3-2.8l-0.7-1.5l-1.4-1.5l-0.4,0.4l-0.7,2.9l-0.4,3.7l-0.3,1.2l-2.3,0.3
	l-2.1-0.7l-1.1,0.1l-0.7-5l-0.6-4.5l-0.6-4.5l-0.6-4.5l-0.6-4.5l-0.6-4.5l-0.6-4.5l-0.6-4.5l0.1-4.4l0.1-4.4l0.1-4.4l0.1-4.4
	l0.1-4.4l0.1-4.4l0.1-4.4l0.1-4.4l0.1-4.4l0.1-4.4l0.1-4.4l0.1-4.4l0.1-4.4l0.1-4.4l0.1-4.4l0.1-4.4v-1.1V396v-0.6l-1.9-1.4
	l-0.4-0.3l-0.3-0.3h0.3l3.2-0.3l3.2-0.3l3.2-0.3l3.2-0.3l3.2-0.3l3.2-0.3l3.2-0.3l3.2-0.3l3.2-0.3l3.2-0.3l3.2-0.3l3.2-0.3l3.2-0.3
	l3.2-0.3l3.2-0.3L941.5,388.6L941.5,388.6z M903.5,507.1l-1.8,0.7L899,508l-0.6-0.1l1.1-0.4l3.2-0.7L903.5,507.1L903.5,507.1z"/>
<path id="US-AR" d="M859.9,372v0.4l0.4,1v0.6l-0.3,0.4l-0.7,0.3l-0.4,0.3l-0.1,0.4v0.6l0.1,0.4l-0.3,0.6l-2.2,1.5l-0.8,1.8l0.4,2.1
	l-0.7,2.2l-1.8,2.2l-0.7,2.5l0.4,2.6l-0.8,2.2l-2.1,1.8l-0.7,1.1v0.8l0.3,0.6l-0.7,1.1l-1.8,1.2l-1,1.2l-0.1,1.1l-0.4,0.6l-0.8,0.3
	l-0.4,1.7l-0.1,3.9l-0.8,2.2l-1.7,0.7l-0.8,0.8v1.1l-0.8,1.4l-1.8,1.7l-0.6,1.5l0.7,1.4l-0.1,0.6l-0.6,0.6l-1.9,0.7l-0.3,0.4
	l-0.1,0.4l0.4,0.7l0.3,1.1l-0.1,1.8l-0.4,0.8l-0.4,0.7l-1.7,1.4l-0.4,1l0.8,0.7v0.7l-0.8,0.8l0.3,0.8l0.3,0.6l0.8,0.6l0.4,1.5
	l-0.4,1.9l0.1,1.5l1,1.2l0.3,0.6l-0.7,4.3l0.1,0.6l-4,0.3l-3.6,0.1l-3.6,0.1l-3.6,0.1l-3.6,0.1l-3.6,0.1l-3.6,0.1l-3.6,0.1l-3.6,0.1
	l-3.6,0.1l-3.6,0.1l-3.6,0.1l-3.6,0.1l-3.6,0.1l-3.6,0.1l-3.6,0.1l-0.1-3.3l-0.1-3.3l-0.1-3.3l-0.1-3.3l-1.1-0.6l-1.9-0.3l-1,0.1
	l-1.1-0.1l-0.7,0.6l-0.6,0.1l-0.4-0.1l-0.3-0.4l-0.8-0.3l-1.1-1.1v-2.6v-2.6V425v-2.6v-2.6v-2.6v-2.6V412v-2.6v-2.6V404v-2.6v-2.6
	v-2.6v-2.6V391l-0.6-3.3l-0.6-3.3l-0.7-3.6l-0.6-3.3l-0.6-3.3l-0.6-3.3l-0.6-3.3l-0.6-3.3l5.4-0.1l5.4-0.1l5.4-0.1l5.4-0.1l5.4-0.1
	l5.4-0.1l5.4-0.1l5.4-0.1l5.4-0.3l5.4-0.3l5.4-0.3l5.4-0.3l5.4-0.3l5.4-0.3l5.4-0.3l5.4-0.3l1,1.8l1,1.1l0.1,0.8l-0.1,1l-1.2,2.1
	l-1.2,1l-0.7,1l-1,1l-1.4,2.6l3.2-0.3l3.2-0.3l3.2-0.3L859.9,372L859.9,372z"/>
<path id="US-AZ" d="M488.2,334.5l-1.2,8.4l-1.2,8.4l-1.2,8.4l-1.2,8.4l-1.2,8.4l-1.2,8.4l-1.2,8.4l-1.2,8.4l-1.2,8.4l-1.2,8.4
	l-1.2,8.4l-1.2,8.4l-1.2,8.4l-1.2,8.4l-1.2,8.4l-1.2,8.4l-4.7-0.7l-7.2-1.1l-7.2-1.1l-7.2-1.1l-7.2-1.1l-7.2-1.2l-9.1-5.1l-9-5.2
	l-9-5.2l-9-5.2l-9-5.4l-8.8-5.4l-8.8-5.4l-8.8-5.5l1.2-1.1l2.1-3.3l0.1-0.1l2.8,0.3l1.5-0.7l1.1-1.5l0.6-1.7l-0.1-1.8l-1-1.5
	l-1.8-1.2l-0.7-2.5l0.6-3.9l0.8-1.9l1.1-0.1l1.1-0.7l1.2-1.4l1-1.5l0.8-1.8l0.6-2.3l0.3-2.9l2.5-3l2.2-1.8l3.7-1.9l0.8-0.7l0.1-0.7
	v-0.1l-0.6-1.1l-2.5-2.5l-1-1.5l0.1-1.2l-0.1-1.2l-2.1-5.5l-0.6-2.9l0.4-1.9v-0.1l2.1-8.3l-0.6-3.2l0.1-1.7l0.7-1.9l0.1-1.2
	l-0.3-1.2l0.3-1.9l0.4-2.5l-0.6-1.8v-0.7l0.8-1.5l1.1-0.7l1.5-0.3l1.7,0.1l1.8,0.6l1.2,1.1l0.7,1.5l0.8,0.8l1,0.3l1.4-0.8l1.5-2.1
	l0.4-0.1l2.1-10.1l1.9-9.2l5.9,1.2l41.4,7.7l35.5,5.8l5.9,0.8L488.2,334.5L488.2,334.5z"/>
<path id="US-CA" d="M313.8,176.5l-1.2,4.3l-1.2,4.3l-1.2,4.3l-1.2,4.3l-1.2,4.3l-1.2,4.3l-1.2,4.3l-1.2,4.3l-1.2,4.3l-1.2,4.3
	l-1.2,4.3l-1.2,4.3l-1.2,4.3l-1.2,4.3l-1.2,4.3l-1.2,4.3l6.3,9.9l6.6,9.9l13.2,19.3l18.3,28l2.8,4l3.7,5.8l7.4,11.3l15.4,22.6
	l4.1,6.1l-0.4,1.9l0.6,2.9l2.1,5.5l0.1,1.2l-0.1,1.2l1,1.5l2.5,2.5l0.4,1v0.1l-0.1,0.7l0.6,1.9l-3.7,1.9l-2.2,1.8l-2.5,3l-0.3,2.9
	l-0.6,2.3l-0.8,1.8l-1,1.5l-1.2,1.4l-1.1,0.7l-1.1,0.1l-0.8,1.9l-0.6,3.9l0.7,2.5l1.8,1.2l1,1.5l0.1,1.8l-0.6,1.7l-1.1,1.5l-1.5,0.7
	l-2.8-0.3l-0.1,0.1l-2.3-0.3l-5.8-0.7l-5.8-0.7l-5.8-0.7l-5.8-0.7l-5.8-0.8l-5.8-0.8l-5.8-0.8l-5.8-0.8v-0.1l0.4-2.6l-0.7-1.1
	l-1.4,0.3l0.3-3.4l0.7-1.5l0.3-1.5l-0.1-4l-1.8-5.2l-5-7.2l-2.8-2.6l-1.9-3l-1.4-1.1l-1.9-0.7l-0.8,1l-2.3-1.7l1-2.6l-1.2-4.3
	l-1.7-0.8l-4.5-1L281,363l-1.5-1.7V359l-2.3-2.6l-3.2-2.8l-2.2-0.1l-2.6-1l-3.4-2.3l-2.2-0.8l-4.4-0.8l-1.5-0.7l-1.1-2.1l-1.4-1.2
	l1-1.9l0.3-1.9l0.7-1.4l0.1-3.3l1.4-2.8l-0.1-1.2l-0.7-1.1l-2.5-2.1l-0.1-1.7l1.1-1.9l-0.4-1.5l-1.9-1.9l-1.4-3.6l-2.3-2.3l-0.4-3
	l-1.2-2.1l-0.1-1.7l-2.2-6.3l-2.8-5.2l0.1-2.5l0.8-3.3l2.1-1.5l1.4-1.5l0.4-1.7l0.1-1.2l-0.8-2.5l-4.8-2.8l-2.8-6.3l0.8-3.9
	l-0.6-4.4l0.7-2.5l0.6-2.8l1.4-0.3l1.1,0.6l-0.4,1.1l-0.1,2.1l0.8,1.9l1.1,1l0.7,1.8l0.7,0.7l0.8,0.4l-0.1-1.1l-0.3-0.7v-2.1
	l-0.4-2.8l-1-1.8V259l-0.4-0.7l-0.1-1l1.7-0.7l1.9-0.3l2.5,0.6l6.6,2.3l1.7-0.1l1.1,0.6l0.8,0.1l-1.7-1.2l-1.1-0.1l-1.1-0.6
	l-2.5-0.6l-0.8-0.6l-0.8-1.1l-0.7-0.3l-2.6,0.7l-1-0.4l-1.9-2.2l-1-0.6l-1.9,0.3l-1.2,3.4l-0.3,2.8h-1.1l-0.8-1.4l-1.5-1.2l-1.1-1.4
	l-1.5-2.5l-0.8-1l-1.7,1.1l0.1-0.7l1.1-1.7l0.7-3l1.1,2.9v-1.8l-0.8-2.2l-0.8-1l-0.3-3.7l-2.5-2.9l-1.4-4l-3.3-6.9l1.1-4.7V217
	l1.8-3.2l0.7-2.3l0.3-3.9l-0.3-2.2l-2.2-6.6l-3-4.8l0.3-2.9l0.7-2.8l1.7-2.2l1.5-2.3l0.7-0.6l0.1,0.3l-0.3,0.6l0.4,0.3l0.6-1.1
	l0.6-0.6l-0.6-0.3l0.1-0.3l0.6-0.6l2.2-3l1.2-4.3l2.9-4.8l0.6-1.8l0.4-4v-2.5l-0.8-2.1l1.4-2.1l0.7-2.2l-0.1-0.4l4.7,1.5l40.9,12.4
	l22.7,6.2L313.8,176.5L313.8,176.5z M266.5,360.1l3.6,2.2h2.2l0.3,0.7l-0.4,0.4l-5-0.4l-1.2-1l0.1-0.8l-0.3-1L266.5,360.1
	L266.5,360.1z M258,359.1l-1.1-0.3l-1.5-0.7l0.7-0.4l1-0.1l0.1,0.4L258,359.1L258,359.1z M262.4,363H261l-1-0.6l-1.1-2.6l3.6,0.7
	l1.2,1.4l0.1,0.3L262.4,363L262.4,363z M292.1,383.9l0.6,1.9l-1.4-0.6l-1.5-0.3l-0.3-1.1l-0.1-1.4l-0.3-0.4l-1-0.4v-0.1v-0.7
	l0.4-0.3l2.8,2.2L292.1,383.9z M269.8,382.2l-0.8-0.1l-1.1-0.6l-0.3-1.4l1,0.1l0.8,0.4l0.4,1.2V382.2z M288.8,396.8l-1.2-0.1
	l-1.1-0.8l-0.6-2.5l-0.7-2.1l0.8-0.3l0.6,1.9l1.8,3.2L288.8,396.8L288.8,396.8z"/>
<path id="US-CO" d="M626.9,276.9l-0.3,4.4l-0.3,4.5l-0.3,4.4l-0.3,4.4l-0.3,4.4l-0.3,4.4l-0.3,4.4l-0.3,4.4l-0.3,4.4l-0.3,4.4
	l-0.3,4.4l-0.3,4.4l-0.3,4.4l-0.3,4.4l-0.3,4.4l-0.3,4.5l-4.7-0.3l-4.7-0.3l-4.7-0.4l-4.7-0.4l-7.2-0.6l-7.2-0.6l-7.2-0.7l-7.2-0.7
	l-7.2-0.7l-7.2-0.7l-7.2-0.7l-7.2-0.8l-7.2-0.8l-7.2-0.8l-7.2-0.8l-7.2-1l-7.2-1l-7.2-1l-7.2-1l-7.2-1l0.8-5.9l0.8-5.9l0.8-5.9
	l0.8-5.9l0.8-5.9l0.8-5.9l0.8-5.9l0.8-5.9l0.8-5.9l0.8-5.9l0.8-5.9l0.8-5.9l0.8-5.9l0.8-5.9l0.8-5.9l0.8-5.9l16.9,2.5l39.5,4.8
	l33.9,3.3l22.7,2.1l13.6,0.8l-0.1,3l-0.1,3l-0.1,3l-1.1,3.6l-0.1,3l-0.1,3l-0.1,3L626.9,276.9L626.9,276.9z"/>
<path id="US-CT" d="M1164.7,175.3l0.3,1.2l0.6,1.8l0.4,1.2l0.6,1.8l0.6,1.9l0.6,1.8l0.4,1.7l0.1,1l0.3,1.5l-0.3,0.7l0.1,1.4
	l-1.5,0.3l-2.5,1l-3.2,1.7h-1.9l-1.7,1.4l-6.3,1.9l-1.5-0.1l-1.4,2.1l-2.5,1.7l-6.1,5.4l-0.7,1l-1.2-1.2l-1-1l1.2-1.2l1-1l0.8-1
	l0.6-0.6l-0.8-0.8l-0.7-0.7l-0.4-2.2l-0.4-2.2l-0.4-2.2l-0.4-2.2l-0.4-2.2l-0.4-2.2l-0.4-2.2l-0.4-2.2l1.5-0.3l1.5-0.3l1.5-0.3
	l1.5-0.3l1.5-0.3l1.5-0.3l1.5-0.3l1.5-0.3l0.1,0.6l0.7-0.3v-0.6l2.1-0.6l2.1-0.6l2.1-0.6l2.1-0.6l2.1-0.6l2.1-0.6l2.1-0.6l2.1-0.6
	L1164.7,175.3L1164.7,175.3z"/>
<path id="US-DC" d="M1089.4,270.3l-0.6-0.6l-1-0.3l-0.4-0.1l1.1-1.9l1.2,1.2l1.4,1.2l-1.2,2.2L1089.4,270.3L1089.4,270.3z"/>
<path id="US-DE" d="M1113.8,242.2l-0.6,1l-0.3,1.7l-1.1,2.2l0.4,1.2l0.4,0.8l0.3,1.8l1.4,1.5l2.6,2.3l1.4,4.3l2.2,2.6l3,2.9l1.9,0.6
	l0.4,1.2l-0.3,2.3l-0.8,1.2l1.4-0.6l0.8,0.3l1.1,1.7l0.3,1.1l-1.9,0.4l-4,1l-4,1l-1.8,0.4l-1-3.7l-1-3.6l-1-3.7l-1-3.6l-1-3.7
	l-1-3.7l-1-3.6l-1-3.7l1-2.2l0.4-0.7l0.7-0.4l2.2-0.6L1113.8,242.2L1113.8,242.2z"/>
<path id="US-FL" d="M1038.3,478.8l1.4,2.1l2.9,8.5l1.5,2.9l3.2,8l4.4,7.6l5.9,9l9.1,10.6l1.1,1.5l-0.7,1.5v1.5l0.3,2.2l0.7,2.1
	l1.2,2.5l2.3,3.7l-1.1-0.7l-3.3-5.4l-0.8-3.3l-0.6-5l-0.6,0.3l-0.1,1.7l0.1,1.9l-0.4,0.8l-1.2-2.8l-0.1-1.2l0.6-1.7l-0.3-0.6
	l-1.5-0.6l-0.6-1.1v-1.2l-1-0.6l-0.6,0.1l1,2.9l1,1.7l1.5,4.1l1.8,2.3l1.1,2.1l13.1,21.8l2.6,2.6l1.2,2.1l1.7,4.3l1.2,5.6l0.4,10.7
	l1,7.3l-0.3-0.1l-0.3-0.7h-0.4l-0.7,3.6l-1.2,3.3l0.3,4.7l-0.4,2.5l-2.2,2.9l-1.7,0.3l-3.6,2.5h-2.9l-3.2,1.7l-2.2,0.3l-1.7-1.9v-1
	l0.3-1.1l0.8-0.4l3.3,1.8l0.4-1.1l-1.1-1l-1.8-0.4l-1.4-0.6l-3.3-4.8l-3.2-3.2l-0.8-2.3l-4.7-0.7l-3.6-1.7l-2.8-3.6l-2.3-6.7
	l-1.5-0.6l-0.7-0.4l1-2.8l1.1-2.3l-1.1,0.7l-0.7,1l-0.8,2.1l-0.7,0.4l-0.8-0.1l-1.4-3.6l-0.4-4.5l0.8-1.9l-1.8,0.3l-1.8,1l0.6,1.5
	l-0.1,0.8h-1.4l-1.1-0.4l-1.7-1.4l-2.3-2.8l-5.1-7.7l-1-1.1l-1.5-1l0.6-0.4l1.1-0.4l1.9-4.1l1.7-2.5l0.4-1.7l-0.3-0.7l-1-0.8l-1,1
	l-0.6-0.1l-1.5-1.8l-1.2-0.4l-0.8,0.6l1.1,1.5l0.8,0.4v2.3l-0.3,0.8l-0.7,0.8l-1.2-0.1l-0.6,0.7l-0.8-0.6l-0.8-1l-1-1.5l0.7-9.6
	l1-6.2l-0.8-6.9v-1.1l-0.4-1.8l-3-3.6l-12.4-8l-10.1-10.2l-7.8-3.3l-5.4,1.7l-0.8,1l-0.3,1.2l0.6,1.2l-0.4,0.6l-1.5,0.1l-1.9,0.6
	l-4.8,3.6l-1.9,0.1l-1.5,1l-1.2,0.7l-3.3,0.7l-2.8,1l-1.2-0.3l-1-1.7L960,511l0.8,1.2l1.1,1l0.4-0.6v-1l-1.2-1.8l-3.4-2.1l-4-3h1.1
	l0.1-0.8l-1.2-0.8l0.3-1.2l0.7-1.2l-1.5,0.4l-1.2,1l0.1,1.1L952,504h-0.7l-1.5-0.8l-7-2.1l-5.9-1l4.4-1.2l2.5,0.3l-0.4-0.8l-0.7-0.6
	l-1.9-0.6l-2.3,0.6l-1.5-0.1l-1.5,0.8l-1.7,1.2l-1.5,0.7l-5.9,1.4l-4.8,1.2l0.7-1l0.8-0.7l2.8-1.1l0.3-1.8l-0.8-1.5l-0.7,0.4
	l-0.7,1.4l-1.1-0.8l-1.1,0.1l-0.1,2.1l-1.2,1.5l-0.6,1.4l-4,1.5l-0.6-0.3l1.1-1.4l-0.1-0.7l-0.8,0.4l0.1-0.8l0.7-0.8l0.3-0.8
	l-0.3-1.7l0.3-2.3l-0.3-0.7l-3.3-2.8l-0.8-1.5l-0.3-1.7l0.1-1.8l6.7-0.7l6.7-0.7l6.7-0.7l6.7-0.7l6.7-0.7l6.6-0.7l6.6-0.8l6.6-0.8
	l1.1,1.8l2.1,3.7l0.1,1l1.9-0.1l3.3-0.1l3.3-0.1l3.3-0.1l3.3-0.1l3.3-0.3l3.3-0.3l3.3-0.3l3.3-0.3l3.3-0.3l3.3-0.3l3.3-0.3l3.3-0.3
	l3.3-0.3l3.3-0.3l3.3-0.3l3.3-0.3l0.1,0.8l0.7,1.1l0.4,1.4l0.4,0.7l0.7,0.3h1.1l1-1l0.4-1.8l-0.1-1.9l-0.7-2.2l-0.3-1.9l0.3-1.2
	l0.6-0.4l0.4-0.7l0.4-0.1l1.2,0.1l4.5,1L1038.3,478.8L1038.3,478.8z M971.3,514.8l-2.1,1.1l-2.3-0.4l1.4-0.3l1.1,0.1l2.5-1.5
	l1.2-1.1l1.5-0.6L971.3,514.8L971.3,514.8z M1079.9,556.6l0.7,1.7l-2.8-3.7l-3.6-6.1l-2.2-4.7l1.1,1.2l1.4,2.6L1079.9,556.6
	L1079.9,556.6z M1041.8,580.8l0.1,1.4l-1.5-2.2l-1.1-2.5l1.2,0.7L1041.8,580.8L1041.8,580.8z M1043.1,583l-0.7,0.7l-1.7-0.3l-1-0.7
	l-0.6-1.5l1.7,1.5l0.6,0.3H1043.1z M1084.6,608.7l-3.6,5.4l0.3-1.2l1.2-2.8l0.4-1.2l1-1l0.8-1.5l-0.1-1.5l1.4-1.4l0.6-0.3
	L1084.6,608.7L1084.6,608.7z M1079.9,615.5l-0.6,0.3l0.7-1.2h0.3L1079.9,615.5L1079.9,615.5z M1076.2,618.7h-0.4l0.1-0.4l0.7-0.8
	l0.4,0.3v0.4L1076.2,618.7z M1071.8,621.5l-1,0.7l-1.1-0.3l1.1-0.8l3.3-1.2l-1.1,1L1071.8,621.5z M1065.6,624.2l-0.6,0.6l-0.3-0.1
	l-0.1-0.7l-1.2-1.5V622l2.5,1.2l0.1,0.4L1065.6,624.2L1065.6,624.2z M1060.6,626.2l-1.4,0.4l1-1.1l0.1-1.5l0.8,1l0.1,0.7
	L1060.6,626.2L1060.6,626.2z M1055.9,628.3l-0.6,0.1l-0.1-0.4l1-0.6h0.7v0.6L1055.9,628.3L1055.9,628.3z"/>
<path id="US-GA" d="M1046.2,445.7l-0.7,2.2l-2.2,1.7l-0.8,0.1l-0.6,0.4l0.6,0.8l0.7,0.6l0.1,0.6l-0.6,1l-1.2,0.4l-0.6,1.1l0.4,0.8
	l0.6,0.4v0.8l-1.4,1.1l-0.1,0.8l0.8,0.1l0.6-0.3l0.4,0.1l-0.7,1.5l-0.7,1l-0.6,1.7l-1.7,0.7l0.1,0.6l1.1,0.3l1,1.1l-1.2,2.5h-1
	l-0.7-0.4l-0.1,1.8l0.3,1v1.9l-0.3,2.3l-0.3,1l0.4,1.7l0.6,1.7l-3.6,0.3l-4.5-1l-1.2-0.1l-0.4,0.1l-0.4,0.7l-0.6,0.4l-0.3,1.2
	l0.3,1.9l0.7,2.2l0.1,1.9l-0.4,1.8l-1,1h-1.1l-0.7-0.3l-0.4-0.7l-0.4-1.4l-0.7-1.1l-0.1-0.8l-3.3,0.3l-3.3,0.3l-3.3,0.3l-3.3,0.3
	l-3.3,0.3l-3.3,0.3l-3.3,0.3l-3.3,0.3l-3.3,0.3l-3.3,0.3l-3.3,0.3l-3.3,0.3l-3.3,0.1l-3.3,0.1l-3.3,0.1l-3.3,0.1L969,489l-0.1-1
	l-2.1-3.7l-1.1-1.8l-1.5-2.6l-1.1-4.1v-6.7l-0.8-1.4l-1.5-3.3l-0.3-2.5l0.7-4.3l0.3-2.3l0.7-1.4l1.1-1.2v-1l-1.1-0.7l-0.4-1l0.1-1.2
	l-1.2-2.8l-3.7-6.3l-0.7-2.2l-0.7-1.4l-0.8-3l-0.7-2.6l-0.8-3l-0.8-3l-0.8-3l-0.8-3l-0.8-3l-0.8-3l-0.8-3l-0.8-3l-0.8-3l-0.8-3
	l-0.8-3l-0.8-3l-0.8-3l-0.8-3l6.3-0.7l6.3-0.7l6.3-0.7l6.3-0.7l5.9-0.8l5.9-0.8l5.9-0.8l5.9-1h-0.1l-0.7,1.8l-2.5,3.4L988,390
	l4.1,2.1l2.5,1.8l1.7,0.6h1.5l1.1,0.6l0.8,1.7l5.8,7.6l5.4,3.6l2.2,1.8l1.2,1.9l4.5,2.8l1.7,1.5l0.3,1.4l0.7,0.8l1,0.4l1.1,1.1
	l1.1,1.8l1.9,1.4l2.6,1l2.2,2.9l1.9,4.7l1.7,2.6l1.9,1l3,3.9l1.2,2.3l0.3,2.2l1.5,1.5L1046.2,445.7L1046.2,445.7z M1039.1,472.7v5.9
	l-0.7-1.9l-0.4-1.9l0.6-1.2L1039.1,472.7L1039.1,472.7z"/>
<path id="US-HI" d="M549.1,626.5l-1.5-0.1l-0.3-0.8l-1-1v-0.8l-0.7-1.4v-1l1.7-0.6l2.5,0.4l2.5,2.2l-0.1,1.2l-0.4,0.7l-0.8,0.4
	l-1,0.8L549.1,626.5L549.1,626.5z M539,620l-0.7,0.3l-0.3-0.4l0.3-0.6l0.8-0.4h1.1l1.4-0.3l0.4,0.7l-0.8,0.3l-0.6,0.6l-1.1-0.4
	L539,620L539,620z M562.2,647l0.3,0.4l0.6,0.3l-0.6,1.1l0.1,1v0.6l-1-0.1l-1.4-0.8l-0.4-0.7l-0.1-1.1l-0.8-0.4l0.3-0.6v-0.3
	l-0.6-0.3l-0.1,1l-1.1-0.8l-0.3-0.4l0.3-1v-2.3l0.4-0.6l0.1-1l1.9,1.2l2.1-0.1l0.7,0.4l-0.1,2.9l-0.4,0.6l-0.1,0.7L562.2,647
	L562.2,647z M566.4,655.4l2.2,2.3l0.7,0.3l0.1,0.6l1.9,1.8l0.3,0.4l-1,0.3l-1.8-0.4l-1.5-1.9l-3-2.6l0.6-0.4l0.6-0.1l0.6-0.6
	L566.4,655.4L566.4,655.4z M572.2,665.6l0.1,0.4l1.5,0.7l1,0.6l0.8,2.1l0.1,1l0.6,1.4v0.7l-0.7,0.3h-1.8l-1.7-1l-1.2-0.3l-1.1-1
	l-0.3-0.4l0.7-1.2l0.6-1.5L570,667l-0.6-1.1l-0.1-1.7l0.4-0.7l1.2-0.6l1,0.6l0.3,1V665.6L572.2,665.6z M566.4,664.2l-1-0.1l-0.7-0.8
	l0.6-1l0.1-1.7l1.4,0.8l0.4,0.8l0.1,0.7v1L566.4,664.2L566.4,664.2z M564.2,698l-1,0.1l-0.7-0.6l-1.4-3.2l0.3-1l2.6-3l1.1-3.3
	l0.6-2.8l1.5-0.4h1.5l2.2-0.7l0.7-2.6l1.1-1l0.7,0.1l1.4,3.3l3.4,6.1l0.1,2.5l-1,1.8l0.8,1l-0.4,1.4l0.6,1.9v0.8l-1.2,0.4l-3.7-0.1
	l-3.6-1.7l-4.1-0.1L564.2,698L564.2,698z"/>
<path id="US-IA" d="M832.3,217.7l1.2,1.5l1.9,1.4l1.1,1.4l0.3,1.2l1.2,1.2l2.1,1.4l1.2,1.2l0.4,1.1v1.8l-0.3,2.3l-0.7,1.8l-1,1.1
	l-0.7,1.5l-0.4,1.9l-1.5,1.8l-2.6,1.8l-2.9,1.2l-3.3,0.8l-1.9,1.5L826,248l0.4,1.8l1.2,1.4l0.8,1.5l0.3,1.7l-0.7,2.8l-1.7,3.9
	l-1.9,2.5l-2.2,1.2l-1,1.7l0.4,2.1l-0.1,1.2l-1,0.4l-1.7-1.2l-0.3-0.8l-1.4-0.8l-0.3-0.6l-1-0.4l-1-1.7l-4.5,0.3l-4.5,0.3l-4.5,0.3
	l-4.5,0.1l-4.5,0.1l-4.5,0.1l-4.5,0.1l-4.5,0.1l-4.5,0.1l-4.5,0.1l-4.5,0.1l-4.5,0.1l-4.5,0.1l-4.5,0.1H747h-4.5l-1.1-1.8l-0.6-1.7
	l0.4-0.8l0.1-2.6l-0.3-4.5l-0.4-2.6l-0.7-0.6l-0.1-0.8l0.6-1l-0.1-0.7l-0.8-0.4l-0.3-0.8l0.3-1.4l-0.1-0.8l-0.7-0.3l-0.3-0.6
	l0.1-0.7l-0.4-0.4l-0.8-0.1l-0.3-1.5l0.1-2.9l-0.3-2.1l-0.8-1.2l-0.4-1.1v-1.1l-0.8-1.7l-1.7-2.3l-1.1-3l-0.4-3.7l-1.2-2.1l-0.6-0.1
	l-0.4-1.9l-0.6-0.8l-0.1-0.7l-1.5-1.7l-0.1-0.7l0.1-0.8l1-1.7l0.8-2.6l0.3-1.8l0.7-1.4v-0.7l-0.1-1l-0.4-0.8l-1.1-0.7l-0.1-0.3
	l-0.1-1l0.6-0.6l0.1-0.7l-0.1-0.8l-0.7-1.5l-0.3-1.5l2.5-0.1h28.2l5.6-0.1l5.6-0.1l5.6-0.1l5.6-0.1l5.6-0.1l5.6-0.1l5.6-0.3l5.6-0.3
	l5.6-0.3l5.6-0.3l5.8-0.3l0.1,1.5l0.4,1.1l0.7,0.8l1.1,0.6l0.3,1.2l-0.6,1.9l-0.1,2.3l0.4,2.8l0.7,2.5l1,2.2l2.1,1.5l3,0.8l1.9,1.5
	l0.7,2.1L832.3,217.7L832.3,217.7z"/>
<path id="US-ID" d="M479.8,151.5l-0.6,3.7l-0.7,3.7l-0.6,3.7l-0.6,3.7l-0.7,3.7l-0.6,3.7l-0.6,3.7l-0.7,3.7l-0.6,3.7l-0.6,3.7
	l-0.7,3.7l-0.6,3.7l-0.6,3.7l-0.6,3.7l-0.6,3.7l-0.7,3.7l-3.3-0.6l-3.3-0.6l-3.3-0.6l-3.3-0.6l-3.3-0.6l-3.3-0.6l-3.3-0.6l-3.3-0.6
	l-3.3-0.6l-3.3-0.6l-3.3-0.7l-3.3-0.7l-3.3-0.7l-3.3-0.7l-3.3-0.7l-3.3-0.7l-6.5-1.4l-6.5-1.4l-6.5-1.4l-6.5-1.4l-6.5-1.4l-6.5-1.5
	l-6.5-1.5l-6.5-1.5l1.2-5.2l1.2-5.2l1.2-5.2l1.2-5.2l1.2-5.2l1.2-5.2l1.2-5.2l1.4-5.8v-0.1l1.9-3.3l0.7-1.7v-1.1l0.4-0.8l0.8-0.7
	l0.1-1l-0.4-1.2l-1.1-1l-1.8-0.8l-0.7-1.5l0.4-2.2l2.2-3l3.9-3.9l2.3-2.8l0.7-1.8l2.8-3.9l4.7-6.1l2.2-4l-0.3-2.1l-1.1-2.2l-2.1-2.3
	l-1.2-2.5l-0.3-1.1l-0.3-1.4l0.1-1.7l0.7-0.8V91l-0.6-2.6l-0.1-1.7l0.3-0.6L389,86l0.8-3.7l0.8-3.7l0.8-3.7l0.8-3.7l0.8-3.7l0.8-3.7
	l0.8-3.9l0.8-3.9l0.8-3.7l0.8-3.9l0.8-3.9l0.8-3.9l0.8-3.9l0.8-3.9l0.8-3.9l0.8-3.7l5,1.2l6.6,1.5l3.7,0.8l-1.4,5.9l-1.4,5.9
	l-1.4,5.9l-1.4,5.8l1.2,2.8l1,1.8l0.4,1.8l0.8,1.9l0.1,0.7v1.9l-0.6,1.2l0.4,1.4l-0.3,0.7l-0.6,0.3l-0.1,0.1v0.1l0.1,0.3l1.5,1.7
	l1.4,2.1l1.9,1.7l0.6,0.8l2.2,4.1l1.1,2.5l1.2,1.9l0.4,2.1l1.2,1.9l0.3,1l0.1,0.1h0.1L427,87l0.3,0.1l0.4,0.7l-0.1,1l0.3,0.6
	l0.6,0.4l0.7,0.3h2.3l0.6,0.1l0.1,0.3v0.6l-0.1,0.8l-0.4,1.1l-1,1.1l-0.1,1.1l-1.1,2.5l-0.8,1.7l-0.4,1.7l-0.8,0.8l0.1,1.2l-0.6,1.7
	l0.1,0.6l0.7,1l-0.1,2.2l-0.3,0.4l-1.7,0.6l-0.6,0.4l-0.3,0.7l0.1,2.3l-0.8,1.1l-0.3,1.1l0.1,0.3l1.2,0.8l1.4,1.7l0.4,0.4h0.4
	l0.8-0.3l1-0.7l1.8-0.6l2.2-1.5l0.1-0.6l0.1-0.3h0.3l0.6,0.4l1,1.4l1,1v0.3l-0.3,1.1l0.4,1l-0.1,1.5l0.3,1.5v1.8l1.1,2.6l0.6,1.8
	l0.7,1l0.4,1l0.1,1.1v0.8l-0.8,1.4v0.7l0.3,0.8l1.2,1.9l0.3,0.1l1.5,0.1l0.7,0.4l0.7,1l0.6,1.4l0.3,1.2l-0.1,1.4l0.6,1.7l-0.1,1.4
	l0.4,0.7l0.8,1l0.8,0.7l0.4,0.1l0.3-0.1l0.3-0.7l0.6-0.6l1.4-0.6l1.1,0.3l4.1,1.5h0.3l0.3-0.1l1-1.1l0.7-0.4h1l2.6,0.8l3.2,0.4
	l1.5,0.7h2.5l2.6,0.8l0.4-0.1l0.1-0.3l-0.1-0.6l0.1-1l0.7-1l0.4-1l0.7-0.4l0.8-0.1l0.6,0.1l0.6,0.6l0.6,1l0.8,2.5l0.4,1l0.7,0.8
	L479.8,151.5L479.8,151.5z"/>
<path id="US-IL" d="M882.6,214.4l0.3,3.7l0.6,3l0.7,1.4l0.7,1l0.7,0.6l1,1.9l1.2,3.3l1,2.2l0.7,0.8l0.6,6.3l1.4,14.3l1.2,14.3
	l1.4,14.3l0.6,6.7v0.1l-0.8,0.8l-0.4,1.4l0.3,1.4l-0.1,1l-0.6,0.7l0.4,1.5l1.4,2.2l1,2.2l0.4,2.3v1.7l-0.8,1.7l-0.7,3.3l-0.7,1.4
	l-1,0.6l-0.8,1.2l-0.7,2.1l-0.8,1.1h-1l-0.7,0.4l-0.4,0.8l0.1,0.8l0.7,0.8l-0.1,0.8l-0.8,0.8v0.4l0.3,0.1l-0.1,0.4l-0.6,0.4v0.7
	l0.1,1.8l-0.1,1l-0.6,0.1v0.6l1.2,1.9l-0.6,0.6l-1,1.8v1.9l0.8,2.1l-1.4,1.8l-3.7,1.7l-1.9,1.2l-0.1,1l0.4,1.5l1,1.9l0.3,1.4
	l-0.4,0.8l-2.8-0.3l-5.1-1.4L871,343l-1.5,2.1l-0.4,1.5l0.3,1.2l-1.5-1.4l-1-0.6h-0.1l-0.1,0.1v0.7l0.1,0.4v0.3h-0.1l-1-0.6
	l-1.2-1.5l-1.7-2.5l-0.4-2.1l0.7-1.7l-0.1-1.7l-1-1.7l-0.6-1.7l-0.1-1.7l-2.1-2.3l-4-3l-2.9-1.8l-1.8-0.7l-2.2-1.5l-2.5-2.3
	l-1.4-1.8l-0.3-1.4l0.8-3.6l2.6-7.8l0.3-1l0.1-0.4l-0.1-0.3l-0.3-0.3l-1.4-0.8l-2.6-0.6l-2.3-0.3l-1.8,1l-1.7-1.8l-1.7-4.5l-3.7-4.7
	l-5.6-4.8l-3.3-3.3l-1-1.8l-0.8-2.8l-0.8-3.7l-0.1-3l0.8-3.7l1-0.4l0.1-1.2l-0.4-2.1l1-1.7l2.2-1.2l1.9-2.5l1.7-3.9l0.7-2.8
	l-0.3-1.7l-0.8-1.5l-1.2-1.4l-0.4-1.8l0.6-2.2l1.9-1.5l3.3-0.8l2.9-1.2l2.6-1.8l1.5-1.8l0.4-1.9l0.7-1.5l1-1.1l0.7-1.8l0.3-2.3v-1.8
	l-0.4-1.1l-1.2-1.2l-2.1-1.4l-1.2-1.2l-0.3-1.2l-1.1-1.4l-1.9-1.4l-1.2-1.5l8.1-0.4l8-0.4l8-0.6l8-0.6l8-0.6l8-0.7L882.6,214.4
	L882.6,214.4z"/>
<path id="US-IN" d="M938.1,227.6l0.8,7.7l1,7.7l1.7,15.4l1.8,15.4l0.8,7.7l1,7.8l-0.3,0.3l-0.3,1.1l0.6,1l0.1,0.8l-0.4,0.7l0.3,0.4
	l1,0.3l0.4,0.7v1.2l-1.7,1.4l-3.4,1.8l-0.7,0.6l-0.7,0.3h-0.3l-0.6-0.1l-0.7-0.4l-1.1-0.1l-1.8,0.4l-0.6,1.2l0.6,2.1l-0.4,1.7
	l-1.5,1.2l-1,1.7l-0.6,1.9l-1,1.2l-1.5,0.6l-1.1,1.8l-0.7,3L927,318l-1.1,0.8h-1.5l-2.1-0.8l-1.2-1l-0.4-1.1l-0.7-0.7l-0.6-0.3H919
	v0.1l0.1,0.3l-0.1,0.4l-1.2,0.3l-0.4,0.6l0.3,0.8l-0.1,0.6l-0.7,0.4l-0.3,0.8l0.1,1.2l-0.4,1.1l-0.8,1.1l-1.4-0.1L912,321l-1.9-0.1
	l-1.8,1.1l-1.2,1.4l-0.8,1.7l-0.8,0.4l-1.4-1.1l-3.2-1.4l-1.7-0.1l-1.1,0.6l-0.8-0.1L897,323l-0.3-0.1l-0.1,0.3l0.1,1.4l-0.1,1
	L896,326l-0.4-0.3l-0.4-1l-0.7-0.3l-1,0.4h-1.1l-1-0.6l-0.3,0.1l-0.3,0.3l0.1,1.1l-0.1,1l-0.4,0.6l-0.7,0.1l-1-0.3l-0.4,0.3
	l-1.2-1.9v-0.6l0.6-0.1l0.3-1l-0.3-2.1l0.3-1.1l0.6-0.4l0.1-0.4l-0.3-0.1V319l0.8-0.8l0.1-0.8l-0.7-0.8l-0.1-0.8l0.4-0.8l0.7-0.4h1
	l0.8-1.1l0.7-2.1l0.8-1.2l1-0.6l0.7-1.4l0.7-3.3l0.8-1.7v-1.7l-0.4-2.3l-1-2.2l-1.4-2.2l-0.4-1.5l0.6-0.7l0.1-1l-0.3-1.4l0.4-1.4
	l0.8-0.8v-0.1l-0.6-6.7l-0.7-7.2l-0.7-7.2l-0.7-7.2l-0.7-7.2l-0.7-7.2l-0.7-7.2l-0.6-6.3l0.1,0.1l0.7,0.6l0.6,0.3h0.4l0.3,0.6
	l1.1,0.3h1.8l1.7-0.4l1.5-0.7l3.6-2.6l4.4-0.4l5.4-0.6l5.4-0.6l5.4-0.6l5.4-0.7l5.4-0.7l5.4-0.7L938.1,227.6L938.1,227.6z"/>
<path id="US-KS" d="M764,352.1h-4.4h-4.4h-4.4h-4.4H742h-4.4h-4.4h-4.4h-4.4H720h-4.4h-4.4l-4.4-0.1l-4.4-0.1l-4.4-0.1l-4.4-0.1
	l-4.4-0.1l-4.4-0.1l-4.4-0.1l-4.4-0.1l-4.4-0.1l-4.4-0.1l-4.4-0.1l-4.4-0.1l-4.4-0.3l-4.4-0.3l-4.4-0.3l-4.4-0.3l-4.4-0.3l-4.4-0.3
	l-4.4-0.3l-4.4-0.3l0.3-4.4l0.3-4.4l0.3-4.4l0.3-4.4l0.3-4.4l0.3-4.4l0.3-4.4l0.3-4.4l0.3-4.5l0.3-4.4l0.3-4.4l0.3-4.4l0.3-4.4
	l0.3-4.4l0.3-4.4l0.3-4.4l19.3,1.4l3.9,0.1l7.7,0.4l50.1,1.8h7.7l7.7,0.1h26.4l4.3,3h1.1l1.4-0.6l1,0.7l0.7,1.9l-0.1,1h-0.8
	l-1.1,1.1l-1.2,2.2l0.3,2.1l1.9,1.9l1.4,1.9l0.7,2.1l1.4,1.5l2.9,1.7v1l0.1,6.2V325l0.1,6.2v9.5l0.1,6.2v3.2L764,352.1L764,352.1z"
	/>
<path id="US-KY" d="M988.3,299.2l0.6,0.6l0.7,3.4v0.7l-0.4,1.5l0.1,0.7l0.7,1.1l2.3,2.5l0.4,1.1l1,1l1,1.5l2.6,3l3.7,2.2l2.8,0.3
	l-6.2,6.9l-2.9,2.6l-2.9,2.2l-0.3,0.3l-0.4,1.9l-1.7,1.9l-1,1.9l-2.6,1.8l-1.8,2.2l-4.8,2.6l-2.8,1.1l-1.8,1.4l-0.1,0.1l-0.1,0.1
	l-0.1,0.1l-0.1,0.1l-0.1,0.1l-0.1,0.1l-0.1,0.1l-0.1,0.1l-6.6,0.7l-6.6,0.7l-6.6,0.6l-6.6,0.6l-6.6,0.6l-6.7,0.6l-6.7,0.6l-6.7,0.4
	l-6.3,0.8l-6.3,0.7l-6.3,0.7l-6.3,0.7l-0.7-0.7h-1.7H890h-0.1l1,2.3l0.1,2.1l-3,0.3l-3.3,0.3l-3.3,0.3L878,359l-3.3,0.3l-3.3,0.3
	l-3.3,0.3l-3.9,0.3l0.8-2.2l0.8-0.7l0.4-0.1l1,0.3l0.4,0.1l1-0.8l0.7-2.2l0.3-2.3v-2.5l-0.7-1.9l-0.3-1.1l0.4-1.5l1.5-2.1l3.3-0.3
	l5.1,1.4l2.8,0.3l0.4-0.8l-0.3-1.4l-1-1.9l-0.4-1.5l0.1-1l1.9-1.2l3.7-1.7l1.4-1.8l-0.8-2.1v-1.9l1-1.8l0.6-0.4l0.4-0.3l1,0.3
	l0.7-0.1l0.4-0.6l0.1-1l-0.1-1.1l0.3-0.3l0.3-0.1l1,0.6h1.1l1-0.4l0.7,0.3l0.4,1l0.4,0.3l0.6-0.4l0.1-1l-0.1-1.4l0.1-0.3l0.3,0.1
	l0.3,0.4l0.8,0.1l1.1-0.6l1.7,0.1l3.2,1.4l1.4,1.1l0.8-0.4l0.8-1.7l1.2-1.4l1.8-1.1l1.9,0.1l2.1,1.5l1.4,0.1l0.8-1.1l0.4-1.1
	l-0.1-1.2l0.3-0.8l0.7-0.4l0.1-0.6l-0.3-0.8l0.4-0.6l1.2-0.3l0.1-0.4l-0.1-0.3v-0.1h0.4l0.6,0.3l0.7,0.7l0.4,1.1l1.2,1l2.1,0.8h1.5
	l1.1-0.8l0.8-1.9l0.7-3l1.1-1.8l1.5-0.6l1-1.2l0.6-1.9l1-1.5l1.5-1.2l0.4-1.7l-0.6-2.1l0.6-1.2l1.8-0.4l1.1,0.1l0.7,0.4l0.6,0.1h0.3
	l0.7-0.3l0.7-0.6l3.4-1.8l1.7-1.4v-1.2l-0.4-0.7l-1-0.1l-0.3-0.4l0.4-0.7l-0.1-0.8l-0.6-1l0.3-1.1l0.3-0.3l1-1l1.1-0.3l1,0.7h1.2
	l1.5-0.6l1.5,0.1l1.5,0.8l1.5,1.7l1.5,2.5l2.3,1.4l3.2,0.1l2.3,0.7l1.7,1.2l1.2,0.3l1.2-1l1.4-0.6l1.5,0.3l2.1,1l2.8-0.7l3.6-2.3
	l2.2-0.3l1,1.9l1.9,1.8l2.9,1.8L988.3,299.2L988.3,299.2z M863.2,359.8l-1.4,0.1l-0.1-0.3V359l0.1-0.3l0.3-0.1h0.3l0.6,0.6
	L863.2,359.8L863.2,359.8z"/>
<path id="US-LA" d="M873.4,511l-1.4,0.7l-7.8-1.9l-2.1-1.9l-1.7-0.3l-2.1-0.1l-2.1,2.6l-1.5,3.4l2.8,1.7l2.3,0.7l3.7-1l1.9-1.8h1.7
	l0.8-0.4l0.7-0.8l1.5,0.6l0.1,0.7l-1,1L868,515l-0.7,1l1.7,1.8l2.3,0.4l0.8-0.3l0.4-2.2l1.4-1.5l1.9,0.1l-0.3,0.8l0.3,0.8l1,1.2v1.9
	l0.3,0.4l-2.1,1l-1.5,0.4l-1.2,1.2l0.7,0.6l-1.2,0.7l-0.8-0.1l-0.4,0.3l-0.1,0.7l-0.7,0.7l1.1,1.9l2.1,1.1l1.5,1.5l5.8,1.7l1.4-0.1
	l1.5,2.1l1.1,0.7l1.1,0.3v1.5l-1.8,1.2l-0.4,1.2l-0.4,0.7l-1-0.8l-1-0.6l-1.9,2.2l-1,0.6l0.3-2.2l-0.8-0.8l-1.2-2.1l-1.8-1.2
	l-1.2-0.4l-1-0.8L871,532l-1,0.1l-1.7-0.4l-0.1-1.1l-0.6-0.8l-1.4-1l-6.1-1.5v0.8l0.4,0.6l0.8,0.3l1.1,0.7l0.1,2.3l-0.4,1l-0.1,1.4
	l-0.3,1.4l-0.7,1.1l-1.5,0.8l-0.8-0.6l-1.4-2.9l-1.7-0.8H853l-1.8,0.8l-0.8,3.4l-1.5,0.6l-5.4-1.2l-6.2-1.9l0.1-0.8l1-0.3l1.8,0.3
	l-0.1-0.8L838,531l-0.4-1.1l0.1-1.4h-0.6l-1.1,1.2l-4-0.8l-1.1-1.1l-2.5-3.3h-3.2l-1.5-1.9l-2.6,1l-1.2,1l-1.1,1.5l0.6,0.7l1.2,1.2
	l-0.6,0.6l-3.7,1l-8.7-0.7l-2.6-0.8l-3.4-1.8l-4.8-1.4l-2.2-0.1l-2.2,0.4l-6.5,0.3l-1.5,0.4l-1.2,0.7l-0.8-0.7l-0.4-1.2l0.7-0.3
	l0.8-0.8l0.7-1.5v-1l-0.6-0.6l1.4-2.5l0.3-0.8l-0.3-4.1l-0.7-1.5v-0.8l0.6-2.2l-0.1-2.1l1.1-2.5l0.8-1.4l0.8-2.6l0.1-1.7l0.4-1.2
	l-0.3-1.4l0.7-1l-0.4-1.4l-0.1-1.8l-0.8-0.7l-1.5-2.6V487l-1.5-2.5v-0.8l-1.5-1.2l-0.3-0.8l-0.1-3.6l-0.4-1l-1.2-1.9l-2.9-2.9v-3v-3
	v-3v-3v-3v-3v-3v-3l3.6-0.1l3.6-0.1l3.6-0.1l3.6-0.1l3.6-0.1l3.6-0.1l3.6-0.1l3.6-0.1l3.6-0.1l3.6-0.1l3.6-0.1l3.6-0.1l3.6-0.1
	l3.6-0.1l3.6-0.1l4-0.3l0.1,1.2l1,0.7l0.1,1.2l-0.8,1.9l0.1,1.2l1,0.7v0.8l-1,0.8l-0.1,0.8l0.7,0.8l0.4,1.1v1.2l1,1.5l1.5,1l1,1.1
	l0.1,0.7l0.1,0.6l-0.1,1l-1.1,1.4l-0.8,1l-0.6,0.4l-0.3,0.7v1.4l-1,1.4l-2.6,2.2l-1.7,2.8l-0.7,3.3l-0.8,2.1l-1,1l-0.4,1.7l0.1,2.5
	l-0.6,1.4l-1.2,0.3l-0.1,1.4l0.8,2.6l-0.3,1.1l-0.8,0.8v0.7l5-0.3l5-0.3l5-0.3l5-0.3l5-0.3l5-0.3l5-0.3l5-0.3l-0.4,2.8l-1.2,3.9v1
	l0.4,1.2v0.7l0.6,1l1.2,1l1.1,1.5l1.1,2.6l0.3,1.2l1,1.7l0.4,0.3l0.6,0.1L873.4,511L873.4,511z M879.7,513l0.1,1.1l-1.1-0.6h-1.5
	l0.7-0.4l0.4-0.4l0.1-0.4l1.8-1.5l-0.4,1.1L879.7,513z M888.6,519.1l-0.6,0.8l0.3-3.7l-1.1-3l1,1.2l0.4,1.7L888.6,519.1L888.6,519.1
	z M887.5,521.4l-1.1,1.4v-0.6l0.7-1.4l0.6-0.6L887.5,521.4L887.5,521.4z M826.5,530.4l-0.8,0.4l-3.6-1.9l-0.3-0.8l1.7-0.8h1.1l1.7,1
	l0.7,0.3l0.3,0.4l-0.1,0.7L826.5,530.4L826.5,530.4z"/>
<path id="US-MA" d="M1176.1,150.6v1.2l0.8,1.1l0.7,1.1l1.1,1l0.7-0.1l0.7-0.4l0.6-0.1l0.6,0.4v0.7l-0.8,0.4l-1.2,1.5l-1.2,0.8
	l-0.3,1.5l-0.6,1.8l-1.4,2.9l1.1,0.4h3.3l1.7,0.4l3.3,3.7l-0.3,0.6v0.8l2.2,0.6l1.5,2.9l1.8,0.7h2.5l2.5-1.8l1.9-1.9l-0.4-1.1
	l-2.2-2.1l-0.7-1.1l-1.2-0.4l-0.3,0.7l-1-0.7l-0.3-0.4l0.6-0.4l0.8-0.1l1,0.1l3,2.1l1.7,3.3l0.8,2.2v0.8h-0.7l-1.2,0.6l-5.6,2.9
	l-1,1.4l-2.8,1.9l-0.3-0.6l-0.1-1.2l-0.8-2.3h-0.7l-3.6,5.2l-1.8,0.7l-1.2,1.5l-0.6-0.6l-1.1-2.8l0.3-2.6l-0.6,0.1l-0.7,1.1
	l-0.8-0.8l-0.8-0.4l-0.8-0.4l-0.3-0.8l-0.3-1.4h-0.8l-0.6-1.5l-0.3-1l-1.2,0.4l-1.1,0.3l-1.7,0.6l-1.8,0.6l-1.2,0.4l-0.1-0.3
	l-2.1,0.6l-2.1,0.6l-2.1,0.6l-2.1,0.6l-2.1,0.6l-2.1,0.6l-2.1,0.6l-2.1,0.6v0.6l-0.7,0.3l-0.1-0.6l-1.5,0.3l-1.5,0.3l-1.5,0.3
	l-1.5,0.3l-1.5,0.3l-1.5,0.3l-1.5,0.3l-1.5,0.3l-0.6-0.4V179v-2.1v-2.1v-2.1v-2.1v-2.1v-2.1v-2.1l1.7-0.4l1.7-0.4l1.7-0.4l1.7-0.4
	l1.7-0.4l1.7-0.4l1.7-0.4l1.7-0.4l2.5-0.6l2.5-0.6l2.5-0.6l2.5-0.6l2.5-0.6l2.5-0.6l2.5-0.6l2.5-0.6l1.4-1.1l1.2-2.3l1-0.7l1.4-1.5
	l0.8-0.4L1176.1,150.6L1176.1,150.6z M1191,183.7l-4.4,2.5l-1-0.6l1.1-0.7l1-2.2l1-0.6l1.8,0.6L1191,183.7z M1201.1,183.5l-1.2,0.8
	h-3.3l2.3-1.5l0.3-0.4v-1.1l-0.1-0.6l1.7,1.9L1201.1,183.5z"/>
<path id="US-MD" d="M1107.7,245.9l7,25.6l1,3.6l1.8-0.4l4-1l4-1l1.9-0.4l0.1,0.7v1.1l-0.3,0.6l-0.3-1.1l-0.4-0.3l-0.4,0.6l-0.1,0.6
	l0.3,2.1l-0.1,1.1l-1.1,0.6l-0.6,2.9l-0.8,1.8l-0.1,1.1l-1.7,0.7l-2.8,1l-0.6,1.2l-1.5-0.1l-2.1,0.6l0.1-1.5l0.3-1.4l-1.4-1h-0.7
	l-0.8-0.4l0.6-1.2l0.1-1.2l-0.6-1.2l0.1-1.1l-0.6,0.3l-0.7,1.2l-0.4,0.6l-0.6-0.8l-0.3,0.3l-0.1,0.7l-0.6,0.6l-1.4-0.7l-1.9-0.7
	l-1.4-1.5l-0.8-1.2v-2.6l1.1-0.7h1.7l2.1-0.4l-0.4-0.6l-0.7,0.3l-2.6-1.5l-1-1.1h-1.2l-0.3,1.2l-0.6,0.4l0.1-2.8l1-0.3l1.2-1
	l-0.7-1.4l-1.1-0.4l-1.5,1.1l-0.1-1.1V265l1.2-0.3l1.2,0.1l0.4-2.3l-0.1-1l-1.2,1.7l-1-2.9l0.8-3.2l1.1-1.5l1.8-0.4l1.8-0.6
	l-1.2-0.3h-1.2l0.7-1.4l0.7-0.4l0.6-1.1l-1.7,0.6l-0.3-1.9l-0.8,0.6l-1,0.4l-0.3,0.8l0.4,1.2l-0.1,1l-0.7,0.8l-1.2,0.8l-0.3-1
	l-0.6-0.3l0.3,2.1l-0.1,0.8l-1.4-1.7l-0.3,0.4l0.1,0.6v1l-0.7,0.7l0.3,1.2l-0.1,0.7l-2.9-0.4v0.4l2.1,1.9l1.2,0.6l0.4,1.2l-0.7,1.2
	l-1.5-0.6l-0.3,0.1l1.1,1.4l0.7,1.2l-0.3,1.2l0.4,1.4l0.1,1.2v1.1l1.7,4.8l2.2,2.2l0.7,1.1l-0.8,0.4l-1.5-0.7l-1.4-0.6l-1.9-2.1
	l-0.4-1l-0.6-0.7l0.6,1.7l1,1.8l5.2,3.4l1.1,1.5l0.8,1.2l0.1,1.2l-1.4-0.7l-1.2-1l-2.9-0.7l-3.4-0.1l-2.5-2.6l0.3,1.2l-0.1,1.1
	l-1.4-1.1l-1-1l-0.6-1.1l-1.4,0.4l-1.2,1.4h-1.5l-0.6-2.1l0.1-1.1l1.1-2.9l1.2-1.7l0.3-1.8l-0.8-2.6l0.6,1.9l1.2-2.2l-1.4-1.2
	l-1.2-1.2l-1.1,1.9l-1.4-0.3l-2.5-1.5l-3.6-0.7l-0.6-0.6l-0.1-0.8l0.3-1.1l-1.2-0.8l-2.6-0.6l-1.2-0.7l-0.3-0.1l-0.3-1.1l-0.4-0.6
	l-0.6-0.1l-0.1-0.4l0.1-0.7l-0.4-0.6l-1.1-0.6l-0.4-0.6l0.1-0.7l-0.6-0.1l-1.2,0.3l-1.4-0.3l-1.5-0.8l-1.5,0.1l-2.3,1.7l-1.4,0.6
	l-0.6,0.7l-0.1,1.1l-0.6,0.7l-1.4,0.3h-0.3h-1.7l-1.2-0.4l-0.3-0.3V260l-0.3-0.3h-0.4l-0.3,0.4l-0.1,1.1l-2.3,3.3l-1.5-0.3l-0.6,0.1
	l-3.3,4.5l-1.1,0.8l-2.1,2.2l-0.6-3l-0.6-3l-0.6-3l-0.6-3l4.1-0.8l4.1-0.8l4.1-0.8l4.1-0.8l4.1-0.8l4.1-0.8l4.1-0.8l4.1-0.8l4.1-0.8
	l4.1-0.8l4.1-0.8l4.1-0.8l4.1-1l4.1-1l4.1-1L1107.7,245.9L1107.7,245.9z M1126.8,282.8l-0.4,0.1l0.3-1l0.7-4.3l0.4-1.5v2.9l-0.7,2.8
	L1126.8,282.8z"/>
<path id="US-ME" d="M1174.6,40.1l0.3,0.4l1,0.7l1.2,0.3h0.8l1-0.3l2.2-1.9l2.8-1.7l1.4-1.2l0.1-0.7l0.7-0.4l1.2-0.1l2.8,1l3.3,1.7
	l2.6,1.4l1.1,3.3l1.2,3.6l1.2,3.7l0.8,2.8l2.2,6.6l1.2,3.9l0.7,2.1l0.4,0.6l0.1,0.8v0.4l0.1,0.3l0.3,0.4l0.1,0.6l-0.1,0.6v0.7l0.3,1
	l0.4,0.6l0.6,0.1l0.4-0.1l0.7,0.1l0.8,0.4l1.2,0.3l1.1-0.1l0.7-0.4h1l0.6,0.8l0.1,0.8l-0.4,0.6l-0.4,0.4l0.1,0.7l0.4,0.6l0.6,0.4
	l0.7,0.8l0.1,1l-0.1,0.8l0.1,0.8l0.6,0.6l1.1,0.6l0.8,0.7l1,0.1l0.3-0.4l0.1-0.6l0.3-0.4h2.3l0.1,0.7l0.8,1l1.1,2.2l-0.1,1.2
	l0.6,1.4l1.7-0.1l0.6,0.3l0.3,0.4l-2.2,4.5l-3,0.4l-1.2,1.4l-1.5,0.8l-0.1,1.8l-0.8,0.6l-1.2,0.3l-1.2-0.1l-0.7,0.4l-0.3,3.2h-1v1.1
	l-0.3,0.6l-0.6,0.6l-1-1.1l-0.8-1.1l-0.7-0.1h-0.8l-0.8,0.3l-0.4,0.3l-0.4,1l-0.7,1l-0.8-0.3l-0.8-0.7v1.5l-0.3,1.7l0.7,1.7v1.1
	l-0.7-0.1l-1-0.7l-2.1-0.1l-1.4,0.6v-1.1l1-1.8l-0.6-0.1l-0.6,0.4l-0.4-0.1l0.1-1.4l-0.4-1.4l-0.4,0.7l-0.3,1.8l-1.5,1.8l0.7,1.9
	l-0.6,4.5l0.4,1.8l-0.7,1.8l-1.1,1.7l-2.1,0.3l-1.2,1.5l-0.4,1.4l-0.6,0.4l-0.8-1.4l-0.4-0.4l0.1,2.3l-0.6,0.3l-0.7-1.5l-0.6-1
	l-0.6,1.1l0.1,2.5h-0.6l-0.4-0.8l-0.4-0.1l0.1,1.1l0.6,1.4v0.8l-0.7-0.3l-0.7-0.6l-0.7,0.8l-0.7,0.4l-0.1-0.7l-0.1-0.8l-1.5,1
	l-1.5,2.2l-0.8,2.6l0.7,0.1l0.8,0.6l-1.7,4.1l-1.8,3.9l-0.7,5.5l-0.7,0.8l-0.4,1.1l-1.9-1.8l-0.8-1.7l-2.1-1.7l-1-1.2l-0.7-1.5
	l-0.4-1.8l-0.8-2.5l-0.8-2.5l-0.8-2.5l-0.8-2.5l-0.8-2.5l-0.8-2.5l-0.8-2.5l-0.8-2.5l-0.8-2.5l-0.8-2.5l-0.8-2.5l-0.8-2.5l-0.8-2.5
	l-0.8-2.5l-0.8-2.5l-0.8-2.2l0.3-0.4l0.8-1l0.7-0.1l0.8,0.8l0.7,0.6l0.6-0.3l0.1-1.1l-0.4-1.2l0.4-1.1l0.7-0.4l0.7-0.1l0.3-0.6
	l-0.3-0.6l-0.6-1l-0.3-1.2l1.1-2.6l1.7-2.1l0.6-1l-0.3-1.5l0.8-1.9l0.3-1.1l-0.1-0.8l-0.6-0.8L1164,76l-0.3-2.2l-0.1-2.5l0.6-2.5
	l1.1-2.9l-0.4-3.2l-0.4-3.3l1.2-3.7l1.4-4.3l0.8-2.5l1.4-4.4l1-3.2l0.6-1.5l0.6-1.7h3.3l0.4,2.1L1174.6,40.1L1174.6,40.1z
	 M1209.9,104l-0.8,0.7l-1.1,0.1l0.4,1.2v0.4l-1.4-0.3l-0.6-0.3l-0.4-1.7l0.6-1.8l0.6-0.8l1.1,0.1l1.4,1.5L1209.9,104L1209.9,104z
	 M1203.7,109.3l-0.6,0.7h-0.7l-0.4-1.1l0.1-0.4l0.1-0.3l0.4,0.3L1203.7,109.3L1203.7,109.3z"/>
<path id="US-MI" d="M852.1,85.6V86l0.6,0.1l-0.1,0.1l-0.6,0.4l-1.8,0.8l-1.2,0.3l-0.7-0.3l-0.1-0.6l0.4-0.8v-0.4H848l0.1-0.3
	l0.7-0.7l6.1-4.1l2.6-1.5l1.4-0.6l0.3,0.1l-1.5,1.5l-0.1,0.6l0.1,0.4l-0.4,0.8l-4.4,2.9L852.1,85.6L852.1,85.6z M865.6,101.9
	l-0.3,0.8l0.1,0.4l-1.8,2.2l-0.6,1.4l-0.6,0.3l-0.6-0.8v-0.7l0.4-0.6l0.4-0.8V103l-0.3-0.4l-0.6,1l0.4,0.1l0.1,0.1l-0.1,0.4
	l-2.3-0.3l-0.7-0.7v-1.1l0.7-1.4l2.5-3l1.1-0.8l3.3-1.5l1.9-0.4l1.9-0.1l1.4,0.3l1,0.7l-0.8,0.6l-3.7,0.8l-0.1,0.1l0.7,0.4l0.1,0.3
	l-0.6,0.8L865.6,101.9L865.6,101.9z M931,112.1l0.6,0.3l0.4,0.6l1.1,1.4l0.6,1l0.4,1.5l0.3,0.4l0.1,0.8l-0.6,0.7l-0.1,0.6l0.4,0.4
	l1.9-0.1l1,0.3l0.4,0.4l-0.1,0.6l0.1,0.6l0.6,0.6l1.7,0.8l0.4,0.4v0.6l-0.4,0.4l-0.8,0.3l-6.2-0.1l-1.8,0.1l-0.3,0.4l-0.1,0.1h-0.3
	h-0.6l-0.3-0.1l-0.3-0.6l-0.6-0.3h-0.8l-0.7,0.6l-0.6,1.9l0.1,0.3v1.2l0.3,0.3v0.3l-0.1,0.3h-0.6l-0.8-0.1l-3.2-2.3l-2.3-1.1
	l-2.8-0.7l-2.2-0.3l-1.5,0.1l-1.2,0.8l-0.8,1.5l-1.5,1l-2.1,0.4l-1.1,0.6l-0.1,0.6l-0.8,0.1l-1.4-0.4H903l-1.4,0.4l-1,0.7l-1,1.8
	l-0.1,0.8l-0.7,0.8l-2.1,1.4v0.4l-1,1.4l-0.3,0.7l0.1,0.7h-0.4l-0.8-0.7l-0.1-1.1l0.6-1.4l0.6-0.7h0.6l0.3-0.7v-1.2L896,132
	l-1.1,0.4l-0.6,0.6l-0.7,0.1l-0.8-0.1l-0.7,0.7l-0.6,1.7l-0.7,1.1l-0.8,0.6l-0.7-0.6l-0.1-1.8l-0.1-1.2l0.3-1.5l-0.3-0.3l-0.3,0.6
	l-0.4,1.4l-0.6,2.9l-0.4,1l-0.7,0.4l-0.8,1.8l-1.1,3l-1.4,3l-1.5,2.9l-1,1.7l-0.3,0.3l-0.1,0.6v1.2l-0.8-0.3l-0.8-0.8l-0.6-1l-0.1-1
	l0.8-2.6v-0.4l-0.1-0.3l-0.6-0.3l-1.2,0.6l-1.2,0.1l-0.4-0.1l-0.1-0.4v-0.7l0.1-0.8l0.6-1.5l-0.1-1.4l0.3-0.8l-0.4-1.4v-0.7
	l-0.6-0.7l-1.5-0.8l-3.3-1.1l0.1-1.5l-0.1-0.7l-0.8-0.8l-3.4-0.8L864,132l-2.3,0.1l-1.7-0.3h-1.8l-1.2-0.6l-1.2-0.6l-1.2-0.6l-1.6-1
	l-2.1-0.4l-2.1-0.4l-2.1-0.4l-2.1-0.4l-2.1-0.4l-2.1-0.4l-2.1-0.4l-2.1-0.4l-0.6-1l-0.6-1l-0.6-1l-0.6-1l-1-0.4l-0.6-0.1l-0.4-0.6
	L831,121l-0.4-0.8l0.1-0.1l1.1-0.3l3-1.5l2.6-1.7l2.1-1.9l2.6-1.2l3.3-0.7l2.3-0.8l1.4-1l1.8-1.8l1-0.6l1.4-0.3l1-0.7l0.6-1.2
	l1.2-1.4l1.8-1.7l1-0.7l0.3,0.3l0.1,0.6v0.8l0.6,0.6l1.1,0.4l0.6,0.6v0.8l0.3,0.7l0.7,0.6l0.3,1.2l-0.1,1.9v1.2l0.3,0.6l0.3,0.3
	l0.3-0.3l0.4-0.7l0.1-0.4l0.1-0.4l2.6-2.1l0.6-0.1l1,0.4l4.3,0.3l1.7,0.3l1.8,1l0.7,0.4l2.5,3.3l1.1,1.2l0.7,0.3l0.4,0.6l0.4,1.2
	l0.4,0.3h3.2l1.4-0.4l0.8-0.6l1,0.3l1.1,1l1.1,0.3l1-0.6l1-0.1l1,0.4l0.4,0.4h0.3l1.7-1.9l1.9-1.8l2.6-1.9l1.5-1l0.4,0.1l2.6-0.8
	l2.3-0.3h3.2l2.9-0.7l2.5-1.4l2.2-0.8l2.1-0.4l0.8,0.3l-0.4,0.8l-0.1,1.4l0.1,1.8v1.1l-0.3,0.6v0.4l0.3,0.4h2.1l1.1,0.4l1.2-0.1
	l1.2-0.7l1.1,0.1l0.8,0.8h1.1l1-0.8l0.7-0.7l0.6-0.4L931,112.1L931,112.1z M935.3,115l0.1,0.6h-0.6l-0.4-0.3l-0.4-0.6l-0.6-1.4
	l-0.8-1l0.8-1.2l0.6-0.3l0.7,0.1l0.1,0.7l-0.3,1.1l0.1,1.1L935.3,115L935.3,115z M935.9,117.7l-0.3,0.1l-1-0.8l-0.3-0.6v-0.6h0.3
	l0.6,0.4l0.4,0.4l0.1,0.6L935.9,117.7L935.9,117.7z M946.9,122l0.3,0.6l-0.3,0.8l-1.1,0.6l-2.3,0.3l-1.5-0.1l-0.8-0.4l-0.1-0.3v-0.7
	l0.3-0.1l0.6,0.3l0.7-0.3l1-0.8l0.4-0.6V121l-0.4-0.6l0.3-0.3h1.2l0.6,0.3l1.1,1.2V122L946.9,122z M929.9,128.9h2.2l0.1-0.3l0.7,0.6
	l0.1,0.6l-0.1,0.6l-0.3,0.3l-0.6,0.1l-0.8-0.4l-1.4-1.1L929.9,128.9L929.9,128.9z M926.5,130l1.2,0.3l2.3,1.2l2.2,0.6h1.9l1.5,0.3
	l1,0.7l0.7,0.8l0.6,1l1,0.4h1.5l1.2,0.3l1,0.6l4.8,1.2l2.1,0.7l1.2,0.8l0.4,0.6v0.6l0.1,0.7l1,1.1h0.3l0.3,0.6l0.3,1.1l0.3,0.7
	l0.4,0.3l-0.3,0.1L952,144l-0.8,0.3l-0.3,0.8v0.8l0.4,0.7l2.2,1.9l0.8,1.9l0.4,2.5l-0.1,1l0.1,2.1l0.3,3.3l0.1,1.1l-0.4,1.1
	l-1.4,1.8V163h-0.4l-0.4,0.3l-0.4,1.4l-0.1,2.5l-0.4,1.4l-0.7,0.3l-0.4,0.4l-0.1,0.6l-0.7,0.4l-1.4,0.4l-0.8,0.8l-0.4,2.2l0.1,1
	l-0.1,1.2l0.1,1.1l0.6,0.8l1.2,0.7l2.1,0.6h1.2l0.7-0.4l0.7-1.5l0.7-0.7l1-0.4l0.3-0.7l1.2-3.2l-0.1-0.7l-0.7-0.1v-0.1l0.7-0.3
	l0.6-0.6l0.4-0.7l1-0.7l2.3-1.1l1.1-1.1l0.8-0.3l1.2,0.3l1.7,0.8l1.5,1.4l1.2,1.9l1.9,5.1l2.6,8.3l1.7,4.5l1,1.4l-0.3,6.7l-0.6,2.9
	l-1.5,1.8l-1.5,1.8l-1.8,2.9l-2.2,1.7l-1.1,1l-0.1,0.6l-0.3-0.1L966,211l-0.3,2.1v1.5l0.3,0.8l-0.4,0.6l-0.8,1.1l-0.1,0.4l0.1,0.6
	l-0.1,0.3h-0.4l-0.3,0.3l-0.7,1.1l-1.1,2.9l-0.1,0.6l-0.1,0.1l-5.9,1.1l-5.9,1l-5.9,1l-5.9,1l-0.1-1.4l-5.4,0.7l-5.4,0.7l-5.4,0.7
	l-5.4,0.6l-5.4,0.6l-5.4,0.6l-4.4,0.4l1.1-0.8l1.8-1.8l1-1.5l0.8-1.9l0.7-2.3l1.7-3.6l0.7-2.2l0.7-2.6l0.4-2.8l0.1-2.9l-0.1-2.9
	l-0.4-3l-0.8-3l-1.2-3l-0.7-1.5l-0.3-0.4l-2.1-3.7l-2.5-5.4V184l1.4-3.4v-0.4l-0.4-2.6l-0.6-1.2l-1.1-1.7v-0.4l1.5-2.5l0.8-1.8
	l0.7-2.2l0.4-2.5v-2.9l-0.3-1.9l-0.4-1v-0.7l0.3-0.6l1.8-0.8l0.6-1.2l-0.1-1.9l0.3-1h0.7l0.6-0.4l0.4-0.8l0.7-0.3l1,0.3l1.1-1.4
	l1.2-2.9l1.1-1.7l0.8-0.4l0.1,0.3l-0.4,0.8v1l0.3,1v1l-0.3,1.4l0.3,0.4l-0.4,2.2l0.1,1.1l0.6,0.7l0.4-0.3l0.4-1.4l0.1-0.7h-0.3v-0.6
	l0.3-1.1l0.3-0.6h0.3l0.1,0.6v1.1l-0.6,2.8l-0.1,0.8l0.3,0.1l1-1.8l0.7-2.8l0.4-2.1v-1.1l-0.6-2.8l-0.1-1.1l0.1-0.8l0.8-1l1.5-1.2
	l1.5-0.7l1.5-0.3l1.1-0.4l0.6-0.6l-0.3-0.4l-1.1-0.1l-0.8-0.6l-0.7-0.8l-0.3-1.1v-1.2l0.6-1.2l1.1-1.4l0.3-1l-0.6-0.6l0.4-0.3h1.5
	l1-0.3L926.5,130L926.5,130L926.5,130z M913.8,136.2l-0.6,0.1l-0.4-0.3v-1.1l0.4-2.1l0.4-1l0.8,0.3l-0.1,0.3l0.4,2.1l-0.1,1
	L913.8,136.2L913.8,136.2z M908.1,148.8l-0.1,0.4h-0.4l-0.4-0.3l-0.6-1l0.1-0.3h1l0.4,0.4V148.8L908.1,148.8z"/>
<path id="US-MN" d="M779.7,72.7l1.9-0.4h1.7l1.7,0.1l1,0.1l2.6,1l1.7,0.8l2.5,1.5l1.4,0.7l0.7,1.7l0.8,2.2h1.1l0.7-1.2l2.1-0.3
	l2.8,0.8l2.5,2.5l3.6,2.1l2.2,1l2.1-0.1l2.6-1.2l2.8-2.3l2.1-0.6l1.2,0.1l0.8,1.7l0.8,0.6L825,83h4.7l3.7-0.7l1,1l0.8,1.5l1.5,0.4
	l2.1-0.7l3.3,0.1l-0.4,0.3h-0.4l-0.6,0.4l-0.7,0.8l-1.7,1.2l-2.8,1.7l-3.2,1.5l-6.3,2.8l-4,2.8l-1.7,1.7l-6.6,7.8l-4.1,4.1l-6.7,5.9
	l-0.7,0.7v0.7H802l-1.1,1.4l-0.4,0.8l-1.1,0.3l0.6,13.9l-0.6,0.4l-0.7,0.8l-1,0.3l-4.4,3l-0.7,0.8l-0.7,1.9l-1.4,2.2l-0.3,1.1
	l0.1,1.5l2.3,1.1l0.8,1.1l0.4,1.4v1.2l-1.1,2.5l-0.1,1l0.3,3l-0.6,1l0.6,2.5v0.8l-0.3,2.8l-0.3,0.8l0.6,1.4v0.1l2.2,1.9l1.9,1
	l1.7,0.3l1.4,0.8l1,1.2l1.2,0.8l1.7,0.4l1.7,1l2.6,2.6l1.4,2.2l2.2,1.5l3.6,1.5l2.3,1.4l1.1,1.2l0.8,3.3l1,7l-5.8,0.3l-5.6,0.3
	l-5.6,0.3l-5.6,0.3l-5.6,0.1l-5.6,0.1l-5.6,0.1l-5.6,0.1l-5.6,0.1l-5.6,0.1l-5.6,0.1h-5.6h-5.6h-5.6h-5.6h-5.6v-5.4v-5.4v-5.4V175
	v-5.4v-5.4v-5.4v-5.4l-1.2-1.8l-2.8-1.5l-0.7-0.8l-1.2-2.2l-0.6-1l-0.1-0.7l0.7-0.8l2.6-2.3l0.8-1.1l0.4-1.1l0.6-2.3l-0.3-1.8
	l0.1-2.9l-0.6-2.2l-0.1-1.1l-0.3-1.4l-1.9-3.6l-0.4-2.9l-0.4-1.4l-0.1-3.6v-1l0.4-1.9l-0.8-1.4l-0.1-1.1l-0.3-8.5l-0.3-1.2l0.1-4
	l-1.4-4.3l-0.7-1.4l-0.3-1.8v-0.8l-1.1-2.9l-0.7-3.2l0.1-2.8l-0.3-2.1l0.1-1.7l-0.1-2.5l0.3-1.4v-2.1l-1.5-7.6H752v-5.1v-4l3.4,0.4
	l1.1,0.7l0.3,0.4l-0.1,1.1l0.3,3.4l0.7,2.8l1.5,3.4l0.1,1.4l0.6,0.8l0.8,0.8l3.3,0.8l5.8,1l3.3,1.2l0.8,1.4l1.5,0.6l2.3-0.3l1.7-0.7
	L779.7,72.7L779.7,72.7z"/>
<path id="US-MO" d="M820.9,269.5l-0.8,3.7l0.1,3l0.8,3.7l0.8,2.8l1,1.8l3.3,3.3l5.6,4.8l3.7,4.7l1.7,4.5l1.7,1.8l1.8-1.1l2.3,0.3
	l2.6,0.6l1.4,0.8l0.3,0.3l0.1,0.3l-0.1,0.3l-0.3,1l-2.6,7.8l-0.8,3.6l0.3,1.4l1.4,1.8l2.5,2.3l2.2,1.5l1.8,0.7l2.9,1.8l4,3l2.1,2.3
	l0.1,1.7l0.6,1.7l1,1.7l0.1,1.7l-0.7,1.7l0.4,2.1l1.7,2.5l1.2,1.5l1,0.6h0.1v-0.3l-0.1-0.4v-0.3v-0.4l0.1-0.1h0.1l1,0.6l1.5,1.4
	l0.7,1.9v2.5l-0.3,2.3l-0.7,2.2l-1,0.8l-0.4-0.1l-1-0.3l-0.4,0.1l-0.8,0.7l-0.8,2.2l-0.4,0.3l-0.3-0.1v-0.1l-0.3-0.6l-0.6-0.6h-0.3
	l-0.3,0.1l-0.1,0.3v0.7l0.1,0.3l0.4,1.8l-0.1,1.2l-1,0.6l-0.1,0.7l0.6,0.8v0.4l-0.1,0.3l-0.7,0.1l-0.6,0.3l-0.4,0.7l0.8,1.2v1.5
	l-1,1.8l-0.1,0.7L856,373l-3.2,0.3l-3.2,0.3l-3.2,0.3l1.4-2.6l1-1l0.7-1l1.2-1l1.2-2.1l0.1-1l-0.1-0.8l-1-1.1l-1-1.8l-5.4,0.3
	l-5.4,0.3L834,362l-5.4,0.3l-5.4,0.3l-5.4,0.3l-5.4,0.3l-5.4,0.3l-5.4,0.1l-5.4,0.1l-5.4,0.1l-5.4,0.1L780,364l-5.4,0.1l-5.4,0.1
	l-5.4,0.1v-3v-3v-3v-3v-3.2V346v-3.2v-3.2v-3.2v-3.2V330v-3v-3.2v-3.2v-3.2v-3.2V311v-3v-3.2v-3.2v-1l-2.9-1.7l-1.4-1.5l-0.7-2.1
	l-1.4-1.9l-1.9-1.9l-0.3-2.1l1.2-2.2l1.1-1.1h0.8l0.1-1l-0.7-1.9l-1-0.7l-1.4,0.6h-1.1l-4.3-3l-0.3-0.3l-1.4-2.1l-0.6-2.5l-1.1-1.5
	L745,273l-1-1.7l-0.4-2.5l-1-2.5l-0.4-0.7h9.1l4.5-0.1l4.5-0.1l4.5-0.1l4.5-0.1l4.5-0.1l4.5-0.1l4.5-0.1l4.5-0.1l4.5-0.1l4.5-0.1
	l4.5-0.1l4.5-0.3l4.5-0.3l4.5-0.3l1,1.7l1,0.4l0.3,0.6l1.4,0.8l0.3,0.8L820.9,269.5L820.9,269.5z"/>
<path id="US-MS" d="M891.5,393.7l1.9,1.4v2.1l-0.1,4.4l-0.1,4.4l-0.1,4.4l-0.1,4.4l-0.1,4.4l-0.1,4.4l-0.1,4.4l-0.1,4.4l-0.1,4.4
	l-0.1,4.4l-0.1,4.4l-0.1,4.4l0.1,5.1l-0.1,4.4l-0.1,4.4l-0.1,4.4l2.9,22.4l1.2,9l0.7,5l-6.1,0.8l-2.8-1l-1.1-0.1l-0.7,0.1l-3,1.4
	l-3.4,1.1l-0.8-0.3h-1.2l-2.3,3.2l-1.5,0.8l-0.6-0.1l-0.6-0.1l-0.4-0.3l-1-1.7l-0.3-1.2l-1.1-2.6l-1.1-1.5l-1.2-1l-0.6-1v-0.7
	l-0.4-1.2v-1l1.2-3.9l0.4-2.8l-5,0.3l-5,0.3l-5,0.3l-5,0.3l-5,0.3l-5,0.3l-5,0.3l-5,0.3v-0.7l0.8-0.8l0.3-1.1l-0.8-2.6l0.1-1.4
	l1.2-0.3l0.6-1.4l-0.1-2.5l0.4-1.7l1-1l0.8-2.1l0.7-3.3l1.7-2.8l2.6-2.2l1.2-1.9v-1.4l0.3-0.7l0.6-0.4l0.8-1l1.1-1.4l0.1-1l-0.1-0.6
	l-0.1-0.7l-1-1.1l-2.1-1l-1-1.5v-1.2l-0.4-1.1l-0.7-0.8l0.1-0.8l1-0.8V452l-1-0.7l-0.1-1.2l0.8-1.9l-0.1-1.2l-1-0.7l-0.1-1.2
	l-0.1-0.6l0.7-4.3l-0.3-0.6l-1-1.2l-0.1-1.5l0.4-1.9l-0.3-1.5l-1-0.4l-0.3-0.6l-0.3-0.8l0.8-0.8v-0.7l-0.8-0.7l0.4-1l1.7-1.4
	l0.4-0.7l0.4-0.8l0.1-1.8l-0.3-1.1l-0.4-0.7l0.1-0.4l0.3-0.3l1.9-0.7l0.6-0.6l0.1-0.6l-0.7-1.4l0.6-1.5l1.8-1.7l1-1.4v-1.1l0.8-0.8
	l1.7-0.7l0.8-2.2l0.1-3.7l0.4-1.7l0.8-0.3l0.4-0.6l0.1-1.1l1-1.2l1.8-1.2l0.7-1.1l-0.3-0.6v-0.7l5-0.3l5.2-0.3l5.2-0.4l5.2-0.4
	l5.2-0.4l5.2-0.4l5.2-0.4L891.5,393.7L891.5,393.7z M893.5,508.8l-0.3,0.3l-1.9-0.4l-1.1-0.4l-0.3-0.4l3.2,0.6L893.5,508.8
	L893.5,508.8z"/>
<path id="US-MT" d="M602.9,132.2l-0.4,5.6l-0.4,5.5l-0.4,5.6l-0.4,5.5v0.6h-0.1H601h-0.1h-0.1l-3.7-0.3l-3.7-0.3l-3.7-0.4l-3.7-0.4
	l-3.7-0.4l-3.7-0.4l-3.7-0.4L571,152l-3.7-0.4l-3.7-0.4l-3.7-0.4l-3.7-0.4l-3.7-0.4l-3.7-0.4l-3.7-0.4l-3.7-0.4l-3.7-0.6l-3.7-0.6
	l-3.7-0.6l-3.7-0.6l-3.7-0.6l-3.9-0.7l-3.7-0.6l-3.7-0.6l-3.7-0.6l-3.7-0.6l-3.7-0.6l-3.7-0.6l-3.7-0.6l-3.7-0.6l-3.7-0.6l-3.7-0.6
	l-0.6,3l-0.6,3l-0.6,3l-0.6,3l-1-0.8l-0.7-0.8l-0.4-1l-0.8-2.5l-0.6-1l-0.6-0.6l-0.6-0.1l-0.8,0.1l-0.7,0.4l-0.4,1l-0.7,1l-0.1,1
	l0.1,0.6l-0.1,0.3l-0.4,0.1l-2.6-0.8h-2.5l-1.5-0.7l-3.2-0.4l-2.6-0.8h-1l-0.7,0.4l-1,1.1l-0.3,0.1h-0.3l-4.1-1.5l-1.1-0.3l-1.4,0.6
	l-0.6,0.6l-0.3,0.7l-0.3,0.1l-0.4-0.1l-0.8-0.7l-0.8-1l-0.4-0.7l0.1-1.4l-0.6-1.7l0.1-1.4l-0.3-1.2l-0.6-1.4l-0.7-1l-0.7-0.4
	l-1.5-0.1l-0.3-0.1l-1.2-1.9l-0.3-0.8l0,0l0.8-1.4v-0.8l-0.1-1.1l-0.4-1l-0.7-1l-0.6-1.8l-1.1-2.6v-1.8l-0.3-1.5l0.1-1.5l-0.4-1
	l0.3-1.1v-0.3l-0.1-0.1l-0.8-0.8l-1-1.4l-0.6-0.4h-0.3l-0.1,0.3l-0.1,0.6l-2.2,1.5l-1.8,0.6l-1,0.7l-0.8,0.3h-0.4l-0.4-0.4l-1.4-1.7
	l-1.2-0.8l-0.1-0.3l0.3-1.1l0.8-1.1l-0.1-2.3l0.3-0.7l0.6-0.4l1.7-0.6l0.3-0.4l0.1-2.2l-0.7-1l-0.1-0.6l0.6-1.7l-0.1-1.2l0.8-0.8
	l0.4-1.7l0.8-1.7l1.1-2.5l0.1-1.1l1-1.1l0.4-1.1l0.1-0.8v-0.6l-0.1-0.3l-0.6-0.1h-2.3l-0.7-0.3l-0.6-0.4l-0.3-0.6l0.1-1l-0.4-0.7
	l-0.3-0.1l-1.1,0.1h-0.1l-0.1-0.1l-0.3-1l-1.2-1.9l-0.4-2.1l-1.2-1.9l-1-2.5l-2.2-4.1l-0.6-0.8l-1.9-1.7l-1.4-2.1l-1.5-1.7l-0.1-0.3
	v-0.1l0.1-0.1l0.6-0.3l0.3-0.7l-0.4-1.4l0.6-1.2v-1.9l-0.1-0.7l-0.8-1.9l-0.4-1.8l-1-1.8l-1.2-2.8l1.4-5.8l1.4-5.9l1.4-5.9l1.4-5.8
	l2.9,0.7l6.6,1.5l6.6,1.4l13.5,2.8l1.5,0.3l5.2,1.1l33.7,6.2l20.2,3.3l5.1,0.8l1.7,0.3l6.7,1.1l27,3.9l27,3.3l27,2.8l5.1,0.4
	l-0.4,4.5l-0.4,4.7l-0.4,4.7l-0.4,4.7l-0.4,4.7l-0.4,4.5l-0.4,4.5l-0.4,4.5l-0.4,4.5l-0.4,4.5L604,109l-0.4,4.5l-0.4,4.5l-0.4,4.5
	l-0.4,4.5L602.9,132.2L602.9,132.2z"/>
<path id="US-NC" d="M1121.1,320.7l-0.1,1.9l0.6,1l1.2,0.8l1.7,2.5l1.7,3.4l-1.5-1.2l-1.4-0.6l-2.1-0.1l-1.9-0.7l0.4,1.5l0.1,1.7
	l-1.5-0.1l-1.1-0.3l1.2,1.5l-1.9-0.1l-1.1,0.4l-0.4,1.7l-0.8,1.1l-1.5,0.7l-2.6-1l-1.1-1.5l-0.7-1.8l0.4,2.2l1,2.2l0.3,1.8l2.2-0.1
	l1.9-0.7l2.8-0.6l1.8-0.7l1-0.8l2.8-0.1l0.7,2.1l0.1,2.2l0.4,2.3l0.7-0.1l0.7-1l-0.6-4.1l2.1-2.1l0.8-0.1l1.1,1.1l0.6,1.2l0.7,1.8
	l0.1,2.9l-2.9,4.1l-1.9,3.6l-1.2,1l-2.1,0.1l-2.3-0.3l-1.1,0.1l-0.8,0.4l-0.7-0.8l-0.7-1.7l-1-0.4l-0.7,0.1v1.9l-1.9,1l-2.9-0.1
	l-3.3-0.8l1.7,1.4l7.8,1.5l1,0.4l1,0.7l-0.7,1.5l-0.6,1.7l0.1,1.1l-0.1,0.8l-2.5,2.6h-1.7l-4.8-2.6l2.5,2.6l1.8,1h3.2l5.4-2.3
	l2.1,0.8l-1,2.5l-1.1,1.9l-1.9,0.6l-1.7,0.8l-0.3,1.1l-1.2,0.3l-1.9,0.4l-2.9,0.7l-1.7,0.1l-1.8,2.6l-0.8,0.4l-1.2-0.1l-0.8-1.7
	l-0.7-0.7l0.7,3.3l0.4,0.8l0.6,0.6l-2.3,2.3l-2.1,2.8l-0.8,0.8l-0.8,1.4l-1.5,3.6v2.5l-0.3,2.8l-0.3-1.1l-0.3-1.9l-1-2.2l0.6,4.1
	l-0.4,2.1l-7.7,1.4l-2.9,1.5l-3.4-2.3l-3.2-2.2l-3.2-2.2l-3.2-2.2l-3.2-2.2l-3.2-2.2l-3.2-2.2l-3.2-2.2l-2.8,0.4l-2.8,0.4l-2.8,0.4
	l-2.8,0.4l-2.8,0.4l-2.8,0.4l-2.8,0.4l-2.8,0.4l-0.4-1.8l-0.3-1.2l-2.1-1.9l-1.2-1.1l-1.9,1.5l-0.1-0.6l-0.1-1l-0.3-0.3l-0.7-0.1
	l-3,0.4l-3,0.4l-3,0.4l-3,0.4l-3,0.3l-3.2,0.4l-3,0.3l-3,0.3l-0.7-0.1l-1.2,1l-3.4,1.7l-1.7,1.4h-0.7l-2.9,1.5l-4.1,1h-0.4l-5.9,1
	l-5.9,0.8l-5.9,0.8l-5.9,0.8l0.1-5.1l0.4-1.2l0.6-0.3l2.1-0.3l1.2-0.7l0.7-3.2l2.2-2.8l1.1-0.8l1.7-0.7l4-1.1l4.1-2.9l2.9-2.6l2.5-1
	l0.7-1l0.4-1.1l0.1-1.5l0.3-0.3l1.5-0.1l1-1.4l1-0.8l1-0.6l0.7-0.1l0.3,0.3l0.3,1l0.3,0.3h0.4l0.6-0.3l0.7-0.8l1.8-2.5l1.2-1.1
	l2.1-0.8l1.8,0.8l0.8-0.6l2.1-4.8l1-1l0.8-0.4l1.4-0.3l-0.1-1.2l0.1-1.9l-0.1-1.2l0.6-1.9l0.4,0.3l6.9-1.1l6.9-1.1l6.9-1.1l6.9-1.1
	l6.9-1.1l6.9-1.2l6.9-1.2l6.9-1.2l6.9-1.2l6.9-1.2l6.9-1.4l6.9-1.4l6.9-1.4l6.9-1.4l6.9-1.4L1121.1,320.7L1121.1,320.7z
	 M1122.4,320.3l0.6-0.1l3.6,7l5.6,7.3l0.8,1.2l-1.1-1.1l-4-4.8l-2.5-3.6L1122.4,320.3L1122.4,320.3z M1131,335.4l-0.1,0.6l-1.8-2.3
	l1.5,0.6l0.4,0.7V335.4L1131,335.4z M1135.9,349.5l-2.5,1.2l-0.3-0.1l2.6-2.1l-0.1-5l-0.4-2.2l-1.4-3.7l-0.1-0.8l0.8,1.1l1.2,3.4
	l0.4,2.8v4.1L1135.9,349.5L1135.9,349.5z M1131.7,351.7l-3.2,2.5h-0.4l2.1-1.7L1131.7,351.7L1131.7,351.7z M1120.7,367.5l-0.4,0.4
	l1.1-3.3l2.6-4.4l0.8-0.8l-2.2,3.9L1120.7,367.5L1120.7,367.5z M1119.7,367.4l-0.4,0.1l-0.8-0.1l-1.1-0.3l-0.3-0.3l1.1-0.1
	L1119.7,367.4L1119.7,367.4z"/>
<path id="US-ND" d="M728.2,138.1h-3.9h-3.9h-3.9h-4h-3.9L705,138l-3.9-0.1l-4-0.1l-3.9-0.1l-3.9-0.1l-3.9-0.1l-3.9-0.1l-3.9-0.1
	l-3.9-0.1l-3.9-0.1l-3.9-0.1l-3.9-0.1l-3.9-0.1l-3.9-0.3l-3.9-0.3l-3.9-0.3l-3.9-0.3l-3.9-0.3l-3.9-0.3l-5.1-0.4l-3.9-0.3l-3.9-0.3
	l-3.9-0.3l-3.9-0.3l-3.9-0.3l-3.9-0.3l-3.9-0.3l0.4-4.5l0.4-4.5l0.4-4.5l0.4-4.5l0.4-4.5l0.4-4.5l0.4-4.5l0.4-4.5l0.4-4.5l0.4-4.5
	l0.4-4.5l0.4-4.7l0.4-4.7l0.4-4.7l0.4-4.7l0.4-4.5l1.7,0.1l20.2,1.7l13.5,0.8l6.9,0.4l6.7,0.4l6.9,0.4l6.7,0.3l20.7,0.8l20.7,0.4
	l4.8,0.1l1.5,7.6v2.1l-0.3,1.4l0.1,2.5l-0.1,1.7l0.3,2.1l-0.1,2.8l0.7,3.2l1.1,2.9v0.8L721,94l0.7,1.4l1.4,4.3l-0.1,4l0.3,1.2
	l0.3,8.5l0.1,1.1l0.8,1.4l-0.4,1.9v1l0.1,3.6l0.4,1.4l0.4,2.9l1.9,3.6l0.3,1.4l0.1,1.1l0.6,2.2l-0.1,2.9L728.2,138.1L728.2,138.1z"
	/>
<path id="US-NE" d="M729.1,220.4l0.6,0.1l1.2,2.1l0.4,3.7l1.1,3l1.7,2.3l0.8,1.7v1.1l0.4,1.1l0.8,1.2l0.3,2.1l-0.1,2.9l0.3,1.5
	l0.8,0.1l0.4,0.4l-0.1,0.7l0.3,0.6l0.7,0.3l0.1,0.8l-0.3,1.4l0.3,0.8l0.8,0.4l0.1,0.7l-0.6,1l0.1,0.8l0.7,0.6l0.4,2.6l0.3,4.5
	l-0.1,2.6l-0.4,0.8l0.6,1.7l1.1,1.8l0.4,0.7l1,2.5l0.4,2.5l1,1.7l1.5,0.7l1.1,1.5l0.6,2.5l1.4,2.1l0.3,0.3H746h-3.9h-3.9h-3.9h-3.9
	h-3.9h-3.9H719h-3.9h-3.9h-3.9l-3.9-0.1l-3.9-0.1l-3.9-0.1l-3.9-0.1l-3.9-0.1l-3.9-0.1l-3.9-0.1l-3.9-0.1l-3.9-0.1l-3.9-0.1
	l-3.9-0.1l-3.9-0.1l-3.9-0.1l-3.9-0.1l-3.9-0.1l-3.9-0.1l-3.9-0.3l-3.9-0.3h-3.6l-3.9-0.3l-3.9-0.3l0.1-3l0.1-3l0.1-3l0.1-3l0.1-3
	l0.1-3l0.1-3l0.1-3l-4.5-0.3l-4.5-0.3l-4.5-0.3l-4.5-0.3l-4.5-0.4l-4.5-0.4l-4.5-0.4l-4.5-0.4l0.6-5.9l0.6-5.9l0.6-5.9l0.6-5.9
	l0.6-5.9l0.6-5.9l0.6-5.9l0.6-5.9l18.2,1.7l30.3,2.1l36.4,1.7l6.1,0.1l7,0.3l5.2,3.7l3.2,1.2l1.5-1l3.3-0.6h5l3.2,0.6l1.2,1.1
	l2.5,1.2l3.9,1.4l2.2,1.5l0.7,1.7l1.4,1.1L729.1,220.4L729.1,220.4z"/>
<path id="US-NH" d="M1176.1,145.8l0.1,3.2v1.7l-2.1,0.4l-0.8,0.4l-1.4,1.5l-1,0.7l-1.2,2.3l-1.4,1.1l-2.5,0.6l-2.5,0.6l-2.5,0.6
	l-2.5,0.6l-2.5,0.6l-2.5,0.6l-2.5,0.6l-2.5,0.6l-0.6-0.7l-1.4-1.2l-0.4-0.6l-0.1-0.7v-1.9l0.3-0.7l0.1-1.2l-0.6-4.4l-0.1-2.6
	l-0.8-4.7v-1.4l0.1-1l0.1-2.3l0.8-2.1l0.3-2.3l0.6-2.2l-0.1-1.1l0.1-2.6l-0.7-4.4l0.3-0.8l2.1-1.2l0.6-0.7l1.9-2.5l0.6-1l0.3-0.8
	v-1.2l0.1-0.4l-0.1-0.7l-1.7-2.6l-0.3-1l1-3.7l-0.8-1.8l0.1-0.6l0.4-5l1-2.5l2.2,0.1l1.1-0.4l0.6-1l0.8,2.2l1.7,5l1.7,5.1l0.8,2.5
	l1.7,5.1l2.5,7.4l2.6,7.6l1.7,5l0.4,1.8l0.7,1.5l1,1.2l2.1,1.7l0.8,1.7L1176.1,145.8L1176.1,145.8z"/>
<path id="US-NJ" d="M1134.1,208.5l0.1,1.9l-0.8,4.1l-0.6,1.1l-0.7,1l-0.6,0.6l-0.4,0.7l-0.4,1.1l-0.3,2.1l0.8,1.5l3.6-0.3l0.8-0.7
	l0.8,1.1l0.7,1.7l0.1,1.9l-0.1,1.9l0.1,2.3l0.6,3.6l0.3,3.3l-0.3-1l-0.6-3.9l-0.4,0.6l-0.1,1l0.1,5.2l-0.8,3l-0.8,2.2h-1.5l0.7,1.4
	l-0.1,0.8v1.7l-0.6,1.2l-0.8,0.1l-1,1l-0.3,0.7l0.3,1.1l-0.6,1.1l-1.5,5.4l-2.1,1.9l-0.6-0.1l0.1-2.5l-0.1-2.3l-1.7-0.7l-1.5-0.1
	l-1.5,0.4l-2.1-1.4l-2.5-0.8l-3.9-2.8l-0.1-1l-0.4-1.7l0.3-2.8l0.6-2.1l1-1.2l3.3-1.8l0.6-1.7l0.3-1.4l0.7-1l1.7-1.9l2.8-2.5
	l-5.6-4.8l-1.1-0.1l-1.8-2.6l-1.5-0.6l-0.4-0.4l-0.6-2.2l-0.1-1.2v-0.8l1-0.8l0.4-1.4l-0.1-0.7l-1.4-1.8l-0.1-0.7l1.4-1.7l1.5-2.9
	l0.7-2.9l0.3-0.8l0.4-0.7l1.2-1.1l5.9,1.9l2.1,0.7l6.1,1.9L1134.1,208.5L1134.1,208.5z M1137.6,239.9l-1.2,4l-0.3-0.7l1.5-5V239.9
	L1137.6,239.9z"/>
<path id="US-NM" d="M602.5,359.1h-0.8l-0.6,6.7l-0.6,6.7l-0.6,6.7l-0.6,6.7l-0.6,6.7l-0.6,6.7l-0.6,6.7l-0.6,6.7l-0.6,6.7l-0.6,6.7
	l-0.6,6.7l-0.6,6.7l-0.6,6.7l-0.6,6.7l-0.6,6.7l-0.6,6.7l-4.5-0.4l-4.5-0.4l-4.5-0.4l-4.5-0.4l-4.5-0.4l-4.5-0.4l-4.5-0.4l-4.5-0.4
	l-4.5-0.4l-4.5-0.4l-4.5-0.4l-4.5-0.6l-4.5-0.6l-4.5-0.6l-4.5-0.6l-4.5-0.6H520l1.5,4.5l2.3,1.5h-0.1l-4.5-0.6l-4.5-0.6l-4.5-0.6
	l-4.5-0.6l-4.5-0.6l-4.4-0.6l-4.5-0.6l-4.4-0.7l-0.4,2.6l-0.4,2.6l-0.4,2.8l-0.4,2.6l-7.3-1l-7.2-1l-2.6-0.4l1.2-8.4l1.2-8.4
	l1.2-8.4l1.2-8.4l1.2-8.4l1.2-8.4l1.2-8.4l1.2-8.4l1.2-8.4l1.2-8.4l1.2-8.4l1.2-8.4l1.2-8.4l1.2-8.4l1.2-8.4l1.2-8.4l35.8,4.8
	l28.6,3.3l35.8,3.4l14.3,1.1l-0.3,3l-0.3,3l-0.3,3L602.5,359.1L602.5,359.1z"/>
<path id="US-NV" d="M393.8,318.1l-1.9,9.2l-2.1,10.1l-0.4,0.1l-1.4,1.9l-1.4,0.8l-1-0.3l-0.8-0.8l-0.7-1.5l-1.2-1.1l-1.8-0.6
	l-1.7-0.1l-1.5,0.3l-1.1,0.7l-0.8,1.5v0.7l0.6,1.8l-0.4,2.5l-0.3,1.9l0.3,1.2l-0.1,1.2l-0.7,1.9l-0.1,1.7l0.6,3.2l-2.1,8.3v0.1
	l-4.1-6.1l-3.9-5.6l-3.9-5.6l-3.9-5.6l-3.9-5.6l-3.9-5.6l-3.7-5.6l-3.7-5.6l-2.8-4l-2.6-4l-2.6-4l-2.6-4l-2.6-4l-2.6-4l-2.6-4
	l-2.6-4l-3.3-4.8l-3.3-4.8l-3.3-4.8l-3.3-4.8l-3.3-5l-3.3-5l-3.2-5l-3.2-5l1.2-4.3l1.1-4.3l1.2-4.3l1.2-4.3l1.1-4.3l1.2-4.3l1.2-4.3
	l1.1-4.3l1.2-4.3l1.2-4.3l1.2-4.3l1.2-4.3l1.2-4.3l1.1-4.3l1.2-4.3l1.2-4.3l6.5,1.8l32.4,8.3l32.4,7.6l32.4,6.9l-0.7,3.7l-0.7,3.7
	l-0.7,3.7l-0.7,3.7L415,221l-0.7,3.7l-0.7,3.7l-0.7,3.7l-0.7,3.7l-2.2,1.7l-0.7,3.7l-0.7,3.7l-0.7,3.7l-0.7,3.7l-0.7,3.7l-0.7,3.7
	l-0.7,3.7l-0.7,3.7l-0.7,3.7l-0.7,3.7l-0.7,3.7l-0.7,3.7l-0.7,3.7l-0.7,3.7l-0.7,3.7l-0.5,4l-0.7,3.7l-0.7,3.7l-0.7,3.7l-0.7,3.7
	l-0.7,3.7L393.8,318.1L393.8,318.1z"/>
<path id="US-NY" d="M1135.2,164.7v16.5l0.6,0.4l3.3,17.9l1.5,1.5l-0.6,0.6l-0.8,1l-1,1l-1.2,1.2l2.2,2.2l-0.6,0.8l-1.4,2.5l-1,1.4
	l-1,0.6l-0.4,1.1l-0.6,0.8l0.1-2.2l0.3-1.9l-0.3-3.4l-0.8-2.6l-1.1-1l-1-0.6l1.5,2.5l1,3.2v0.1l-1.9-0.7l-2.1-0.7l-2.1-0.7l-2.1-0.7
	l-2.1-0.7l-1.9-0.7l-1.9-0.7l-1.9-0.7l-0.6-0.8l-0.8-0.6l-3.4-0.4l-1-0.6l-1-0.8l-0.8-1.2l-0.6-1.2l-0.3-1.1v-1.2l-1-0.7l-0.1-0.7
	l-0.6-0.4l-2.2-0.4l-1-1.1l-1.7-0.8l-2.3,0.6l-2.5,1l-2.3,0.6l-2.3,0.6l-2.3,0.6l-2.5,0.6l-2.3,0.6l-2.5,0.6l-2.5,0.6l-2.5,0.6
	l-2.5,0.6l-2.5,0.6l-2.5,0.6l-2.5,0.6l-2.3,0.6l-2.5,0.6l-2.5,0.6h-2.1l-2.5,0.6l-2.5,0.6l-2.5,0.4l-2.5,0.4l-2.5,0.4l-2.5,0.4
	l-2.5,0.4l-2.5,0.4l-2.5,0.4l-2.5,0.4l-2.5,0.4l-2.5,0.4l-2.5,0.4l-2.5,0.4l-0.6-3.2l-0.6-3.2v-0.1l1-0.8l2.9-2.8l1.4-1.9l1.5-1.7
	l1.7-1.4l1.2-1.7l0.8-1.8l1-1.4l1.1-1.1l0.6-1v-0.8l-0.4-1.1l-0.8-1.4l-0.3-1.1l0.3-1v-0.6l-0.3-0.3l-2.9-0.3l-0.7-4.1v-0.1l0.1-0.1
	l5.9-3l3.9-1.4l4.8-1.1l5.9-0.3l2.5,0.3l1.7,0.7h1.7l1.8-0.8l2.5-0.7l3.3-0.6l1.8-0.1l0.3,0.3l0.1-0.1l0.1-0.6l0.8-0.7l2.3-1.4
	l0.4,0.1l0.4-0.6l0.4-1.2l1-1.4l1.5-1.7l1.5-1l1.5-0.4l1-0.6l0.4-0.7v-0.6l-0.3-0.4v-0.6V155l-0.1-0.1l-0.3-0.4l-0.6-2.1l-0.6-0.8
	l-0.6-0.7l-0.6-0.4v-0.6l0.7-0.8v0.6l0.3,0.1l0.4-0.3l0.7-1.4v-0.6l0.6-0.7l0.3-0.8h-0.6l-1.2,0.6l-0.3-0.1l0.4-1.1l-0.3-0.6
	l-0.3-0.1h-0.4l-1.2,1.2l-0.4,0.1l-0.1-0.4l-1-0.8l1.5-2.2l5.6-6.6l0.6-1l0.1-0.7l-0.3-0.6l-0.3-0.1v-0.1l5.1-8l3-3.9l2.6-2.3
	l2.1-1.4l1.7-0.3l0.8-0.3l0.8-0.1l3.9-1l6.9-1.7l6.9-1.8l4.1-1.1l0.6,1.5l0.1,1.9l0.8,1.9l0.7,4.3l1.9,2.9l0.3,2.2l0.7,2.3v0.6
	l-0.6,1.5l-0.1,1.4v1.4l0.3,0.8l1.7,3.6l0.6,1.7l0.3,1l0.1,3.3l0.1,1l0.3,0.1h0.3l0.4-1.1l0.3-0.3l0.4,0.1l1.4,1.2l0.7,2.6l0.4,1.9
	l0.6,2.2l0.7,3.2l0.6,2.3l1,3.9l0.1,1.2L1135.2,164.7L1135.2,164.7z M1078.1,140.7l-0.6,0.3l-0.1-0.3v-0.3l0.4-0.4l0.7-0.1v0.3
	L1078.1,140.7z M1077.1,148l-0.3,0.1l-0.1-0.6l0.1-0.4l0.4-0.3v0.3L1077.1,148L1077.1,148z M1036.1,180.1l-0.4,1h-0.6l-0.4-0.1
	l-0.3-0.6v-0.7l0.4-0.4h1.2l0.1,0.3L1036.1,180.1L1036.1,180.1z M1158.8,202.3l-0.8,1.8l1.2-0.1l0.8-0.7l0.7-1.1l1.8-1.8l1.7-1
	l0.6-0.3l1.1,0.6l1.5-1.1l1.7-0.8l-6.6,5.9l-1.5,0.8l-1.9,1.8l-1.9,1.4l-1.5,0.7l-6.9,4.8l-0.6,0.3l-0.7-0.1l-5.9,3l-2.5,0.8
	l-2.2,1.1l1.4-1.7l-0.1-0.4l-0.6-0.3l-1,0.3l-0.7,1.5l-1.4,0.8l-0.7-1.2l0.3-1.1l0.4-1.1l1.1-1.9l1.9-1.5l0.8-1.1l1,0.6l-0.1-1.1
	l0.4-0.7l0.6-0.4l1.5-0.4l0.8-0.4l0.6-0.6l0.6-0.3h1.8l1.7-0.6l1.1-1l1.2-0.6l3.6-1.1l3.4-1.4l1.2-1.2l2.3-3l1.5-1.1l-1.9,3.3
	L1158.8,202.3L1158.8,202.3z M1131.8,220.6l-0.8,0.3l0.3-2.5l1.2-1.4l0.6,0.1l0.3,0.8v0.7l-0.8,1.2L1131.8,220.6L1131.8,220.6z"/>
<path id="US-OH" d="M1018.2,241.2l-1.9,1.4l-0.3,1l0.8,1.1l0.6,1.5l0.4,1.9l-0.6,4.4l-1.4,6.9l-0.6,4.3l0.3,1.7l-1.2,2.5l-2.8,3.3
	l-1.9,2.1l-1.2,0.8l-1.1,0.1l-1-0.6l-0.8,0.6l-0.8,1.7l-0.8,1l-1,0.1l-0.7,1.1l-0.4,2.1l-0.4,1.2l-0.6,0.4l0.1,1l0.8,1.7v0.6h-0.3
	h-0.3l-0.6,0.4l-0.6,1.1h-0.3l-0.3-0.1l-0.4-1.2l-0.7-0.8l-1-0.4l-1.1,1.4l-1.2,3l-0.4,1.9l0.6,1.2l0.4,1.8l-0.3,0.8l-0.8,0.4
	l-0.6,1.1l-0.3,1.8l-1.1,1.2l-1.9,0.7l-2.2-0.4h-0.1l-2.9-1.8l-1.9-1.8l-1-1.8l-2.2,0.3l-3.6,2.3l-2.8,0.7l-2.1-1l-1.5-0.3l-1.4,0.6
	l-1.2,1l-1.2-0.3l-1.7-1.2l-2.3-0.7l-3.2-0.1l-2.3-1.4l-1.5-2.5l-1.5-1.7l-1.5-0.8l-1.5-0.1l-1.5,0.6h-1.2l-1-0.7l-1.1,0.3l-1,1
	l-1-7.8l-0.8-7.7l-0.8-7.7l-0.8-7.7l-0.8-7.7l-0.8-7.7l-1-7.7l-0.8-7.7l5.9-1l5.9-1l5.9-1l5.9-1.1l0.1-0.1v0.1l0.3,0.4h1.7l1.1,0.3
	l1,0.7l3.3,1l1.1,0.8l1,0.4h1l0.6-0.4l0.3-0.7l0.4-0.1l0.6,0.6l1.8,0.4l0.1,0.1l-4.7,1.8l-1,0.7l1.2,0.1l1.2-0.3l1.1-0.7l1.4-0.1
	h1.2l0.4-0.3l0.1-0.1l2.3,1.1l0.8,0.1l0.8-0.3l0.8-0.7l1.8-1l2.8-1.2l2.8-0.8l2.6-0.3l1.7-0.6l1.4-1.1l2.9-3.4l3.4-3l5.9-4l5.8-3.3
	l0.3,1.9l4.5,27.3L1018.2,241.2L1018.2,241.2z"/>
<path id="US-OK" d="M764.2,364.1l1.5,9.9l1.1,6.6l1.5,9.9v41.9l-4.5-1.1l-1.1-0.7l-2.1-0.8l-1.9-1.8l-3.7-2.2l-1.4-0.6h-0.4
	l-0.7,1.1l-1.9,0.8h-1.1l-1.9-0.3l-0.4-0.3l-0.3-0.7l-0.8-0.4l-0.6,0.4l-2.8,1l-0.4,0.7h-1.5l-1.5-0.4l-4,1.5l-1.4,1.1l-1.4,0.4
	l-0.7,1.1l-0.4-0.1l-1.5-1.4l-1.5-0.4l-2.1-1.4v-1.2l-0.3-0.1l-0.4-0.1l-0.4,0.1l-1,1l-0.6,0.3H723l-2.1-0.7l-0.8-1.2l-0.4-0.4
	l-0.4-0.1l-0.8,0.4l-0.6,1.4l-0.4,0.4l-0.8,0.3v0.7l-0.8,1.9l-0.4,0.4l-0.6-0.1l-0.6-0.4l-0.4-0.7l-0.1-0.6l0.3-1.5L714,427
	l-0.4-0.1l-1,0.7h-0.8l-1.1,0.7l-0.7,0.1l-0.7-0.1l-1-1.1l-1.8-0.7l-0.7-1.4l-0.3-0.4l-0.4-0.1h-0.4L704,425l-2.1,1.7l-1,0.6
	l-0.8,0.1l-0.8-0.1l-0.6-0.4v-1.8l-0.4-0.6l-1.9-1.1l-0.4-1.1l-0.1-1.5l-2.3,0.1l-2.9-0.3l-1.4,1.2l-0.7,0.3l-0.8-0.3l-2.2-1.8
	l-2.5,0.3l-1.4-0.3l-3.3-1.4l-2.6-0.1l-1.1-0.3l-0.6-0.3L674,416l-1-1.7l-0.3-0.4l-1.8-1.2h-0.3l-0.1,0.3l-0.4,1.2h-0.6l-2.1-0.4
	l-1.9,0.3l-1.1-0.7l-3.4-3.2l-1.4-0.8l-1.1-0.3l0.1-2.9l0.1-2.9l0.1-2.9l0.1-2.9l0.1-2.9l0.1-2.9l0.1-2.9l0.1-2.9l0.1-2.9l0.1-2.9
	l0.1-2.9l0.1-2.9l0.1-2.9l0.1-2.9l0.1-2.9l0.1-2.9l-3.6-0.1l-3.6-0.1l-3.6-0.1l-3.6-0.1l-3.6-0.1l-4.4-0.7l-3.6-0.1l-3.6-0.3
	l-3.6-0.3l-3.6-0.3l-3.6-0.3l-3.6-0.3l-3.6-0.3l-3.6-0.3l-3.6-0.3l-3.6-0.3l0.3-3l0.3-3l0.3-3l0.3-3l9.4,0.8l9.4,0.6l35.2,2.2
	l4.4,0.1l8.8,0.4l39.7,1.2l8.8,0.1h44.1l0.1,5.9v3L764.2,364.1L764.2,364.1z"/>
<path id="US-OR" d="M288,65.1l1.8-0.1l1.1,0.8l1.2,1.5l0.7,3.6v5.8l-0.1,1.9l1,1.4l1.4,0.6l5.5,2.5l0.8,0.1l1.1,0.1l3.9-1.1l3.7,0.4
	l4.1,1.4l2.5,1.4l0.7,1.2l2.2,0.7l5.6,0.3l6.2,0.8h3.4l4.1-0.8h8.8l4.1,0.8l2.3-0.3l0.6-0.3h0.3l25.6,6.6l4.4,1.1l4,1l0.3,1.1
	l1.2,2.5l2.1,2.3l1.1,2.2l0.3,2.1l-2.2,4l-4.7,6.1l-2.8,3.9l-0.7,1.8l-2.3,2.8l-3.9,3.9l-2.2,3l-0.4,2.2l0.7,1.5l1.8,0.8l1.1,1
	l0.4,1.2l-0.1,1l-0.8,0.7l-0.4,0.8v1.1l-0.7,1.7l-1.9,3.3v0.1l-1.4,5.8l-1.2,5.2l-1.2,5.2l-1.2,5.2l-1.2,5.2l-1.2,5.2l-1.2,5.2
	l-1.2,5.2l-6.5-1.5l-6.5-1.5l-6.5-1.7l-6.5-1.7l-6.5-1.7l-6.5-1.7l-6.5-1.7l-6.5-1.8l-4.5-1.2l-4.5-1.2l-4.5-1.2l-4.5-1.2l-4.5-1.2
	l-4.5-1.2l-4.5-1.4l-4.5-1.4l-4.5-1.4l-4.5-1.4l-4.5-1.4l-4.5-1.4l-4.5-1.4l-4.5-1.4l-4.5-1.4l-4.7-1.5L239,152l0.4-4.4l0.4-1.8
	l1.8-4.5v-2.2l-0.6-3.7l1.7-2.6l1.2-1.5l4.3-6.9l0.7-0.4l0.7,0.3l1.7-0.8l-0.6-0.6l-1.1,0.3l1.8-2.8l1.8-2.2l0.8-0.7l3-8.3l2.6-6.2
	l1.5-1.8l0.4-2.2l1.2-2.9l0.7-3l6.3-13.8l0.3-1.8l1.2-2.2l1.4-6.3l2.3-6.7l-0.1-1l0.1-1h0.4l0.6,1.2l3.9,1.2l2.8-0.1l0.8,0.6
	l0.7,1.5l1.2,0.7L288,65.1L288,65.1z"/>
<path id="US-PA" d="M1118.2,203.4l-1.2,1.1l-0.6,0.7l-0.3,0.8l-0.7,2.9l-1.5,2.9l-1.4,1.7l0.1,0.7l1.4,1.8l0.1,0.7l-0.3,1.4l-1,0.8
	v0.8l0.1,1.2l0.6,2.2l0.4,0.4l1.5,0.6l1.8,2.6l1.1,0.1l5.6,4.8l-2.8,2.5l-1.7,1.9l-0.7,1l-1.2,2.5l-2.5,1.4l-1.2,1.1l-0.3,0.4
	l-1.8-0.3l-2.2,0.6l-0.7,0.4l-0.4,0.7l-1,2.2l-4.1,1l-4.1,1l-4.1,1l-4.1,1l-4.1,0.8l-4.1,0.8l-4.1,0.8l-4.1,0.8l-4.1,0.8l-4.1,0.8
	l-4.1,0.8l-4.1,0.8l-4.1,0.8l-4.1,0.8l-4.1,0.8l-4.1,0.8l-2.3,0.4l-2.3,0.4l-3.2,0.4l-2.3,0.4l-2.3,0.4l-2.3,0.4l-2.3,0.4l-2.3,0.4
	l-0.4-2.8l-0.4-2.8l-0.4-2.8l-0.4-2.8l-0.4-2.8l-0.4-2.8l-0.4-2.8l-0.4-2.8l-0.4-2.5l-0.4-2.5l-0.4-2.5l-0.4-2.5l-0.4-2.5l-0.4-2.5
	l-0.4-2.5l-0.4-2.5l-0.4-2.5l-0.4-2.5l-0.4-2.5l-0.4-2.5l-0.3-1.9l3-1.8l1.4-1.1l1.4-1.1l0.7-0.6l0.8-0.6l5-4v0.1l1.1,6.3l2.5-0.4
	l2.5-0.4l2.5-0.4l2.5-0.4l2.5-0.4l2.5-0.4l2.5-0.4l2.5-0.4l2.5-0.4l2.5-0.4l2.5-0.4l2.5-0.4l2.5-0.6l2.5-0.6l2.5-0.6l2.5-0.6
	l2.3-0.6l2.5-0.6l2.5-0.6l2.5-0.6l2.5-0.6l2.5-0.6l2.3-0.6l2.5-0.6l2.3-0.6l2.3-0.6l2.5-0.6l2.3-0.6l2.5-0.6l2.3-0.6l2.3-0.6
	l2.3-0.6l1.7,0.8l1,1.1l2.2,0.4l0.6,0.4l0.1,0.7l1,0.7v1.2l0.3,1.1l0.6,1.2l0.8,1.2l1,0.8l1,0.6l3.4,0.4l0.8,0.6L1118.2,203.4
	L1118.2,203.4z"/>
<path id="US-SC" d="M1084.2,393.8l-0.3,0.1l-4.5,4.5l-1.2,1.8l-3.2,6.7l-0.4,4l-1.2-1.4v-1.2l-0.1-1l-0.7,2.3l1.7,2.9l-0.7,1.4
	l-2.5,2.8l-1.5,0.7l-1.7,1l-0.1,2.2l-2.1,2.5l-1.2,1.1l-2.6-0.1l1.1,1.8l-0.7,1.7l-1.4,1.4l-1.9,1.1l-1.2,0.1l-1,0.6l-0.6,1.1
	l-1.8,1.2l-2.1-0.1l-2.3,0.1l-1.1,0.7l2.2,0.6l1.4,1.1v1.7l-0.4,0.7l-1.2,1.1h-0.6l-0.6-0.7l-0.7-1.5l-0.6,0.4v0.8l-0.4,0.4
	l-2.3-2.3l0.4,1.9l1,1.4l0.8,0.7l0.7,0.4l0.3,0.7l-1,1.9l-0.6,0.6l-1.1,0.4l-0.6,1.2l0.4,0.8l-4.4-1.2l-1.5-1.5l-0.3-2.2l-1.2-2.3
	l-3-3.9l-1.9-1l-1.7-2.6l-1.9-4.7l-2.2-2.9l-2.6-1l-1.9-1.4l-1.1-1.8l-1.1-1.1l-1-0.4l-0.7-0.8l-0.3-1.4l-1.7-1.5l-4.5-2.8l-1.2-1.9
	l-2.2-1.8l-5.4-3.6l-5.8-7.6l-0.8-1.7l-1.1-0.6h-1.7l-1.7-0.6l-2.5-1.8l-4.1-2.1l0.4-2.5l2.5-3.4l0.7-1.8h0.6l3-1.5l2.9-1.5h0.7
	l1.7-1.2l3.4-1.8l1.2-1l0.7,0.1l3.2-0.3l3-0.3l3-0.3l3.2-0.3l3-0.4l3-0.4l3.2-0.4l3-0.4l0.7,0.1l0.3,0.3l0.1,1l0.1,0.6l1.9-1.5
	l1.2,1.1l2.1,1.9l0.3,1.2l0.4,1.8l2.8-0.4l2.8-0.4l2.8-0.4l2.8-0.4l2.8-0.4l2.8-0.4l2.8-0.4l2.8-0.4l6.2,4.4l15.8,11L1084.2,393.8
	L1084.2,393.8z"/>
<path id="US-SD" d="M728.2,138.1l-0.6,2.3l-0.4,1.1l-0.8,1.1l-2.6,2.3l-0.7,0.8l0.1,0.7l0.6,1l1.2,2.2l0.7,0.8l2.8,1.5l1.2,1.8v43
	l-2.5,0.1l0.3,1.5l0.7,1.5l0.1,0.8l-0.1,0.7l-0.6,0.6l0.1,1l0.1,0.3l1.1,0.7l0.4,0.8l0.1,1v0.7l-0.7,1.4l-0.3,1.8l-0.8,2.6l-1,1.7
	l-0.1,0.8l0.1,0.7l1.5,1.7l0.1,0.7l0.6,0.8l0.4,1.9l-1.4-0.3l-1.4-1.1l-0.7-1.7l-2.2-1.5l-3.9-1.4l-2.5-1.2l-1.2-1.1l-3.2-0.6h-5
	l-3.3,0.6l-1.5,1l-3.2-1.2l-5.1-3.7l-7-0.3l-6.1-0.1l-6.1-0.3l-6.1-0.3l-6.1-0.3l-6.1-0.3l-6.1-0.3l-6.1-0.3l-6.1-0.4l-6.1-0.4
	l-6.1-0.4l-6.7-0.4l-6.1-0.4l-6.1-0.6l-6.1-0.6l-6.1-0.6l0.6-5.9l0.6-5.9l0.6-5.9l0.6-5.9l0.6-5.9l0.6-5.9l0.6-6.1l0.6-6.1h0.6v-0.1
	v-0.1v-0.1v-0.1l0.4-5.5l0.4-5.6l0.4-5.5l0.4-5.6l7.8,0.7l46.3,3.3l7.8,0.4l7.7,0.3l7.8,0.3l7.7,0.3l7.8,0.3l4,0.1l7.8,0.1h7.8
	l7.8,0.1L728.2,138.1L728.2,138.1z"/>
<path id="US-TN" d="M974.6,345.7l4.3-0.6l9.2-1.2l6.6-1l5.4-0.8l3.2-0.4l4-0.6l0.8-0.7l2.1-0.3l2.8-0.3l-0.6,1.9l0.1,1.2l-0.1,1.9
	l0.1,1.2l-1.4,0.3l-0.8,0.4l-1,1l-2.1,4.8l-0.8,0.6l-1.8-0.8l-2.1,0.8l-1.2,1.1l-1.8,2.5l-0.7,0.8l-0.6,0.3h-0.4l-0.3-0.3l-0.3-1.1
	l-0.3-0.3l-0.7,0.1l-1,0.6l-1,0.8l-1,1.4l-1.5,0.1l-0.3,0.3l-0.1,1.5l-0.4,1.1l-0.7,1l-2.5,1l-2.9,2.6l-4.1,2.9l-4,1.1l-1.7,0.7
	l-1.1,0.7l-2.2,2.8L971,378l-1.2,0.7l-2.1,0.3l-0.6,0.3l-0.4,1.2l-0.1,5.1l-6.3,0.7L954,387l-6.3,0.7l-6.3,0.7l-3.2,0.3L935,389
	l-3.2,0.3l-3.2,0.3l-3.2,0.3l-3.2,0.3l-3.2,0.3l-3.2,0.3l-3.2,0.3l-3.2,0.3l-3.2,0.3L903,392l-3.2,0.3l-3.2,0.3l-3.2,0.3l-3.2,0.3
	h-0.3l0.3,0.3l0.4,0.3l-5.4,0.4l-5.2,0.4l-5.2,0.4l-5.2,0.4l-5.2,0.4l-5.2,0.4l-5.2,0.3l-5,0.3v-0.1l0.7-1.1l2.1-1.8l0.8-2.2
	l-0.4-2.6l0.7-2.5l1.8-2.2l0.7-2.2L855,380l0.8-1.8l2.2-1.5l0.3-0.6l-0.1-0.4v-0.4v-0.1l0.1-0.4l0.4-0.3l0.7-0.3l0.3-0.4v-0.6
	l-0.4-1v-0.4l0.1-0.7l1-1.8v-1.5l-0.8-1.2l0.4-0.7l0.6-0.3l0.7-0.1l0.1-0.3v-0.4l-0.6-0.8l0.1-0.7l1-0.6l0.1-1.2l-0.4-1.8l1.4-0.1
	v0.1l0.3,0.1l0.4-0.3l3.9-0.3l3.3-0.3l3.3-0.3l3.3-0.3l3.3-0.3l3.3-0.3l3.3-0.3l3-0.3l-0.1-2.1l-1-2.3h4.4l0.7,0.7l6.3-0.7l6.3-0.7
	l6.3-0.8l6.3-0.8l6.7-0.4l6.6-0.6l6.7-0.6l6.6-0.6l6.6-0.6l6.7-0.6l6.6-0.7l6.6-0.7l0.1-0.1l0.1-0.1h0.1l0.1-0.1l0.1-0.1l0.1-0.1
	l0.1-0.1L974.6,345.7L974.6,345.7z"/>
<path id="US-TX" d="M768,432.4l1.1,1.1l0.8,0.3l0.3,0.4l0.4,0.1l0.6-0.1l0.7-0.6l1.1,0.1l1-0.1l1.9,0.3l1.1,0.6l0.1,3.3l0.3,9.8
	L778,472l2.9,2.9l1.2,1.9l0.4,1l0.1,3.6l0.3,0.8l1.5,1.2v0.8l1.5,2.5v1.2l1.5,2.6l0.8,0.7l0.1,1.8l0.4,1.4l-0.7,1l0.3,1.4l-0.4,1.2
	l-0.1,1.7l-0.8,2.6l-0.8,1.4l-1.1,2.5l0.1,2.1l-0.6,2.2v0.8l0.7,1.5l0.3,4.1l-0.3,0.8l-1.4,2.5h-1l-2.1,4l1.4,2.2v0.8l-4.7,1
	l-9.9,4.7l-3.9,2.5l0.1-0.8l4.7-3.2l-1.7-0.4l-2.6,0.8l-1-0.3l1.1-2.6l-0.4-2.3H762l-1.2,1.8H760l-1.1-0.8l-0.8,0.3l0.7,4.1l1.2,1.7
	l1.1,2.2l-2.8,2.8l-2.5,2.2l-0.3,2.2l-2.6,2.8l-2.5,1.7l-5.6,3.7l-1.7,0.8l-2.6,1.8l-3.6,1.2l-3.4,2.1l-1.1,0.3l2.2-1.8l2.6-1.7
	l-2.2,0.3l-3.4-0.8h-2.1v0.7l-1.7,0.8l-1.7-1.4l-0.7-0.8l-0.4-1l-0.7-0.1l-0.7,0.3l2.5,5.4l1.1,0.3l1.1,0.6l-1.5,1.2l-1.5,1
	l-2.5,0.6l-2.1-1.9l-0.4,2.5l-0.3,2.5l-0.7,0.7l-1.1,0.8l-0.6-0.7l-0.3-1l-0.7,0.8L716,565l-1.8,0.1l-1.2,0.3v1l0.3,1l2.3-0.8
	l-0.8,2.6l-2.2,2.6l-1.8,0.6l-2.6-0.4l-0.7,0.3l-0.6,0.6l3,4.1l-2.1,6.1l-1.4,2.2l-0.8,0.3h-1l-3.4-2.1l-2.1-1.5l1.5,4.1l4.5,1.2
	l0.1,1.5v1.4l-1,1.5l-0.8,2.1l0.6,1.5l0.7,3.6l0.6,1.7l0.6,5.1l0.7,2.2l4,8.1l1.4,0.1l0.3,0.8l-0.1,1.7l-3,0.4l-1.2,0.7l-0.3,0.7
	l-0.1,0.3H707l-1.4-0.6l-3.2-2.3l-4.7-1.4l-6.2-0.7l-4.3-1.2l-2.2-1.8l-2.3-1.1l-2.5-0.4l-2.1-1l-1.5-1.7l-2.3-1.1l-3.2-0.6
	l-1.9-1.2l-1.4-2.9l-1.1-4.8l-1.5-3l-2.9-3.9l-0.3-0.6v-0.6l0.4-2.2l-0.3-1.5l-1-1.2l-0.1-1.4l0.6-1.4l0.1-1.7l-0.4-1.9l-1.9-2.2
	l-3.3-2.5l-2.8-3.4l-2.2-4.5l-2.2-3.2l-2.2-1.8l-1.5-2.2l-0.7-2.5l-0.1-1.4l0.4-0.4l-1.4-2.8l-3-5.2l-1.7-3.7l-0.4-2.3l-1.9-2.9
	l-3.4-3.4l-1.8-2.2l-0.4-1.5l-5.4-4.5L624,523l-1.2-1h-1.5l-0.7-0.3v-0.6h-0.4l-1,0.6l-3-0.1l-5-0.7l-3.6-1l-2.2-1.2h-1.5l-1,1.4
	l-1.9,0.8l-2.9,0.1l-2.8,2.5l-2.5,4.7l-1.1,3l0.1,1.4l-0.7,1l-1.4,0.6l-1.5,1.2l-1.7,2.1l-1.8,1l-1.9-0.3l-3.3-1.9l-4.8-3.7
	l-3.9-2.3l-2.6-0.7l-2.5-1.8l-2.1-2.5l-1.9-1.7l-1.8-1l-1.9-2.8l-2.1-4.5l-1-3.4l0.3-3.4l-2.5-7.8l-1.4-3.4l-1.1-1.7l-2.3-2.1
	l-3.4-2.5l-4.5-4.7l-5.5-6.9l-4-4.3l-2.3-1.5l-1.9-2.5l-1.5-3.4l-1.5-2.2l-0.1-0.1l-2.3-1.5l-1.5-4.5h0.1l22.7,2.8l50,4.5l0.6-6.7
	l0.6-6.7l0.6-6.7l0.6-6.7l0.6-6.7l0.6-6.7l0.6-6.7l0.6-6.7l0.6-6.7l0.6-6.7l0.6-6.7l0.6-6.7l0.6-6.7l0.6-6.7l0.6-6.7l0.6-6.7h0.8
	l21.5,1.7l7.2,0.4l3.6,0.3l7.2,0.4l3.6,0.1l7.2,0.4l7.2,0.3L659,365l-0.1,2.9l-0.1,2.9l-0.1,2.9l-0.1,2.9l-0.1,2.9l-0.1,2.9
	l-0.1,2.9l-0.1,2.9l-0.1,2.9L658,394l-0.1,2.9l-0.1,2.9l-0.1,2.9l-0.1,2.9l-0.1,2.9l1.1,0.3l1.4,0.8l3.4,3.2l1.1,0.7l1.9-0.3
	l2.1,0.4h0.6l0.4-1.2l0.1-0.3h0.3l1.8,1.2l0.3,0.4l1,1.7l0.1,1.9l0.6,0.3l1.1,0.3l2.6,0.1l3.3,1.4l1.4,0.3l2.5-0.3l2.2,1.8l0.8,0.3
	l0.7-0.3l1.4-1.2l2.9,0.3l2.3-0.1l0.1,1.5l0.4,1.1l1.9,1.1l0.4,0.6v1.8l0.6,0.4l0.8,0.1l0.8-0.1l1-0.6l2.1-1.7l0.7-0.4h0.4l0.4,0.1
	l0.3,0.4l0.7,1.4l1.8,0.7l1,1.1l0.7,0.1l0.7-0.1l1.1-0.7h0.8l1-0.7l0.4,0.1l0.1,0.6l-0.3,1.5l0.1,0.6l0.4,0.7l0.6,0.4l0.6,0.1
	l0.4-0.4l0.8-1.9v-0.7l0.8-0.3l0.4-0.4l0.6-1.4l0.8-0.4l0.4,0.1l0.4,0.4l0.8,1.2l2.1,0.7h0.6l0.6-0.3l1-1l0.4-0.1l0.4,0.1l0.3,0.1
	v1.2l2.1,1.4l1.5,0.4l1.5,1.4l0.4,0.1l0.7-1.1l1.4-0.4l1.4-1.1l4-1.5l1.5,0.4h1.5l0.4-0.7l2.8-1l0.6-0.4l0.8,0.4l0.3,0.7l0.4,0.3
	l1.9,0.3h1.1l1.9-0.8l0.7-1.1h0.4l1.4,0.6l3.7,2.2l1.9,1.8l2.1,0.8l1.1,0.8L768,432.4L768,432.4z M758,541l-1.1,0.3l4.5-3.7l1-1.2
	h1.2l-2.1,2.1L758,541L758,541z M721.1,565.1l-0.8,0.1l1-1.2l1.7-0.7l3.4-2.5l1.4-0.1l0.7-0.8l0.3-0.1l-0.3,1.1l-2.8,1.5
	L721.1,565.1L721.1,565.1z M715.7,571.2h-0.4l1.1-1.9l0.1-0.8l1.8-2.5l1-0.4l0.4,1.1l-1.8,1.8L715.7,571.2z M708.1,585.6l-0.7,1.4
	l0.3-2.1l1.8-4.7l3.7-6.2l1.5-1l-4.3,6.7L708.1,585.6z M711.7,613.6l-0.3,1.1l-1.8-5.4l-2.8-12v-6.9l0.6-2.3l0.6,9.6l3,12.3
	L711.7,613.6L711.7,613.6z"/>
<path id="US-UT" d="M469.9,210.5l-0.6,2.9l-0.6,2.9l-0.6,2.9l-0.6,2.9l-0.6,2.9l-0.6,2.9l-0.6,2.9l-0.6,2.9l4.4,0.7l31.8,4.8
	l-0.8,5.9l-0.8,5.9l-0.8,5.9l-0.8,5.9l-0.8,5.9l-0.8,5.9l-0.8,5.9l-0.8,5.9l-0.8,5.9l-0.8,5.9l-0.8,5.9l-0.8,5.9l-0.8,5.9l-0.8,5.9
	l-0.8,5.9l-0.8,5.9l-5.9-0.8l-5.9-0.8l-5.9-1l-5.9-1l-5.9-1l-5.9-1l-5.9-1l-5.9-1l-5.9-1l-5.9-1.1l-5.9-1.1l-5.9-1.1l-6.1-0.7
	l-5.9-1.1l-5.9-1.1l-5.9-1.2l0.7-3.7l0.7-3.7l0.7-3.7l0.7-3.7l0.7-3.7l0.7-3.7l0.7-3.7l0.7-3.7l0.7-3.7l0.7-3.7l0.7-3.7l0.7-3.7
	l0.7-3.7l0.7-3.7l0.7-3.7l0.7-3.7l0.7-3.7l0.7-3.7l0.7-3.7l0.7-3.7l0.7-3.7l0.7-3.7l0.7-3.7l0.7-3.7l0.7-3.7l0.7-3.7l0.7-3.7
	l0.7-3.7l0.7-3.7l0.7-3.7l0.7-3.7l0.7-3.7l6.6,1.4l9.8,1.9l3.3,0.7l26.4,4.4L469.9,210.5L469.9,210.5z"/>
<path id="US-VA" d="M1074.5,262.3l1.2,0.7l2.6,0.6l1.2,0.8l-0.3,1.1l0.1,0.8l0.6,0.6l3.6,0.7l2.5,1.5l1.4,0.3l0.4,0.1l1,0.3l0.6,0.6
	l0.3,2.8l-0.6,1.5l-1.1,1.2l-1.4,2.2l-0.1,1.8l0.1,3.2l1,0.8l0.8,0.1l2.1-1.2h1.2l3.4,3.2l5.1,0.4l1.9,0.6l1.9,1.7l2.5,0.7l2.1,1.2
	l0.3,1.1l-0.3,1.4l0.1,1.8l-0.6,1.2l-1.7,0.6h-1.1l-6.9-4.8l-0.8-0.4l-2.8-2.8l-2.8-1.1l-0.7,0.1l4.1,2.3l1.9,1.9l3.2,2.5l2.1,1
	l1.8,1.7l1.4,0.7l3.6,0.6l-1,1.2l2.1,0.4l0.6,1.5l0.3,1.8l-2.8-0.1l0.1,1.2l0.4,0.7l-1,0.8l-1.8-0.6l-5.1-3.7l0.1,0.6l0.6,0.7l3,2.5
	l2.5,1.4l1.9,0.4l1.7,1.2l0.7,0.8l0.7,1.2l-0.8,1.1l-1.1,0.8l-1.4-0.7l-1.1-0.8l-2.2-1.2l-1-1.8l-1.4,0.4l-6.2-1.1l-4.7,0.7l0.6,0.4
	l0.7,0.1l3.7-0.1l1.7,0.8l3.2,0.3l1.8-0.1l1.4,2.8l2.9,1.5l0.7,1.4l1.7-0.1l2.6-2.1l1.9,0.1l2.8-0.1l0.8,1.1l1,2.2l1.5,2.3l1.2,2.3
	l-0.6,0.1l-1.5,0.3l-4.7,1l-6.9,1.4l-6.9,1.4l-6.9,1.4l-6.9,1.4l-6.9,1.4l-6.9,1.2l-6.9,1.2l-6.9,1.2l-6.9,1.2l-6.9,1.2l-6.9,1.1
	l-6.9,1.1l-6.9,1.1l-6.9,1.1l-6.9,1.1l-0.4-0.3l-2.8,0.3l-2.1,0.3l-0.8,0.7l-4,0.6l-3.2,0.4l-5.4,0.8l-6.6,1l-9.2,1.2l-4.3,0.6
	l1.8-1.4l2.8-1.1l4.8-2.6l1.8-2.2l2.6-1.8l1-1.9l1.7-1.9l0.4-1.9l0.3-0.3l2.9-2.2l2.9-2.6l6.2-6.9l0.3,0.7l-0.1,0.8l0.7,0.8l0.7,1.4
	l0.8,0.8l1,0.6l1.5,0.4l1.9,0.8l1.4,0.1l0.4-0.1l1.4-1.4l1.1-0.8l1.1-1.4l2.6,1.2l1-0.1l2.2-1.1l2.1-0.6l0.6-0.3l0.7-0.8l-0.3-1.4
	l0.1-0.4l0.3-0.3l0.4-0.1l1.1,0.4l1-0.1l3.7-2.3h0.3l0.7,0.7l1.7-1.2l0.8-1.1l0.3-1.4l0.7-1.4l-0.3-0.6l-0.7-0.7l0.4-1.9l0.8-1.9
	l3.2-5.9l0.7-3.4l1.2-2.3l0.3-1.7l1-1.8l0.3-3.4l0.4-0.8l0.7-0.3l0.8,0.3l0.7,0.6l0.6,1l2.2,0.6l1.7-0.1l1.1-0.8l0.4-1.2l0.6-2.3
	l0.7-1.5l0.3-1.8l0.4-1.2l0.8-0.8l2.2-0.4l1-1.2l0.7-1.2l0.4-0.4h0.7l1.7-2.2l1.9-4.3l0.1-2.5l0.4-1.8l-0.1-1.8l0.3-1.1l2.8,1.4
	l1.5,0.8l3.6,1.9l2.3,1.2l0.4-2.1L1074.5,262.3L1074.5,262.3z M1126.4,283l0.4-0.1l-1.1,4l-0.7,0.6L1126.4,283L1126.4,283z
	 M1119.4,286.7l0.6-1.2l2.8-1l1.7-0.7l-1.9,10.1l0.6,1.7l-0.7,0.7l-1.1,0.7l-1.1,1.2l-0.6,1.2l-0.1,3.2l-0.7,3.7l-1.2-1.2l-0.6-1.1
	l-0.3-3.3l0.4-5.5l1.1-3.6l1-1.8L1119.4,286.7z"/>
<path id="US-VT" d="M1148.7,161.8l-1.7,0.4l-1.7,0.4l-1.7,0.4l-1.7,0.4l-1.7,0.4l-1.7,0.4l-1.7,0.4l-1.7,0.4l-0.8-1.2l-0.1-1.2
	l-0.4-1.7l-0.6-2.2l-0.6-2.3l-0.7-3.2l-0.6-2.2l-0.4-1.9l-0.7-2.6l-1.4-1.2l-0.4-0.1l-0.3,0.3l-0.4,1.1h-0.3l-0.3-0.1l-0.1-1
	l-0.1-3.3l-0.3-1l-0.6-1.7l-1.7-3.6l-0.3-0.8v-1.4l0.1-1.4l0.6-1.5v-0.6l-0.7-2.3l-0.3-2.2l-1.9-2.9l-0.7-4.3l-0.8-1.9l-0.1-1.9
	l-0.6-1.5l2.8-0.7l6.9-1.8l6.9-1.8l6.9-1.8l6.9-1.9l-0.1,0.6l0.8,1.8l-1,3.7l0.3,1l1.7,2.6l0.1,0.7l-0.1,0.4v1.2l-0.3,0.8l-0.6,1
	l-1.9,2.5l-0.6,0.7l-2.1,1.2l-0.3,0.8l0.7,4.4l-0.1,2.6l0.1,1.1l-0.6,2.2l-0.3,2.3l-0.8,2.1l-0.1,2.3l-0.1,1v1.4l0.8,4.7l0.1,2.6
	l0.6,4.4l-0.1,1.2l-0.3,0.7v1.9l0.1,0.7l0.4,0.6l1.4,1.2L1148.7,161.8L1148.7,161.8z"/>
<path id="US-WA" d="M389.4,96.4l-4-1l-4.4-1.1l-4.3-1.1l-4.3-1.1l-4.3-1.1l-4.3-1.1l-4.3-1.1l-4.3-1.1h-0.3l-0.6,0.3l-2.3,0.3
	l-4.1-0.8h-8.8l-4.1,0.8h-3.4l-6.2-0.8l-5.6-0.3l-2.2-0.7l-0.7-1.2l-2.5-1.4l-4.1-1.4l-3.7-0.4l-3.9,1.1l-1.5,0.1l-0.8-0.1l-5.5-2.5
	l-1.4-0.6l-1-1.4l0.1-1.8v-5.8l-0.7-3.6l-1.2-1.5l-1.1-0.8l-1.8,0.1l-0.4-0.4l-0.7-0.3l-1.4-1.7l-0.6-1.5l-3-0.8l-0.4-1l-3.6-0.3
	l-0.8-1.1l-1.9-0.1l1.1-2.1l0.8-2.8l1-2.6l-0.1,2.1l0.4,2.3l1.2-2.2l1.2-2.8l-0.7-1.5l-1.5-1.4l0.3-2.9l5-1l-2.1-1.2l-0.6-1.4
	l-1.1-0.4l-0.3,0.8l-0.7,1v-1.5l0.4-1.7l0.4-2.9l-0.3-5.1l0.8-6.2l-0.4-3.3l-1.7-3.6l-0.1-1.8l0.7-4.3l1.4-3l0.3-2.3l1.1,0.6
	l2.6,2.8l3.4,2.6l0.8,1.4l1.7,1.4l10.2,4.4l0.7,0.1l1.5-0.3l0.6,0.3l1.1,2.1l0.7,0.4l1.1,0.3l0.8-0.1l1.7-0.7V22l-0.3,1v1.7l0.4,2.2
	v1.2l-2.9,2.8h-0.4l0.3-1.1l-0.1-0.3l-5.2,4.5l-2.1,2.2l-0.6,1.1l-0.1,0.7l0.4,0.3l1.2,0.1l2.1-0.6l0.1-0.3l-1.7-0.1l-0.8-0.1
	l0.6-1.2l0.4-0.6l1.7-1.5l1.4-0.8l1.9-0.7l1.2-0.7l1.1-1.2l2.2-1.2l0.4-0.4l0.4-1.4l0.1-0.3l0.8,0.4l-0.4,2.5l-0.6,1L308,32
	l-0.3,0.4l-0.3,1.9l-0.3,0.1l-0.6-0.4h-0.1l0.8,2.3V38l-0.3,1.4l-1.1,2.5l-0.6,0.3l-0.7-0.4l-0.7-1.1l-0.3,0.1l-1.4,1.8l-0.1-0.3
	l0.3-2.5l-0.1-0.3l-1.8,0.7l-0.8,0.8l-1,1.5l-0.8,0.6l1.8,0.7l1.7,0.1l1.1,1.2l0.4,0.1l1.4-0.4l0.6-0.4l1.8-2.2l0.7-0.3L308,42
	l0.8-0.1l1.5-1.1l0.1-0.6L311,37l0.7-1.8V35l-0.3-0.7l0.3-0.6l0.7-0.8l0.3-0.8l-0.1-0.8l0.4-0.8l1.5-1.5l0.4-0.7l1.8-1.5l-0.1-0.8
	l-0.6-1.1l-0.3-1l-0.1-1.4l-0.3-0.6l-0.1,0.1v2.2l-0.1,0.1l-1.2-1.5l-0.1-0.8l0.1-1l0.3-0.7l1.1-0.4h1.1l0.1-0.6l-1.7-2.2l-0.6-1.1
	l-0.6-0.6l-0.8-0.4l-0.3-0.4v-0.4l0.4-0.6h0.6l1.2,0.7l0.8-0.1l0.1-0.8l-0.1-0.4l0.8-2.6l0.1-2.3l-0.1-0.4L316,7.6l0,0.1l-0.8-0.1
	l-0.3-0.8l-0.1-1.5V1.7l1.5,0.4l26.4,7.7l26.4,7.2l34.7,8.7l-0.8,3.9l-0.8,3.9l-0.8,3.9l-0.8,3.9l-0.8,3.9l-0.8,3.9l-0.8,3.9
	l-0.8,3.9l-0.8,3.9l-0.8,3.9l-0.8,3.7l-0.8,3.7l-0.8,3.7l-0.8,3.7l-0.8,3.7l-0.8,3.7l-0.1,0.1l-0.3,0.6l0.1,1.7l0.6,2.6v1.7
	l-0.7,0.8l-0.1,1.7L389.4,96.4L389.4,96.4z M310.3,0l0.6,0.1l-0.3,0.3l-0.1-0.1L310.3,0L310.3,0z M312.7,9v0.6l-0.8,0.3h-0.4l-0.4-1
	l-0.3-0.1l-0.1,1.2l-0.3,0.4l-1.2-1.2l-0.1-0.7l0.6-0.6l1.1-0.4h0.3L312.7,9L312.7,9z M308,11.8l0.1,0.8l-1.5-1l-0.6-0.7l-0.1-0.6
	l0.1-1.5l0.3-0.4h0.8l0.8,2.2v1.2H308z M310.3,14.3l-0.3,0.1l-0.7-0.6l-0.3-0.7v-0.7l0.7-1.1l0.6-0.1l0.3,0.1l-0.3,1.1l0.4,1.4
	C310.7,13.9,310.3,14.3,310.3,14.3z M312.3,21.9l-0.1,3.3l0.7-1.2l1.5,2.9L314,28l-0.4,0.3h-0.4l-0.3-0.4l-0.1-0.8l-0.4-0.6l-1-0.6
	l-0.3-1v-0.7l0.4-1.7l-0.1-0.6l-0.6-0.3l-0.4-0.6l-0.4-1.4v-0.4l0.7-0.8l1.4-1.4l0.8-0.6l0.4,0.1l0.3,0.7l0.3,1.1l-0.3,0.6l-2.8,0.6
	l-0.1,0.3l1,0.7l0.3,0.4L312.3,21.9L312.3,21.9z M309.5,35.2l-0.3,0.4l-0.7-0.8l-0.1-0.6l0.4-1.1l0.4-0.7l0.1-0.1l0.4,0.4l0.1,0.3
	L309.5,35.2L309.5,35.2z M309.8,40.5l-0.3,0.6l-0.7,0.3l-0.3-0.1l0.1-0.7l-0.1-0.1l-0.8,0.6l0.6-1.5l0.8-1.5h0.3l0.1,1.1
	C309.5,39,309.8,40.5,309.8,40.5z M301.2,42.7l-0.3,0.4l-0.3-0.1l-0.3-1.1l0.1-0.7l0.6-0.4l0.1,1.5L301.2,42.7L301.2,42.7z"/>
<path id="US-WI" d="M829.7,109.1l-0.6,0.4l-0.3-0.1l0.1-0.7l0.3-0.4l0.4-0.1l0.3,0.1v0.6L829.7,109.1L829.7,109.1z M825.2,111.7
	l-0.3,0.1l-0.7-0.4l-0.1-0.3l0.1-0.3h0.3l0.4,0.4L825.2,111.7L825.2,111.7z M830.5,119.5L830.5,119.5l0.3,0.9l0.8-0.3l0.4,0.6
	l0.6,0.1l1,0.4l2.1,3.9l6.3,1.4l8.5,1.7l2.1,0.4l2.5,1.2l2.5,1.1h1.8l1.7,0.3l2.3-0.1l2.3,0.3l3.4,0.8l0.8,0.8l0.1,0.7l-0.1,1.5
	l3.3,1.1l1.5,0.8l0.6,0.7v0.7l0.4,1.4l-0.3,0.8l0.1,1.4l-0.6,1.5l-0.1,0.8v0.7l0.1,0.4l0.4,0.1l1.2-0.1l1.2-0.6l0.6,0.3l0.1,0.3v0.4
	l-0.8,2.6l0.1,1l0.6,1l0.8,0.8l0.8,0.3v0.7l-0.3,1.2l-0.8,1.1l-2.3,1.4l-0.3,0.8v0.7l-1.4,2.9l-0.7,1.8l-0.4,1.8l0.3,1.1l0.8,0.4
	l0.7-0.3l0.4-0.8l0.7-0.8l1.1-0.7l0.7-1.1l0.8-2.5l1.1-1.5l0.7-0.1h0.1l1.2-0.7l1.1,0.1l0.7,0.8l0.7,0.6l0.1,0.6l-0.1,1.4l-0.4,1.5
	l-0.7,1.5l-0.6,2.3l-0.4,3v2.2l0.6,1.5l-0.3,1.4l-1.1,1.2l-0.8,1.7l-0.6,2.1l-0.3,1.7v1.4l0.1,1l0.6,1.4v0.7l-1,3l-0.3,1.5v1.1
	l-0.3,1.1l-0.8,2.3l-0.1,1.2v1.2l0.4,1.9v0.7l0.1,0.6l0.3,0.3v0.6l-0.1,1l0.1,0.7l0.6,0.4l0.4,1l0.3,1.4l0.4,1.1l0.7,0.8l0.3,1.4
	l0.1,1.8l0.1,3.3l0.1,1.1l-2.2,0.1l-8,0.7l-8,0.6l-8,0.6l-8,0.6l-8,0.4l-8.1,0.4l-0.1-0.1l-0.7-2.1l-1.9-1.5l-3-0.8l-2.1-1.5l-1-2.2
	l-0.7-2.5l-0.4-2.8l0.1-2.3l0.6-1.9l-0.3-1.2l-1.1-0.6l-0.7-0.8l-0.4-1.1l-0.1-1.5l-1-7l-0.8-3.3l-1.1-1.2l-2.3-1.4l-3.6-1.5
	l-2.2-1.5l-1.4-2.2l-2.6-2.6l-1.7-1l-1.7-0.3l-1.2-0.8l-1-1.2l-1.4-0.8l-1.7-0.3l-1.9-1l-2.2-1.9V167l-0.6-1.4l0.3-0.8l0.3-2.8v-0.8
	l-0.6-2.5l0.6-1l-0.3-3l0.1-1l1.1-2.5V150l-0.4-1.4l-0.8-1.1l-2.3-1.1l-0.1-1.5l0.3-1.1l1.4-2.2l0.7-1.9l0.7-0.8l4.4-3l1-0.3
	l0.7-0.8l0.6-0.4l-0.1-3.4l-0.1-3.4l-0.1-3.4l-0.1-3.4l1.1-0.3l0.4-0.8l1.1-1.4h0.3l0.6,0.6l1.5,0.8h1.1l1.4-0.3l5.5-1.8l2.3-1.2
	l2.2-1.9h0.3l1,0.3l0.3,0.1l2.9-2.2l1-0.3h0.8l1,0.8l0.3,0.6l-0.3,1l-0.8,1.5l-0.4,1.2l0.1,1l-0.3,1.1l-0.8,1.5l0.4,0.4l2.5-1.1
	l0.3-0.4v-1l-0.1-0.3l0.3-0.1l2.1,1.2l1.4,0.7l1.1,0.3L830.5,119.5L830.5,119.5z M827.8,111.8l-0.6,0.1l-1.2-0.1v-0.4l1.2-0.6
	l0.6-0.1l0.1,0.1L827.8,111.8L827.8,111.8z M825.3,115.2l-1,0.4h-0.4l0.1-0.4l0.4-0.6l2.1-1.5h0.4l0.1,0.3l-1.1,0.7l-0.4,0.4v0.4
	L825.3,115.2L825.3,115.2z M892.5,144.4l-0.6,0.3h-1l-0.4-0.6l0.3-1.4l0.3,0.3h0.8l0.3,0.1l0.1,0.3L892.5,144.4L892.5,144.4z
	 M890.6,147.3l-0.3,0.3l-0.6-0.1l-0.1,0.4l0.3,1.1l-0.1,0.6h-0.4v0.1l0.4,0.4l0.1,0.6l-0.3,0.6l-0.3,0.3H889l-0.4,0.7l-0.6,1.4
	l-0.1,0.8l0.3,0.1l-0.1,0.4l-1.4,2.2l-0.6,0.3l-0.7-0.3l-0.6-0.6l-0.4-1l-0.1-0.7v-0.6l1.2-1.9l0.6-1.2l0.3-1.4l0.6-1l0.8-0.4l0.7-1
	l0.4-1.4l0.6-0.7l0.8,0.1l0.4,0.4L890.6,147.3L890.6,147.3z"/>
<path id="US-WV" d="M1040.9,259.6l1.1,6.1l1,6.1l2.1-2.2l1.1-0.8l3.3-4.5l0.6-0.1l1.5,0.3l2.3-3.3l0.1-1.1l0.3-0.4h0.4l0.3,0.3v0.6
	l0.3,0.3l1.2,0.4h1.9l1.4-0.3l0.6-0.7l0.1-1.1l0.6-0.7l1.4-0.6l2.3-1.7l1.5-0.1l1.5,0.8l1.4,0.3l1.4-0.3l0.6,0.1l-0.1,0.7l0.4,0.6
	l1.1,0.6l0.4,0.6l-0.1,0.7l0.1,0.4l0.6,0.1l0.4,0.7l0.3,1.1l0.3,0.1l-0.6,3l-0.4,2.1l-2.3-1.2l-3.6-1.9l-1.5-0.8l-2.8-1.5l-0.3,1.1
	l0.1,1.8l-0.4,1.8l-0.1,2.5l-1.9,4.3l-1.7,2.2l-0.7,0.1l-0.4,0.4l-0.7,1.2l-1,1.2l-2.3,0.4l-0.8,0.8l-0.4,1.2l-0.3,1.7l-0.7,1.5
	l-0.6,2.3l-0.4,1.2l-1.1,0.8l-1.7,0.3l-2.2-0.6l-0.6-1l-0.7-0.6l-0.8-0.3l-0.7,0.3l-0.4,0.7l-0.3,3.4l-1,1.8l-0.3,1.8l-1.4,2.3
	l-0.7,3.4l-3.2,5.9l-0.8,1.9l-0.4,1.9l0.7,0.7l0.3,0.6l-0.7,1.4l-0.3,1.4l-0.8,1.1l-1.5,1.2l-0.7-0.7l-0.3-0.1l-3.7,2.3l-1,0.1
	l-1.1-0.3l-0.4,0.1l-0.3,0.3l-0.1,0.4l0.3,1.4l-0.7,0.8l-0.6,0.3l-2.1,0.6l-2.2,1.1l-1,0.1l-2.6-1.2l-1.1,1.4l-1.1,0.8l-1.4,1.4
	l-0.4,0.1l-1.4-0.1l-1.9-0.8l-1.5-0.4l-1-0.6l-0.8-0.8l-0.7-1.4l-0.7-0.8l0.1-0.8l-0.3-0.7l-2.8-0.3l-3.7-2.2l-2.6-3l-1-1.5l-1-1
	l-0.4-1.1l-2.5-2.5l-0.7-1.1l-0.1-0.7l0.4-1.5v-0.7l-0.7-3.4l-0.6-0.6l2.2,0.4l1.9-0.7l1.1-1.2l0.3-1.8l0.6-1.1l0.8-0.4l0.3-0.8
	l-0.4-1.8l-0.6-1.2l0.4-1.9l1.2-3l1.1-1.4l1,0.4l0.7,0.8l0.4,1.2l0.3,0.1h0.3l0.6-1.1l0.6-0.4h0.6v-0.6l-0.8-1.7l-0.1-1l0.6-0.4
	l0.4-1.2l0.4-2.1l0.7-1.1l1-0.1l0.8-1l0.8-1.8l0.8-0.6l1,0.6l1.1-0.1l1.2-0.8l1.9-2.1l2.8-3.3l1.2-2.5l-0.3-1.7l0.6-4.3l1.4-6.9
	l0.6-4.4l-0.4-1.9l-0.6-1.5l-0.8-1.1l0.3-1l1.9-1.4l1.2,8.3l1,5.5l1.2,8.3l2.3-0.4l2.3-0.4l2.3-0.4l2.3-0.4l2.3-0.4l2.3-0.4l2.3-0.4
	L1040.9,259.6L1040.9,259.6z"/>
<path id="US-WY" d="M596.5,202.5l-0.6,5.9l-0.6,5.9l-0.6,5.9l-0.6,5.9l-0.6,5.9l-0.6,5.9l-0.6,5.9l-0.6,5.9l-5.6-0.6l-5.6-0.6
	l-5.6-0.6l-5.6-0.6l-5.6-0.6l-5.6-0.6l-5.6-0.7l-5.6-0.7l-5.6-0.7l-5.6-0.7l-5.6-0.7l-5.6-0.7l-5.6-0.7L513,241l-5.6-0.8l-5.6-0.8
	l-4.5-0.7l-4.5-0.7l-4.5-0.7l-4.5-0.7l-4.5-0.7l-4.5-0.7l-4.5-0.7l-4.4-0.7l0.6-2.9l0.6-2.9l0.6-2.9l0.6-2.9l0.6-2.9l0.6-2.9
	l0.6-2.9l0.6-2.9l0.7-3.7l0.6-3.7l0.6-3.7l0.6-3.7l0.6-3.7l0.7-3.7l0.6-3.7l0.6-3.7l0.7-3.7l0.6-3.7l0.6-3.7l0.7-3.7l0.6-3.7
	l0.6-3.7l0.7-3.7l0.6-3.7l0.6-3l0.6-3l0.6-3l0.6-3l59.5,8.8l40.9,4.5l7.4,0.7l3.7,0.4l7.4,0.6l-0.6,6.1l-0.6,6.1l-0.6,5.9l-0.6,5.9
	l-0.6,5.9l-0.6,5.9l-0.6,5.9L596.5,202.5L596.5,202.5z"/>
</svg>
